<?xml version="1.0" encoding="utf-8" standalone="no"?>
<!DOCTYPE svg PUBLIC "-//W3C//DTD SVG 1.1//EN" "http://www.w3.org/Graphics/SVG/1.1/DTD/svg11.dtd">
<svg width="600" height="400" version="1.1" xmlns:xlink="http://www.w3.org/1999/xlink" xmlns="http://www.w3.org/2000/svg">
  <polyline points="59.1657,362.375 59.1657,366.375" style="fill:none;stroke:black;stroke-width:1" />
  <polyline points="77.2147,362.375 77.2147,366.375" style="fill:none;stroke:black;stroke-width:1" />
  <polyline points="95.2636,362.375 95.2636,366.375" style="fill:none;stroke:black;stroke-width:1" />
  <polyline points="113.3126,362.375 113.3126,366.375" style="fill:none;stroke:black;stroke-width:1" />
  <polyline points="149.4105,362.375 149.4105,366.375" style="fill:none;stroke:black;stroke-width:1" />
  <polyline points="167.4594,362.375 167.4594,366.375" style="fill:none;stroke:black;stroke-width:1" />
  <polyline points="185.5084,362.375 185.5084,366.375" style="fill:none;stroke:black;stroke-width:1" />
  <polyline points="203.5573,362.375 203.5573,366.375" style="fill:none;stroke:black;stroke-width:1" />
  <polyline points="239.6552,362.375 239.6552,366.375" style="fill:none;stroke:black;stroke-width:1" />
  <polyline points="257.7042,362.375 257.7042,366.375" style="fill:none;stroke:black;stroke-width:1" />
  <polyline points="275.7531,362.375 275.7531,366.375" style="fill:none;stroke:black;stroke-width:1" />
  <polyline points="293.8021,362.375 293.8021,366.375" style="fill:none;stroke:black;stroke-width:1" />
  <polyline points="311.851,362.375 311.851,366.375" style="fill:none;stroke:black;stroke-width:1" />
  <polyline points="329.9,362.375 329.9,366.375" style="fill:none;stroke:black;stroke-width:1" />
  <polyline points="347.9489,362.375 347.9489,366.375" style="fill:none;stroke:black;stroke-width:1" />
  <polyline points="365.9979,362.375 365.9979,366.375" style="fill:none;stroke:black;stroke-width:1" />
  <polyline points="384.0468,362.375 384.0468,366.375" style="fill:none;stroke:black;stroke-width:1" />
  <polyline points="420.1447,362.375 420.1447,366.375" style="fill:none;stroke:black;stroke-width:1" />
  <polyline points="438.1937,362.375 438.1937,366.375" style="fill:none;stroke:black;stroke-width:1" />
  <polyline points="456.2426,362.375 456.2426,366.375" style="fill:none;stroke:black;stroke-width:1" />
  <polyline points="474.2916,362.375 474.2916,366.375" style="fill:none;stroke:black;stroke-width:1" />
  <polyline points="510.3895,362.375 510.3895,366.375" style="fill:none;stroke:black;stroke-width:1" />
  <polyline points="528.4385,362.375 528.4385,366.375" style="fill:none;stroke:black;stroke-width:1" />
  <polyline points="546.4874,362.375 546.4874,366.375" style="fill:none;stroke:black;stroke-width:1" />
  <polyline points="564.5364,362.375 564.5364,366.375" style="fill:none;stroke:black;stroke-width:1" />
  <polyline points="35.6479,344.2322 31.6479,344.2322" style="fill:none;stroke:black;stroke-width:1" />
  <polyline points="35.6479,324.2191 31.6479,324.2191" style="fill:none;stroke:black;stroke-width:1" />
  <polyline points="35.6479,284.193 31.6479,284.193" style="fill:none;stroke:black;stroke-width:1" />
  <polyline points="35.6479,264.1799 31.6479,264.1799" style="fill:none;stroke:black;stroke-width:1" />
  <polyline points="35.6479,244.1669 31.6479,244.1669" style="fill:none;stroke:black;stroke-width:1" />
  <polyline points="35.6479,224.1538 31.6479,224.1538" style="fill:none;stroke:black;stroke-width:1" />
  <polyline points="35.6479,204.1407 31.6479,204.1407" style="fill:none;stroke:black;stroke-width:1" />
  <polyline points="35.6479,184.1277 31.6479,184.1277" style="fill:none;stroke:black;stroke-width:1" />
  <polyline points="35.6479,164.1146 31.6479,164.1146" style="fill:none;stroke:black;stroke-width:1" />
  <polyline points="35.6479,144.1016 31.6479,144.1016" style="fill:none;stroke:black;stroke-width:1" />
  <polyline points="35.6479,124.0885 31.6479,124.0885" style="fill:none;stroke:black;stroke-width:1" />
  <polyline points="35.6479,84.0624 31.6479,84.0624" style="fill:none;stroke:black;stroke-width:1" />
  <polyline points="35.6479,64.0493 31.6479,64.0493" style="fill:none;stroke:black;stroke-width:1" />
  <text dominant-baseline="hanging" text-anchor="middle" transform="translate(41.1167,373.375)" font-family="Segoe UI" font-size="12" font-weight="400" fill="black">-3</text>
  <text dominant-baseline="hanging" text-anchor="middle" transform="translate(131.3615,373.375)" font-family="Segoe UI" font-size="12" font-weight="400" fill="black">-2</text>
  <text dominant-baseline="hanging" text-anchor="middle" transform="translate(221.6063,373.375)" font-family="Segoe UI" font-size="12" font-weight="400" fill="black">-1</text>
  <text dominant-baseline="hanging" text-anchor="middle" transform="translate(311.851,373.375)" font-family="Segoe UI" font-size="12" font-weight="400" fill="black">0</text>
  <text dominant-baseline="hanging" text-anchor="middle" transform="translate(402.0958,373.375)" font-family="Segoe UI" font-size="12" font-weight="400" fill="black">1</text>
  <text dominant-baseline="hanging" text-anchor="middle" transform="translate(492.3406,373.375)" font-family="Segoe UI" font-size="12" font-weight="400" fill="black">2</text>
  <text dominant-baseline="hanging" text-anchor="middle" transform="translate(582.5853,373.375)" font-family="Segoe UI" font-size="12" font-weight="400" fill="black">3</text>
  <polyline points="41.1167,362.375 41.1167,369.375" style="fill:none;stroke:black;stroke-width:1" />
  <polyline points="131.3615,362.375 131.3615,369.375" style="fill:none;stroke:black;stroke-width:1" />
  <polyline points="221.6063,362.375 221.6063,369.375" style="fill:none;stroke:black;stroke-width:1" />
  <polyline points="311.851,362.375 311.851,369.375" style="fill:none;stroke:black;stroke-width:1" />
  <polyline points="402.0958,362.375 402.0958,369.375" style="fill:none;stroke:black;stroke-width:1" />
  <polyline points="492.3406,362.375 492.3406,369.375" style="fill:none;stroke:black;stroke-width:1" />
  <polyline points="582.5853,362.375 582.5853,369.375" style="fill:none;stroke:black;stroke-width:1" />
  <text dominant-baseline="middle" text-anchor="end" transform="translate(24.6479,304.206)" font-family="Segoe UI" font-size="12" font-weight="400" fill="black">-2</text>
  <text dominant-baseline="middle" text-anchor="end" transform="translate(24.6479,204.1407)" font-family="Segoe UI" font-size="12" font-weight="400" fill="black">0</text>
  <text dominant-baseline="middle" text-anchor="end" transform="translate(24.6479,104.0754)" font-family="Segoe UI" font-size="12" font-weight="400" fill="black">2</text>
  <polyline points="35.6479,304.206 28.6479,304.206" style="fill:none;stroke:black;stroke-width:1" />
  <polyline points="35.6479,204.1407 28.6479,204.1407" style="fill:none;stroke:black;stroke-width:1" />
  <polyline points="35.6479,104.0754 28.6479,104.0754" style="fill:none;stroke:black;stroke-width:1" />
  <polyline points="418.5039,250.8628 420.848,251.3649 422.1874,251.6846 423.9733,252.0918 424.8211,252.2221 427.5352,252.7078 429.4427,253.0618 430.2466,253.1683 433.464,253.5374 434.9121,253.7457 436.972,253.8879 438.2199,253.9461 440.3814,254.1093 442.842,254.1174 443.4146,254.1035 445.8508,254.1123 448.0568,253.9716 449.331,253.8474 451.3202,253.7063 452.7378,253.5199 456.5,252.8737 457.3196,252.7078 460.7899,251.8662 462.259,251.4327 464.3138,250.7516 467.3296,249.5744 467.7283,249.4092 469.3594,248.64 470.5782,248.0737 473.1977,246.656 473.5671,246.4411 476.0037,244.9152 476.5584,244.5158 478.2613,243.3077 478.6671,242.9929 480.7376,241.3605 482.0662,240.1744 482.8624,239.4445 484.1365,238.1208 484.8345,237.4409 485.1983,237.041 486.2652,235.8215 486.6801,235.3648 487.8601,233.9076 488.3928,233.2127 489.6059,231.4331 490.3391,230.3542 491.425,228.6831 492.032,227.6409 492.7411,226.3037 493.0394,225.6739 493.6278,224.5076 493.9229,223.8474 494.8667,221.4937 495.0752,220.9054 495.8826,218.7034 496.2106,217.5904 496.6648,216.0181 496.9032,215.1075 497.1349,213.9276 497.5241,211.9741 497.7121,210.4635 497.9127,208.8408 497.9903,207.3774 498.0773,205.7074 498.0514,204.2791 498.0208,202.5741 497.8852,201.0505 497.7414,199.4407 497.5183,198.0411 497.2327,196.3073 496.9822,195.2149 496.7026,194.1063 496.4838,193.174 496.2781,192.4849 495.5657,190.3216 495.0752,189.0261 494.4362,187.2734 494.0064,186.2949 493.3456,184.7648 492.8693,183.7739 492.1118,182.3383 491.158,180.6406 490.765,179.9765 489.6059,178.2138 488.8812,177.0921 487.7756,175.4224 487.0019,174.3738 486.1404,173.2258 484.8093,171.626 484.1365,170.8157 482.6239,168.9737 481.8354,168.1071 480.766,166.9047 479.1393,165.2443 478.6671,164.7535 476.8816,162.8633 475.8232,161.8404 474.8814,160.8759 473.1977,159.2907 472.5917,158.7071 471.7614,157.8842 470.8218,156.9348 469.3744,155.5737 468.7852,154.9683 467.7283,153.9498 466.777,152.9854 466.2113,152.4403 464.8322,150.9662 464.4218,150.546 463.2264,149.307 462.259,148.2158 461.0961,146.8398 460.5228,146.1736 459.3837,144.6875 459.1586,144.3974 458.1102,143.0403 457.7349,142.4987 456.7896,141.1485 455.9882,139.9069 455.5872,139.218 454.817,137.9036 454.1632,136.7735 453.4897,135.5307 452.9853,134.5941 452.2053,133.1331 451.3202,131.4452 450.7143,130.1597 449.8066,128.2406 449.3953,127.3735 448.631,125.8328 447.8329,124.2401 447.3702,123.3697 446.2375,121.3283 445.8508,120.6654 444.7389,118.6104 444.3748,117.9734 443.563,116.6627 443.335,116.2814 442.4078,114.84 441.8354,114.0071 440.3814,112.0616 439.9549,111.4623 438.5865,109.6017 437.7531,108.5733 436.8258,107.477 434.9224,105.4459 434.9121,105.435 433.0291,103.3853 431.9173,102.3066 430.9931,101.4184 429.4427,100.0923 428.4387,99.1732 426.6477,97.6411 426.2744,97.3581 424.5659,96.0399 423.9733,95.6036 421.9727,94.0527 420.2842,92.9065 419.4874,92.3431 418.5039,91.733 416.9451,90.6662 415.4497,89.7732 414.3013,89.0475 413.0346,88.347 411.5841,87.4708 410.0032,86.6398 408.7756,85.9464 407.5652,85.3495 405.899,84.461 403.8364,83.5065 402.0958,82.6806 399.8846,81.6399 396.7756,80.3731 396.2245,80.1428 393.5436,79.0059 391.157,78.1225 390.2373,77.7667 388.6668,77.2397 386.8694,76.5627 385.6877,76.1748 383.4189,75.4061 381.5099,74.8463 380.2183,74.4504 379.0085,74.1064 376.2403,73.252 374.7489,72.8499 372.5236,72.2479 370.7982,71.843 369.2795,71.4657 368.6773,71.318 367.0625,70.973 364.7882,70.4127 363.8101,70.2016 361.6884,69.7575 360.8049,69.5613 358.3408,69.0804 356.7049,68.7768 353.6412,68.2807 352.4539,68.0789 350.7678,67.8397 348.1573,67.407 347.402,67.2966 346.1706,67.1342 343.762,66.7916 341.9326,66.5614 339.2145,66.2635 339.1746,66.2596 336.4632,65.9739 334.5437,65.806 332.6599,65.6608 330.9939,65.5196 329.7198,65.4362 326.47,65.248 324.7438,65.1536 320.5527,64.9914 319.6116,64.9604 314.8681,64.8681 314.3141,64.8619 309.3864,64.861 308.836,64.8669 304.0856,64.9576 303.1554,64.9879 298.951,65.1494 297.2417,65.2425 293.9735,65.4312 292.7082,65.5138 291.054,65.654 289.1494,65.8009 287.2388,65.968 284.5384,66.2534 284.4798,66.259 281.7694,66.5569 279.9353,66.7889 277.5352,67.132 276.3001,67.2958 275.5447,67.4069 272.9532,67.8397 271.2545,68.0825 270.8307,68.1517 270.0445,68.2901 267.0128,68.7858 265.3613,69.0956 262.9244,69.5769 261.9437,69.7976 259.8919,70.2328 258.957,70.4374 256.8168,70.973 255.0806,71.35 254.4225,71.5144 252.7295,71.943 251.2598,72.2945 248.9532,72.9318 247.5686,73.3132 245.0588,74.1064 243.4838,74.5665 241.6979,75.1295 240.4551,75.5046 238.0144,76.3585 237.0479,76.686 235.628,77.2397 233.7112,77.9078 232.545,78.3784 230.4642,79.181 227.7773,80.3731 227.0756,80.6742 224.8111,81.6705 224.2747,81.9018 221.6063,83.239 221.076,83.5065 218.4365,84.8239 216.1369,86.1565 215.2941,86.6398 212.9986,87.9753 210.6675,89.5493 210.3267,89.7732 208.5951,90.9605 207.9881,91.3715 206.0148,92.9065 205.1981,93.5925 203.4178,95.0199 202.3107,96.0399 201.3361,96.9607 199.7288,98.719 198.8795,99.6598 197.622,101.0997 196.7044,102.3066 196.0264,103.3189 195.0741,104.9732 194.7849,105.44 194.2594,106.6267 193.5156,108.1472 193.1639,109.2009 192.6663,110.794 192.4275,111.7067 192.3235,112.8157 192.2175,113.6703 192.1117,114.84 192.2266,116.0046 192.2924,116.8465 192.4011,117.9734 192.677,118.8799 193.15,120.4712 193.3421,121.1068 194.2594,122.822 194.7787,123.9426 195.3581,124.8695 196.2842,126.2134 197.1115,127.3735 198.0362,128.3431 199.7288,130.0318 200.9392,131.2003 202.1363,132.2609 203.784,133.6402 205.1981,134.5966 206.8358,135.8354 208.1528,136.7735 209.3611,137.522 210.6675,138.2793 211.9868,139.1511 213.2034,139.9069 214.6877,140.7371 216.1369,141.4964 217.4647,142.2795 218.836,143.0403 220.2936,143.7923 221.6063,144.4286 223.1775,145.2735 224.9534,146.1736 226.1008,146.7321 227.0756,147.1799 229.0564,148.1722 231.4501,149.307 232.545,149.81 235.0498,151.0054 237.2675,152.0124 238.2017,152.4403 241.1109,153.7997 243.4838,154.8627 245.084,155.5737 247.2175,156.568 248.9532,157.3491 250.2889,157.9418 252.0799,158.7071 253.3594,159.3161 254.4225,159.8085 256.4282,160.6914 259.1242,161.8404 259.8919,162.2194 262.6018,163.4213 262.8027,163.5079 265.3613,164.6158 266.3361,164.9738 268.8456,166.111 270.8307,166.9878 272.0377,167.4156 274.0691,168.1071 275.3035,168.6781 276.3001,169.126 278.6761,169.8793 280.1853,170.3329 281.7694,170.8169 282.335,170.9165 284.3751,171.2405 286.3869,171.7286 287.2388,171.9162 288.4908,171.9578 291.2118,172.0977 292.7082,172.1442 294.0075,171.9849 297.4672,171.6474 298.5843,171.4735 299.7495,171.2405 302.8911,170.8074 303.647,170.7165 304.9557,170.4907 307.1214,170.0976 309.1163,169.7686 311.2888,169.3517 312.9199,169.0614 314.5857,168.7532 315.435,168.5937 318.1657,168.1071 320.0551,167.8468 320.6353,167.7748 324.1713,167.3319 325.5245,167.1645 327.5189,166.9645 328.7829,166.8405 330.9939,166.6167 333.5683,166.4486 333.9356,166.4218 336.4632,166.2527 338.6177,166.208 339.849,166.1674 341.9326,166.1224 344.0574,166.191 345.244,166.21 347.402,166.2841 350.134,166.5389 350.1387,166.5393 352.8714,166.8159 354.6278,167.1009 357.6445,167.7083 359.3287,168.1071 362.0231,169.1309 363.8101,169.9506 364.9709,170.5755 365.9956,171.2405 367.255,172.4003 368.7181,174.0522 369.2795,174.8936 370.1839,176.9891 370.4265,178.1643 370.7227,179.8138 370.777,181.4985 370.8006,182.9025 370.6704,184.5707 370.5405,186.1849 370.3548,187.5233 370.0892,189.5768 369.9521,190.4259 369.582,193.0007 369.5321,193.3187 369.2795,195.1901 369.102,196.409 368.7623,199.1444 368.6931,199.7767 368.4775,202.1146 368.3959,203.0803 368.2783,205.1338 368.21,206.3201 368.1708,208.2056 368.1342,209.4969 368.17,211.3385 368.1793,212.6045 368.315,214.555 368.3765,215.6248 368.6963,217.9067 368.7794,218.5274 369.2795,220.5615 369.5068,221.5044 370.3348,223.903 371.2251,225.6222 371.5972,226.3131 372.4125,227.6409 373.1685,228.5463 374.7489,230.2708 375.9725,231.4753 377.1546,232.5294 378.7984,233.9076 380.2183,234.8484 381.9609,236.0427 383.4702,237.041 384.592,237.6687 385.6877,238.2707 387.3829,239.2032 389.1719,240.1744 390.2554,240.6909 391.157,241.1218 393.2796,242.0917 395.9201,243.3077 396.6264,243.6056 398.2707,244.2497 399.5687,244.7555 402.0958,245.7687 403.9742,246.4411 406.2224,247.2104 407.5652,247.6932 409.7164,248.342 412.3653,249.191 413.6951,249.5744 417.001,250.4354 418.5039,250.8628" style="fill:none;stroke:black;stroke-width:1" />
  <polyline points="393.8919,229.2075 393.8928,229.2082 395.7479,230.7743 396.6264,231.394 398.7391,232.6973 400.7517,233.9076 402.0958,234.6118 404.5006,235.6633 407.2663,236.8698 407.6851,237.041 411.1541,238.1183 413.0346,238.7174 414.8612,239.1279 417.9469,239.8552 419.8468,240.1744 423.1851,240.6259 425.0866,240.8122 428.0865,240.9513 429.4427,241.0374 430.8815,240.9986 433.6992,240.8692 434.9121,240.8343 435.8711,240.7238 439.7836,240.1744 440.6726,240.0076 444.0878,239.1644 445.8508,238.6697 447.6046,238.0457 450.1335,237.041 451.3202,236.5207 453.689,235.2647 456.0137,233.9076 456.7896,233.3999 458.7984,231.9251 460.2313,230.7743 461.0362,230.0738 462.259,228.9131 463.0789,228.1107 463.5189,227.6409 464.7099,226.2368 464.899,226.02 466.1149,224.5076 466.5812,223.8504 467.7283,222.098 468.3884,220.9961 469.3661,219.1791 469.8334,218.2409 470.4662,216.676 471.0829,215.1075 471.3891,214.0713 471.7345,212.8124 471.9771,211.9741 472.096,211.343 472.4609,209.2629 472.569,208.4806 472.7626,205.9567 472.7775,205.4667 472.7196,202.848 472.6751,202.2747 472.3883,199.9044 472.1956,198.8666 471.8078,197.1036 471.2466,195.1896 471.0047,194.4303 470.5748,193.174 470.0063,191.869 469.6717,191.1539 469.172,190.0406 468.8338,189.4073 467.7283,187.4869 467.1661,186.5852 465.9544,184.7902 465.2153,183.7739 464.2902,182.6103 462.9373,181.0292 462.259,180.2589 460.5409,178.4915 459.5147,177.5072 458.4769,176.5406 456.7896,175.0716 455.9243,174.3738 453.9712,172.8551 453.3792,172.4201 451.7858,171.2405 451.3202,170.8983 449.0626,169.4005 447.0345,168.1071 445.8508,167.3259 443.8132,166.1411 441.7828,164.9738 440.3814,164.0967 438.3604,162.9982 436.2986,161.8404 434.9121,160.9334 432.9673,159.8212 431.2018,158.7071 430.445,158.1328 429.4427,157.2664 428.1559,156.3109 427.3444,155.5737 426.2694,154.2583 425.7942,153.4835 424.829,151.9501 423.9733,149.3259 423.9673,149.3035 423.5328,146.426 423.548,145.93 423.4147,143.3603 423.46,142.7462 423.4195,140.2242 423.461,139.6134 423.4022,137.1007 423.4199,136.4565 423.2735,134.0411 423.2424,133.2214 422.9871,131.0718 422.8402,129.8577 422.5232,128.2042 422.1129,126.3076 421.8747,125.4424 421.5662,124.2401 421.0378,122.7885 420.4281,121.1068 420.0201,120.2381 419.0885,118.3083 418.5039,117.2638 417.4827,115.4251 417.1416,114.84 416.2526,113.5503 415.9847,113.1499 414.9514,111.7067 414.345,110.956 413.0346,109.4558 412.3072,108.5733 411.4311,107.6547 410.6454,106.8087 409.2542,105.44 408.6092,104.8418 407.5652,103.9617 406.4485,102.9463 405.6733,102.3066 404.1771,101.1142 402.0958,99.6141 401.4968,99.1732 399.2818,97.652 397.2941,96.4224 396.6264,96.009 393.9689,94.429 391.8816,93.3216 391.1016,92.9065 388.2469,91.4404 385.6877,90.2636 384.5859,89.7732 382.1273,88.6795 380.2183,87.9211 378.9074,87.3908 376.822,86.6398 375.5821,86.1625 374.7489,85.8765 372.165,84.9867 371.518,84.7889 369.2795,84.0802 368.6317,83.8776 367.3004,83.5065 365.0174,82.8148 363.8101,82.4882 361.2783,81.8235 360.5933,81.6636 358.3408,81.1119 357.4239,80.8984 354.8987,80.3731 353.4515,80.0408 352.8714,79.9216 351.6892,79.6959 349.3915,79.2333 347.402,78.8736 345.1826,78.5112 343.7992,78.3091 341.9326,78.0182 340.8342,77.869 336.6767,77.362 335.5126,77.2397 331.7193,76.8242 330.0119,76.6772 326.947,76.4248 325.5245,76.3185 323.7593,76.2285 321.9904,76.131 320.0551,76.0339 317.8518,75.9775 316.8382,75.9493 314.5857,75.8921 312.2318,75.8912 311.4708,75.8909 309.1163,75.89 306.8577,75.9458 305.8585,75.9728 303.647,76.0278 301.7001,76.1244 299.9589,76.2193 298.1776,76.309 296.7398,76.416 293.7127,76.6642 291.9656,76.8143 288.0837,77.2397 287.0489,77.3486 282.8556,77.862 281.7694,78.0101 279.917,78.301 278.5132,78.5076 276.3001,78.872 274.3136,79.2351 271.9912,79.7083 270.2668,80.05 268.8817,80.3731 266.31,80.9166 265.3613,81.1415 262.9828,81.7357 262.4796,81.8556 259.8919,82.5502 258.7668,82.8619 256.6947,83.5065 255.1802,83.9405 254.4225,84.1849 251.6945,85.0769 251.6577,85.0904 248.9532,86.0568 247.43,86.6398 245.0493,87.5367 243.4838,88.2028 241.8987,88.8651 239.9686,89.7732 238.8748,90.2661 238.0144,90.7037 235.9466,91.7219 233.8089,92.9065 232.545,93.636 230.4698,94.851 228.6647,96.0399 227.0756,97.1673 225.5073,98.2748 224.3765,99.1732 223.2443,100.1117 221.6063,101.6449 220.8807,102.3066 220.0482,103.1992 219.2099,104.0671 218.0299,105.44 217.4646,106.2006 216.1369,108.2238 215.801,108.7657 214.6895,110.8775 214.3051,111.7067 213.9275,112.9724 213.3718,114.84 213.2253,116.3054 213.0694,117.9734 213.2234,119.4376 213.399,121.1068 213.8208,122.4336 214.3889,124.2401 214.8013,125.0052 216.0775,127.3394 216.1369,127.4255 217.7087,129.6064 218.3761,130.5068 219.5258,131.6987 221.295,133.4618 221.6063,133.7484 223.7129,135.5666 225.1763,136.7735 226.0235,137.3763 227.0756,138.0881 228.4736,139.1061 229.6282,139.9069 231.025,140.7777 232.545,141.6777 233.6804,142.3898 234.7713,143.0403 236.4164,143.9557 238.0144,144.8006 239.2375,145.4729 240.5789,146.1736 242.1224,146.9535 243.4838,147.6081 245.0834,148.3906 247.0538,149.307 248.101,149.7952 248.9532,150.1741 251.1885,151.1598 254.2394,152.4403 254.8798,152.7023 257.5491,153.7825 259.8919,154.6874 260.842,155.0294 262.4346,155.5737 264.2113,156.2325 265.3613,156.64 267.6881,157.374 269.3947,157.8844 270.8307,158.3209 272.3901,158.7071 275.0294,159.435 276.3001,159.7664 278.9706,160.3105 279.1623,160.3468 281.7694,160.8585 283.1493,161.0499 286.618,161.4847 287.6573,161.6007 291.2381,161.8404 292.9116,161.957 297.8074,162.0525 298.5294,162.042 303.5485,161.8968 304.4473,161.8404 308.7057,161.6051 309.6252,161.5489 313.5576,161.2514 314.5857,161.1788 315.9405,161.0643 318.3396,160.8576 320.0551,160.7136 322.38,160.5085 323.0912,160.4464 325.5245,160.2309 327.8446,160.0362 328.826,159.949 330.9939,159.7643 332.6317,159.6454 335.1897,159.4367 336.4632,159.3416 337.4733,159.2857 341.3908,159.0175 342.3933,158.971 347.38,158.7196 347.8372,158.7071 352.6588,158.5853 353.1129,158.5687 358.0791,158.5571 358.6197,158.5472 363.7345,158.6637 364.7623,158.7071 368.8785,158.9368 369.8852,159.054 373.581,159.3761 374.7489,159.5496 376.797,159.8804 377.9344,160.0154 380.2183,160.4698 381.9972,160.8213 385.4289,161.8404 385.6877,161.9563 387.5757,162.9221 388.8006,163.6238 390.6272,164.9738 391.157,165.8711 392.1353,167.5467 392.2612,168.7397 392.4471,170.5014 392.2065,171.8417 391.8196,173.9943 391.157,175.863 390.7162,177.2546 390.5404,177.8604 389.7451,179.8317 389.4878,180.6406 388.9999,181.8764 388.768,182.4053 388.2615,183.7739 387.7823,184.9739 387.4665,185.8882 386.8357,187.565 386.0972,189.806 385.6877,191.156 385.2098,192.9002 385.0705,193.5276 384.6002,195.6844 384.3677,197.0636 384.1411,198.5547 383.9371,200.4436 383.8501,201.5214 383.768,202.5741 383.7548,203.6813 383.748,204.5962 383.7348,205.7074 383.7945,206.792 383.8614,207.7945 384.0367,209.7866 384.2307,211.1395 384.4737,212.6696 384.9259,214.6711 385.1087,215.4392 385.6877,217.2481 386.1446,218.5027 387.0717,220.5813 387.4595,221.3742 388.4171,222.9379 389.4199,224.5076 389.9594,225.1937 391.157,226.616 391.7682,227.2908 392.1042,227.6409 393.8919,229.2075" style="fill:none;stroke:black;stroke-width:1" />
  <polyline points="352.6819,152.3318 352.8714,152.3086 353.1586,152.2758 357.3568,151.8767 358.3408,151.7541 359.8404,151.5812 361.9682,151.3851 363.8101,151.1501 366.4784,150.8356 366.6624,150.8063 369.2795,150.4585 370.9326,150.254 374.0307,149.7184 375.1853,149.557 376.4743,149.307 379.2869,148.7734 380.2183,148.5352 382.6124,147.9354 383.1042,147.8269 385.6877,147.0469 386.689,146.7473 388.1427,146.1736 389.9215,145.4658 391.157,144.8324 392.8191,143.9925 394.3065,143.0403 395.3701,142.3205 396.6264,141.2508 397.5839,140.4555 398.1123,139.9069 399.4191,138.3735 400.6014,136.7735 400.9826,136.1358 402.0958,133.7991 402.1839,133.5897 402.9703,131.0078 403.1324,129.9129 403.3471,128.0903 403.3341,126.664 403.2207,124.8846 403.0284,123.7058 402.4516,121.3106 402.0958,120.3687 401.3329,118.4105 400.7198,117.1851 400.07,116.0006 399.4078,114.84 398.5942,113.7127 397.4008,112.1503 397.0695,111.7067 396.6264,111.2246 395.0609,109.4702 394.2025,108.5733 393.0404,107.4944 391.157,105.8765 390.6547,105.44 389.1559,104.2936 388.5321,103.8104 386.4137,102.3066 385.6877,101.8376 383.4883,100.4333 381.3244,99.1732 380.2183,98.5698 377.9225,97.3551 375.186,96.0399 374.7489,95.8377 373.2316,95.1707 371.8614,94.5607 369.2795,93.5153 367.6678,92.9065 365.332,92.0347 363.8101,91.5192 361.8737,90.8826 358.548,89.8919 358.1396,89.7732 354.5937,88.7865 352.8714,88.3509 350.7535,87.8531 348.7885,87.4341 347.402,87.1254 346.7747,86.9992 344.8135,86.6398 342.6657,86.2198 341.9326,86.0893 340.6146,85.8847 338.4099,85.5246 336.4632,85.234 333.9844,84.9265 333.3468,84.8544 330.9939,84.5716 329.3942,84.4229 326.7283,84.1961 325.5245,84.0868 324.6105,84.0301 320.5669,83.7997 319.6215,83.7549 314.7756,83.6152 314.4064,83.6092 309.2905,83.6063 308.9328,83.6116 304.0661,83.7466 303.1542,83.7888 299.0703,84.0179 298.1776,84.0724 297.0051,84.1782 294.2825,84.4084 292.7082,84.5538 290.3946,84.8319 289.6912,84.9114 287.2388,85.2156 285.2689,85.5112 283.1243,85.8636 281.7694,86.0751 281.0192,86.21 278.8448,86.6398 276.9217,86.996 276.3001,87.1226 274.9073,87.4377 272.9597,87.8595 270.8307,88.3689 269.1411,88.8052 265.7433,89.7732 264.9425,90.0131 261.9271,90.9391 259.8919,91.6317 258.5126,92.1163 256.4807,92.9065 255.243,93.3766 254.4225,93.7215 252.1023,94.7106 249.2834,96.0399 248.9532,96.2033 246.238,97.6178 243.5378,99.1732 243.4838,99.2071 240.9402,100.8494 238.8995,102.3066 238.0144,103.0253 236.2809,104.4468 235.1867,105.44 234.2391,106.4105 232.545,108.3369 232.2007,108.7706 230.8174,110.717 230.1839,111.7067 229.5319,113.1138 228.7818,114.84 228.5729,115.6978 228.2373,117.3079 228.0808,117.9734 228.0697,118.5429 228.0716,120.5362 228.1944,121.7477 228.5521,123.3943 228.7265,124.2401 229.2838,125.5051 229.4959,125.987 230.107,127.3735 230.7873,128.3804 232.0659,130.2323 232.545,130.8193 234.2148,132.6836 235.0997,133.6402 236.2542,134.6486 238.0144,136.1262 238.7702,136.7735 240.8654,138.2736 242.0542,139.0879 243.245,139.9069 243.4838,140.0508 246.0344,141.579 248.594,143.0403 248.9532,143.2275 251.6842,144.609 251.7294,144.6307 254.4225,145.9312 254.9538,146.1736 257.7639,147.3927 259.8919,148.2696 260.9703,148.6892 262.6485,149.307 264.2936,149.9187 265.3613,150.2951 267.7624,151.0648 269.1737,151.4911 270.8307,152.0007 272.5369,152.4403 275.1093,153.1225 276.3001,153.419 278.9576,153.9628 279.0703,153.9867 281.7694,154.5181 283.2275,154.7384 286.5896,155.2018 287.6507,155.3377 290.2974,155.5737 292.3583,155.7741 293.1416,155.822 297.3788,156.0313 299.0329,156.0637 302.7386,156.0941 304.5084,156.0672 308.4309,155.9664 309.7067,155.9119 314.4242,155.6662 315.7582,155.5737 319.6125,155.3201 320.6269,155.2461 324.4391,154.9519 325.5245,154.8655 326.9825,154.7384 329.2134,154.5537 330.9939,154.3957 333.4355,154.1749 333.9472,154.1323 336.4632,153.898 338.6634,153.7008 339.9682,153.5657 341.9326,153.3822 343.363,153.2598 346.5492,152.9289 348.033,152.8018 351.5736,152.4403 352.6819,152.3318" style="fill:none;stroke:black;stroke-width:1" />
  <polyline points="341.9326,148.2264 344.4412,147.8698 344.8096,147.8218 347.402,147.4326 349.1413,147.17 352.0124,146.6657 353.3538,146.45 354.8103,146.1736 357.4438,145.6597 358.3408,145.4553 360.4221,144.9812 361.3772,144.7798 363.8101,144.1688 365.1843,143.8275 367.8486,143.0403 369.2795,142.5612 371.6013,141.7101 372.1123,141.5298 374.7489,140.4261 375.8937,139.9069 378.1038,138.6955 380.2183,137.3378 381.0512,136.7735 382.5627,135.4304 382.8744,135.1618 384.4038,133.6402 384.7915,133.1268 385.6877,131.7508 386.4875,130.5068 386.6823,129.937 387.3074,128.3014 387.607,127.3735 387.7989,125.4496 387.9015,124.2401 387.7306,123.0697 387.6189,122.2131 387.46,121.1068 387.1538,120.2668 386.4809,118.4279 386.3151,117.9734 385.6877,116.9028 384.7971,115.3502 384.4941,114.84 383.4855,113.5785 383.1554,113.1574 381.9569,111.7067 381.3216,111.0746 380.2183,110.0437 379.2536,109.126 378.6352,108.5733 376.9885,107.2902 374.7489,105.6627 374.4339,105.44 371.9607,103.9039 369.2795,102.3589 369.1841,102.3066 366.3156,100.8713 363.8101,99.7127 362.554,99.1732 360.0862,98.1733 358.3408,97.5218 356.7443,96.9545 353.9501,96.0399 352.8714,95.6965 351.6979,95.3676 349.6204,94.769 347.402,94.1797 345.8362,93.8036 342.0258,92.9599 341.763,92.9065 337.7823,92.1509 336.4632,91.9197 334.1529,91.583 333.4825,91.4808 330.9939,91.1293 329.0061,90.912 327.1916,90.7282 325.5245,90.5502 324.3216,90.4623 320.846,90.2263 319.4055,90.1453 314.9685,89.9925 314.2281,89.9781 309.4665,89.9738 308.7442,89.9864 304.2747,90.1328 302.8875,90.2082 299.3481,90.4437 298.1776,90.5274 296.5626,90.6984 294.6572,90.8897 292.7082,91.101 290.1797,91.458 289.6178,91.5437 287.2388,91.8903 285.8826,92.1296 281.8199,92.9065 281.7413,92.9227 277.8521,93.7957 276.3001,94.1745 274.0903,94.774 271.9255,95.4127 270.4761,95.8368 269.8761,96.0399 267.0369,96.9998 265.3613,97.6179 263.7442,98.2468 261.5619,99.1732 259.8919,99.93 257.6583,101.027 255.2703,102.3066 254.4225,102.8114 252.2375,104.1882 250.4167,105.44 248.9532,106.6179 247.562,107.7763 246.6857,108.5733 245.5764,109.7722 244.3698,111.1991 243.9274,111.7067 243.4838,112.4179 242.3759,114.2053 241.6535,115.8886 241.3354,116.7426 240.9231,117.9734 240.7688,119.5288 240.6156,121.1068 240.845,122.6185 241.0868,124.2401 241.538,125.3549 242.013,126.5308 242.3537,127.3735 242.6632,127.8436 243.4838,129.0663 244.4383,130.5068 245.5294,131.6788 246.0059,132.1953 247.3802,133.6402 248.0182,134.1758 248.9532,134.9315 250.2876,136.0091 251.2717,136.7735 252.734,137.7409 254.4225,138.8103 255.3424,139.3799 256.2327,139.9069 258.1324,140.9149 259.8919,141.8047 261.0634,142.3691 262.5287,143.0403 264.1483,143.7352 265.3613,144.2291 267.4109,144.9994 270.716,146.1736 270.9682,146.2524 274.394,147.2656 276.3001,147.7959 278.1668,148.2375 280.9909,148.861 282.125,149.1033 283.3255,149.307 286.3356,149.8244 287.2388,149.9677 288.6805,150.1329 290.812,150.3933 292.7082,150.6036 295.2792,150.7799 295.5683,150.8018 298.1776,150.9757 300.6169,151.0429 301.2297,151.0555 303.647,151.1205 305.9833,151.1019 306.7628,151.092 309.1163,151.0735 311.67,150.9774 312.0084,150.9638 314.5857,150.8676 317.0454,150.7161 317.6614,150.6783 320.0551,150.5309 321.9293,150.3807 323.9416,150.2138 325.5245,150.0858 326.6926,149.9762 330.489,149.5962 331.3503,149.5112 333.1514,149.307 335.9191,148.9952 337.3223,148.8149 340.4118,148.4357 341.9326,148.2264" style="fill:none;stroke:black;stroke-width:1" />
  <polyline points="320.6059,145.8581 324.3798,145.5178 325.5245,145.4109 327.2019,145.2126 328.9662,145.012 330.9939,144.7676 333.4156,144.4277 334.2659,144.2991 336.4632,143.9811 337.7474,143.776 341.9257,143.0442 341.9472,143.0403 345.9315,142.1978 347.402,141.8548 349.7809,141.2698 351.1425,140.8974 352.8714,140.4426 354.6948,139.9069 356.9769,139.1255 358.3408,138.6052 360.2416,137.8625 362.7299,136.7735 363.8101,136.183 366.0059,134.8981 367.9331,133.6402 369.2795,132.4294 370.5497,131.2345 371.2429,130.5068 372.173,129.0311 373.1508,127.3735 373.3666,126.5816 373.7906,124.7891 373.935,124.2401 373.91,123.7595 373.7724,121.6662 373.4907,120.3859 372.9972,118.9769 372.6444,117.9734 371.7515,116.5572 371.4386,116.077 370.6448,114.84 370.1825,114.3227 369.2795,113.3593 368.2647,112.288 367.6874,111.7067 366.0788,110.407 363.8101,108.6741 363.6711,108.5733 361.2339,107.0974 359.7063,106.2222 358.3408,105.445 358.3312,105.44 355.3117,104.0419 352.8714,102.9844 351.1252,102.3066 348.8306,101.4881 347.402,101.0128 345.2974,100.3789 342.8228,99.6832 341.6246,99.3497 340.8749,99.1732 337.7245,98.4507 336.4632,98.1807 333.9483,97.7325 333.6158,97.6712 330.9939,97.2183 329.3266,96.9951 326.593,96.652 324.8115,96.4484 320.0702,96.0486 319.8853,96.0399 314.9561,95.8277 314.1882,95.8122 309.5259,95.8053 308.7314,95.8194 303.6766,96.0229 303.4528,96.0399 298.8383,96.4184 297.1949,96.6029 294.3146,96.9602 292.7082,97.1726 290.0244,97.6357 289.8744,97.6634 287.2388,98.1327 285.9195,98.4174 282.6549,99.1732 281.0031,99.6123 278.378,100.3637 276.3001,101.0028 274.8752,101.4903 272.6587,102.3066 270.8307,103.0415 268.4929,104.1007 265.7449,105.44 265.3613,105.654 262.894,107.1598 260.7412,108.5733 259.8919,109.2542 258.1734,110.7221 257.1034,111.7067 256.2272,112.7406 254.7033,114.6792 254.4225,115.1372 253.3365,117.3512 252.8967,118.8475 252.6475,120.0898 252.4668,121.1068 252.5787,122.1631 252.6809,123.2424 252.7853,124.2401 253.0874,125.005 253.9049,127.0769 254.4225,127.9515 255.7118,129.7682 256.2471,130.5068 257.5967,131.8217 258.9517,133.1015 259.5176,133.6402 259.8919,133.9158 262.1478,135.4812 264.0861,136.7735 265.3613,137.479 267.6157,138.6154 270.3019,139.9069 271.921,140.5315 273.9134,141.2742 276.3001,142.1179 277.3483,142.4397 279.4203,143.0403 281.0138,143.4731 281.7694,143.6661 283.4906,144.0263 284.9629,144.3441 287.2388,144.8035 289.1227,145.0944 291.3889,145.4178 292.7082,145.6151 293.5353,145.6998 298.0914,146.1242 299.0288,146.1736 303.3022,146.3711 304.0163,146.3852 308.6986,146.4129 309.5128,146.4007 314.4457,146.2538 315.8296,146.1736 319.6389,145.9352 320.0551,145.909 320.6059,145.8581" style="fill:none;stroke:black;stroke-width:1" />
  <polyline points="41.1167,287.0446 41.4187,287.0018 45.0208,286.278 46.5861,286.1094 49.2044,285.5413 49.4946,285.5085 52.0555,285.0818 53.2536,284.7278 56.9315,284.0414 57.7003,283.9409 61.4943,283.182 62.9943,283.0098 65.6463,282.4273 65.8584,282.4005 68.4636,281.9489 69.662,281.5945 73.1105,280.908 74.2102,280.7492 77.8025,279.9914 79.4024,279.7777 81.8708,279.1887 82.6014,279.0754 84.8718,278.6346 85.84,278.3293 88.2469,277.7747 89.8451,277.4905 90.3412,277.4364 91.2583,277.2492 93.8246,276.6369 95.8105,276.3011 97.7588,275.7574 100.2132,275.2524 101.6664,274.8627 102.4365,274.6413 105.5444,273.951 106.7493,273.7576 109.4329,273.0453 109.5906,273.0135 112.2187,272.4144 113.2037,272.0723 115.1789,271.5079 116.9855,271.1054 117.6881,270.9872 119.4229,270.514 120.747,270.127 123.1574,269.5499 124.4202,269.098 126.7825,268.3746 128.6268,267.9571 130.1574,267.4977 131.7116,267.0085 134.0962,266.3656 135.2631,265.9097 137.1777,265.2412 138.79,264.7969 139.5656,264.6154 142.2909,263.6692 142.3314,263.6567 145.035,262.7929 146.6365,262.1079 149.0953,261.3007 150.5043,260.8865 152.4427,260.085 155.3258,258.9745 157.06,258.3522 159.0033,257.5768 161.4431,256.6664 163.1282,255.8411 165.3806,254.9636 166.9125,254.4038 168.5137,253.6251 170.4621,252.7078 171.6063,252.2635 172.3819,251.9798 174.6608,250.88 177.4495,249.5744 177.8512,249.4196 179.6391,248.5502 180.6623,248.0515 183.3206,246.7912 183.914,246.4411 186.5243,245.1431 188.79,244.0443 190.0277,243.3077 192.2604,242.1625 194.2594,241.1596 195.8858,240.1744 197.8746,239.1121 199.7288,238.1403 200.6489,237.5681 201.4977,237.041 203.3677,235.9923 205.1981,234.9819 206.8719,233.9076 208.7372,232.8018 210.6675,231.6716 212.014,230.7743 213.977,229.5369 216.1369,228.1882 216.9246,227.6409 219.0773,226.1921 221.5435,224.5435 221.6063,224.5016 224.0245,222.7596 225.9559,221.3742 227.0756,220.5603 228.8028,219.2303 230.0906,218.2409 231.1151,217.4216 232.545,216.2883 233.3931,215.5933 233.9866,215.1075 235.5876,213.7172 236.8088,212.6648 237.6091,211.9741 238.0144,211.597 239.8454,209.8897 240.9789,208.8408 241.8791,207.9215 243.4838,206.3079 244.7908,204.9586 245.7755,203.887 247.003,202.5741 247.6264,201.814 248.9532,200.241 249.6754,199.4407 250.2807,198.6802 251.1547,197.5686 252.1789,196.3073 252.8109,195.3841 254.3758,193.2008 254.4225,193.1267 255.9014,190.8879 256.4904,190.0406 257.2797,188.5441 258.1766,186.9073 258.4611,186.0876 259.2005,184.17 259.3795,183.4803 259.8243,180.6793 259.8233,180.6012 259.4708,177.7484 259.2576,177.1438 258.376,175.2423 257.9445,174.3738 256.7804,173.023 255.9995,172.1439 255.205,171.2405 254.4225,170.6284 252.6306,169.1337 251.38,168.1071 250.2317,167.3747 248.9532,166.5581 247.6621,165.7134 246.5292,164.9738 244.9695,164.1226 243.4838,163.3015 242.1772,162.5889 240.8203,161.8404 239.3028,161.1023 238.0144,160.4602 236.3431,159.6645 234.3815,158.7071 233.3521,158.2447 232.545,157.8687 230.2619,156.8817 227.3508,155.5737 226.3487,155.1572 223.9928,154.2065 221.6063,153.1914 220.8124,152.8951 219.6627,152.4403 217.5698,151.6194 216.1369,151.0201 214.2997,150.3595 211.5739,149.307 210.6675,148.9386 208.9463,148.3209 207.6905,147.8791 205.1981,146.924 204.351,146.6589 202.9424,146.1736 200.9741,145.4602 199.7288,144.9642 197.5773,144.2728 194.4815,143.1675 194.089,143.0403 190.7293,141.9292 188.79,141.2078 187.276,140.7742 184.6232,139.9069 183.3206,139.4114 181.4078,138.8111 180.3298,138.4869 177.8512,137.6258 176.8217,137.3633 174.8572,136.7735 173.3057,136.2443 172.3819,135.8811 169.7847,135.1281 169.1083,134.8982 166.9125,134.1832 166.2342,134.0288 164.8332,133.6402 162.6641,132.9407 161.4431,132.4761 159.1058,131.8458 157.2723,131.2507 155.9737,130.8518 154.5471,130.5068 151.916,129.6981 150.5043,129.1741 148.3249,128.622 145.8767,127.8557 143.994,127.3735 141.0748,126.5088 139.5656,125.9563 137.4565,125.4484 134.7763,124.6297 133.1778,124.2401 130.1535,123.3655 128.6268,122.8077 126.5144,122.317 123.8843,121.5232 122.1181,121.1068 119.1652,120.2605 117.6881,119.7152 115.512,119.22 113.1486,118.5061 111.8356,118.1929 110.8526,117.9734 108.1232,117.1863 106.7493,116.6674 104.4631,116.1498 102.5377,115.5606 100.7626,115.1364 99.4359,114.84 97.0415,114.1349 95.8105,113.6536 93.3812,113.0985 92.0328,112.6758 90.3412,112.1976 89.6586,112.0977 87.9323,111.7067 85.9346,111.0978 84.8718,110.6634 82.2802,110.058 81.6213,109.8445 79.4024,109.1954 78.5387,109.0682 76.4075,108.5733 74.8179,108.0664 73.933,107.6854 71.2568,107.0401 71.1704,107.0227 68.4636,106.1957 67.4184,106.0388 64.9209,105.44 63.7067,105.0318 62.9943,104.707 60.7219,104.1381 60.0458,103.9958 57.5249,103.1871 56.3138,103.0004 53.5213,102.3066 52.0555,101.7136 50.1578,101.2194 48.9487,100.9531 46.5861,100.1565 45.2416,99.9435 42.2469,99.1732 41.5643,98.9168 41.1167,98.6878" style="fill:none;stroke:black;stroke-width:1" />
  <polyline points="321.7327,140.868 324.3395,140.5857 326.3028,140.3528 329.3737,139.9069 330.9939,139.641 331.7192,139.4914 334.6953,138.894 336.4632,138.5179 338.5995,137.9974 340.7971,137.4241 342.3573,137.0168 343.1611,136.7735 345.7705,135.8389 347.402,135.2116 348.9943,134.5524 351.0314,133.6402 351.9513,133.1131 352.8714,132.5474 354.5403,131.4629 355.9015,130.5068 356.7764,129.6106 358.3408,127.8865 358.9089,127.048 359.7606,125.0535 360.0809,123.2432 360.0965,122.1126 359.7901,120.2764 359.0889,118.402 358.3408,117.1723 357.0874,115.5581 356.5114,114.84 355.0615,113.5853 352.8714,111.7698 352.7883,111.7067 350.1292,110.1443 347.402,108.6189 347.3098,108.5733 344.1899,107.2802 341.9326,106.3936 340.8923,106.036 339.065,105.44 337.348,104.9331 336.4632,104.6864 334.2498,104.1719 333.5131,103.9967 330.9939,103.4292 329.4929,103.1665 326.0187,102.5897 325.2368,102.4714 323.7632,102.3066 320.6317,101.9763 319.3104,101.88 315.674,101.6831 314.5857,101.6272 313.3951,101.6245 310.3203,101.6169 309.1163,101.6142 307.9998,101.667 304.4579,101.8421 303.0107,101.9421 299.4244,102.3066 297.8437,102.4979 294.1069,103.1079 292.7082,103.3483 290.0857,103.9375 289.7027,104.0284 287.2388,104.5998 286.2554,104.8766 284.3689,105.44 282.7183,105.9835 281.7694,106.3136 279.4518,107.2456 276.3369,108.5733 276.3001,108.5921 273.6082,110.1646 271.1173,111.7067 270.8307,111.9382 268.8542,113.7077 267.6625,114.84 266.991,115.7737 265.5895,117.8427 265.3613,118.4115 264.6853,120.7195 264.611,121.5366 264.7554,123.893 265.3613,125.6235 265.9838,127.0168 266.872,128.2389 267.6631,129.1881 268.7892,130.5068 269.6329,131.1931 270.8307,132.1357 271.9955,132.9729 272.957,133.6402 274.6728,134.5724 276.3001,135.4206 277.6114,136.0223 279.3221,136.7735 280.8072,137.3248 281.7694,137.6647 284.3502,138.4284 284.9534,138.5976 287.2388,139.2503 288.0614,139.4356 290.2768,139.9069 292.102,140.2542 292.7082,140.3623 293.7263,140.4902 296.5179,140.8577 298.1776,141.0607 300.4752,141.2232 301.2469,141.2819 303.647,141.448 306.3323,141.5019 306.4338,141.5035 309.1163,141.5565 311.8299,141.4857 311.8702,141.4845 314.5857,141.4142 316.939,141.255 317.8046,141.1962 320.0551,141.0438 321.7327,140.868" style="fill:none;stroke:black;stroke-width:1" />
  <polyline points="322.3196,134.9375 323.6117,134.736 325.5245,134.4417 326.5491,134.2272 329.2514,133.6402 330.9939,133.1522 333.2378,132.3547 333.8457,132.1406 336.4632,131.1811 337.9951,130.5068 339.8414,129.3088 341.9326,127.8942 343.0129,126.7546 343.9368,125.3883 344.6792,124.2401 344.7835,122.74 344.8952,121.1068 344.2519,119.7781 343.9251,119.1148 343.3681,117.9734 342.8437,117.4514 341.9326,116.572 340.7136,115.5384 339.8646,114.84 338.1497,113.8739 336.4632,112.9588 335.2441,112.4051 333.6496,111.7067 331.9935,111.134 330.9939,110.8025 328.3123,110.1096 328.1248,110.063 325.5245,109.4074 324.4084,109.2127 320.5982,108.5733 319.9004,108.4847 315.3341,108.1446 313.7379,108.0876 309.9947,108.0701 308.3201,108.1171 303.9417,108.4045 302.5393,108.5733 299.124,109.1155 298.1776,109.2706 296.0486,109.793 295.1966,109.9989 292.7082,110.6235 291.5074,111.0188 289.5046,111.7067 288.2132,112.2649 287.2388,112.7018 285.3285,113.7456 283.4077,114.84 282.7347,115.393 281.7694,116.2159 280.6442,117.3287 280.0199,117.9734 279.2119,119.6416 278.5182,121.1068 278.5948,122.9255 278.6482,124.2401 279.4159,125.5884 279.7939,126.2417 280.9566,127.8391 281.7694,128.5567 283.2402,129.6643 284.3925,130.5068 285.9096,131.2683 287.2388,131.9112 289.0371,132.61 291.7954,133.6402 293.4162,134.0458 296.3901,134.6642 298.1776,135.0174 300.7031,135.3267 301.2265,135.3869 303.647,135.6771 305.4176,135.7591 307.4973,135.846 309.1163,135.92 310.6738,135.8813 312.9228,135.8209 314.5857,135.7799 316.6476,135.5923 317.8092,135.4869 320.0551,135.2824 322.3196,134.9375" style="fill:none;stroke:black;stroke-width:1" />
  <polyline points="319.9301,124.1685 320.0551,123.8022 320.5103,121.3675 320.0551,120.7328 317.9527,119.9023 317.2058,119.6058 314.5857,118.5939 313.579,118.5501 309.8724,118.4065 309.1163,118.3742 307.6405,118.8189 305.9922,119.3169 303.647,120.0193 302.7503,120.5931 301.9513,121.1068 302.0577,122.0172 302.2398,123.434 303.0136,124.603 303.647,124.932 305.6821,125.406 306.6719,125.6405 309.1163,126.1965 311.3727,126.0808 312.2446,126.0323 314.5857,125.9142 316.4673,125.318 319.9073,124.2401 319.9301,124.1685" style="fill:none;stroke:black;stroke-width:1" />
  <polyline points="189.2847,230.7743 192.4866,229.7587 194.2594,229.2409 195.9081,228.5855 198.4269,227.6409 199.7288,227.1661 202.3112,225.987 203.5788,225.4353 205.1981,224.7259 205.6111,224.5076 208.2439,223.1191 210.6675,221.8891 211.5323,221.3742 213.7664,220.0162 216.1369,218.6203 216.7022,218.2409 218.9076,216.6948 219.284,216.4379 221.2287,215.1075 221.6063,214.8321 223.6738,213.1586 225.1725,211.9741 225.9253,211.3151 227.0756,210.3381 228.0754,209.4135 228.7087,208.8408 230.0888,207.4336 230.8543,206.676 231.8252,205.7074 232.545,204.8952 233.8697,203.333 234.5346,202.5741 235.5731,201.1755 236.0425,200.5704 236.9041,199.4407 237.1956,198.9716 238.0144,197.73 238.941,196.3073 239.3549,195.5394 239.9936,194.3079 240.6257,193.174 241.1693,191.8481 241.4629,191.1984 241.9564,190.0406 242.1575,189.2808 242.7613,187.3212 242.9075,186.5771 243.2795,183.8909 243.2793,183.6567 243.0993,180.8608 242.9778,180.3507 242.3132,178.1778 242.0767,177.5072 241.3229,176.2692 241.0342,175.7772 240.1456,174.3738 239.414,173.572 238.0144,172.103 237.1396,171.2405 235.1559,169.7448 234.2974,169.1111 232.9411,168.1071 232.545,167.865 229.9944,166.435 227.3853,164.9738 225.9211,164.3123 224.1328,163.5263 221.6063,162.394 220.1732,161.8404 217.6946,160.948 216.1369,160.3634 214.2533,159.7862 210.9124,158.7071 210.422,158.5664 206.9593,157.6981 205.1981,157.2183 203.0685,156.7938 201.0948,156.3563 199.7288,156.0678 199.0323,155.9727 196.5323,155.5737 194.7512,155.2919 194.2594,155.2011 193.45,155.11 190.1456,154.7971 188.79,154.6323 186.9853,154.5398 185.215,154.4884 183.3206,154.3827 181.2801,154.4047 179.793,154.4613 177.8512,154.4843 176.1646,154.6074 173.5935,154.8795 172.3819,154.9775 171.5394,155.091 168.7634,155.5737 166.9125,155.9097 165.8502,156.1823 163.4875,156.7449 161.4431,157.3342 159.9049,157.8258 157.5588,158.7071 155.9737,159.3396 153.5316,160.4413 150.8347,161.8404 150.5043,162.0254 147.9775,163.5262 145.8332,164.9738 145.035,165.5648 143.1165,167.0081 141.8225,168.1071 140.9325,168.8902 139.5656,170.2469 138.9054,170.8623 138.5445,171.2405 137.4403,172.458 137.0141,172.9121 135.7852,174.3738 135.2622,175.0418 134.0962,176.7049 133.1761,178.0343 132.188,179.5474 131.5435,180.6406 130.8735,181.9277 130.514,182.6928 129.9758,183.7739 129.7134,184.3964 128.786,186.8161 128.6268,187.3127 127.8739,189.6093 127.6181,190.6185 127.2127,192.3638 126.9129,194.1559 126.7658,195.2412 126.6303,196.3073 126.5872,197.4758 126.5149,199.4407 126.5809,200.6128 126.6993,202.5741 126.8537,203.5899 127.0623,204.8111 127.2012,205.7074 127.3804,206.4215 127.9517,208.454 128.6268,210.3189 129.1253,211.6886 129.4987,212.4736 130.2996,214.1492 130.8189,215.1075 131.697,216.482 132.169,217.1368 132.9247,218.2409 134.0962,219.6289 135.0798,220.8107 135.6161,221.3742 137.0911,222.7918 138.1982,223.7242 139.104,224.5076 139.5656,224.8541 141.7299,226.401 143.7488,227.6409 145.035,228.3487 147.3219,229.4641 150.4991,230.7713 150.5067,230.7743 154.0311,231.8872 155.9737,232.3945 157.9265,232.7889 160.0721,233.1222 161.4431,233.3677 162.2372,233.4527 166.6569,233.7612 167.1205,233.7885 172.0387,233.7111 172.7721,233.6841 176.7574,233.281 177.8512,233.2012 179.6088,232.9008 181.0838,232.6262 183.3206,232.2717 185.1172,231.8035 188.2885,231.0616 188.9688,230.8767 189.2847,230.7743" style="fill:none;stroke:black;stroke-width:1" />
  <polyline points="192.8422,218.2409 193.8871,218.0276 195.3442,217.6194 197.4495,216.9351 199.7288,216.2619 200.8769,215.7653 202.5085,215.1075 204.0195,214.4322 205.1981,213.9434 206.9348,212.9691 208.814,211.9741 209.7179,211.4301 210.6675,210.8933 212.2568,209.7513 213.5894,208.8408 214.655,207.9918 216.1369,206.8762 217.4467,205.7074 218.9263,204.1721 219.08,204.0214 220.5331,202.5741 221.6063,201.2923 222.5641,199.9894 222.9935,199.4407 223.7201,198.2297 224.0282,197.6948 224.8964,196.3073 225.3304,195.3075 226.091,193.7381 226.4396,192.8096 227.0756,190.7115 227.2749,189.9265 227.5184,187.1609 227.5343,186.6445 227.2107,183.8513 227.0756,183.3921 226.1872,181.1495 225.1673,179.5473 224.6963,178.8703 223.6639,177.5072 222.8955,176.7686 221.6063,175.5944 220.6857,174.9012 219.952,174.3738 218.0585,173.2729 216.1369,172.1835 215.2022,171.776 213.9546,171.2405 211.9555,170.5026 210.6675,170.0253 208.3606,169.4287 206.7734,169.0096 205.1981,168.5968 204.5192,168.4961 202.0387,168.1071 200.1885,167.8437 199.7288,167.7726 199.0795,167.7352 195.2204,167.5565 193.2564,167.5325 189.4622,167.722 188.2712,167.8099 186.2291,168.1071 183.9438,168.4641 183.3206,168.5748 181.7955,168.9809 180.1231,169.4087 177.8512,170.0562 176.5833,170.5141 174.7586,171.2405 173.4016,171.8247 172.3819,172.3025 170.5167,173.3053 168.69,174.3738 167.8528,174.9125 166.9125,175.5649 165.445,176.6665 164.409,177.5072 163.2651,178.551 161.4431,180.3351 160.91,180.946 159.5174,182.6707 158.683,183.7739 157.9715,184.9184 157.2254,186.1902 156.7926,186.9073 156.6219,187.2786 155.9737,188.755 155.3157,190.4176 154.7301,192.4615 154.4125,194.0684 154.2437,195.3162 154.1096,196.3073 154.1224,197.368 154.1446,198.3928 154.1573,199.4407 154.3145,200.3913 154.5722,201.7711 154.9075,203.1849 155.7831,205.5982 155.9737,205.9919 157.2036,208.1362 157.6543,208.8408 158.8747,210.3122 159.2469,210.716 160.3682,211.9741 161.4431,212.9039 163.1168,214.1487 164.5745,215.1075 165.7453,215.7762 166.9125,216.3636 168.8316,217.1414 171.989,218.2409 172.6664,218.4039 176.3803,219.0835 177.8512,219.2982 179.7978,219.356 181.2361,219.4351 183.3206,219.4914 185.1883,219.3108 187.1593,219.1751 188.79,219.03 189.7897,218.8136 192.8422,218.2409" style="fill:none;stroke:black;stroke-width:1" />
  <polyline points="343.6142,193.174 344.1334,191.9132 344.3503,191.4257 344.8931,190.0406 344.9577,188.3076 345.0136,186.9073 344.3694,185.5113 344.149,185.0436 343.5577,183.7739 342.9072,183.2156 341.9326,182.4221 339.6722,181.9355 338.1364,181.5991 336.4632,181.2355 333.8533,182.1358 333.696,182.1886 330.9939,183.1996 330.3161,184.1622 329.7953,186.2206 329.9315,187.5159 330.5698,189.7977 330.9939,190.5926 332.7933,192.1431 333.7489,193.174 334.9274,194.0539 336.4632,195.4755 337.9826,195.4369 340.5924,195.5396 341.9326,195.4964 343.1545,193.874 343.6142,193.174" style="fill:none;stroke:black;stroke-width:1" />
  <polyline points="434.4016,224.5076 434.7458,224.4123 436.4707,223.6146 437.7527,223.0016 440.3814,221.6728 441.7578,220.5857 442.8685,219.6657 444.5023,218.2409 444.9712,217.7369 445.8508,216.7451 446.7068,215.5979 447.054,215.1075 447.5839,214.1147 448.0622,213.241 448.723,211.9741 449.1491,210.7303 449.778,208.8408 449.9036,208.0292 450.1467,206.3797 450.25,205.7074 450.2308,205.0833 450.173,203.2313 449.9889,201.8114 449.6881,200.3757 449.4858,199.4407 448.9458,198.0804 448.237,196.3073 447.6448,195.2796 446.6566,193.6356 446.3848,193.174 445.8508,192.485 444.37,190.889 443.5513,190.0406 442.2946,188.9446 440.3814,187.3431 439.6946,186.9073 437.2615,185.5613 434.9121,184.3037 433.3562,183.7739 430.8266,182.9811 429.4427,182.5543 426.7534,182.2332 426.6781,182.2244 423.9733,181.899 421.3771,182.1279 421.1345,182.1476 418.5039,182.3864 416.9425,182.8794 414.3066,183.7739 413.0346,184.2411 410.8429,185.6517 409.0113,186.9073 407.5652,188.0359 406.3714,189.3567 405.7911,190.0406 404.705,191.5354 404.5422,191.7725 403.5563,193.174 403.2048,193.8093 402.0958,195.918 401.9032,196.4177 401.1903,198.9219 400.9611,200.0907 400.7186,201.7851 400.6109,203.4248 400.6104,204.8565 400.7175,206.4971 400.9591,208.1896 401.1897,209.3599 401.9097,211.8675 402.0958,212.3374 403.2358,214.4544 403.602,215.1075 404.7206,216.6112 404.7855,216.6999 405.9608,218.2409 406.5271,218.8356 407.5652,219.8826 408.6985,220.7249 409.5975,221.3742 411.271,222.3845 413.0346,223.4223 414.1893,223.846 416.0125,224.5076 417.6237,225.0118 418.5039,225.286 420.2499,225.5078 421.8745,225.7099 423.9733,225.9797 426.3274,225.8562 427.1787,225.8046 429.4427,225.6827 430.914,225.3505 434.4016,224.5076" style="fill:none;stroke:black;stroke-width:1" />
  <polyline points="196.3824,197.5236 199.3007,196.3073 199.7288,195.8917 200.6486,193.701 200.8521,192.5304 200.2973,190.3663 199.7288,189.5377 198.3453,189.2481 196.4268,188.7989 194.2594,188.4031 192.5619,189.0681 189.7924,190.0406 188.79,190.7563 187.717,192.5593 187.3293,194.0108 187.4963,195.5662 187.9223,196.8044 188.79,197.6875 191.0129,198.1672 192.315,198.3268 194.2594,198.6577 196.3824,197.5236" style="fill:none;stroke:black;stroke-width:1" />
  <polyline points="243.517,268.3936 243.6145,268.3746 247.5941,267.596 248.9532,267.3884 251.6512,266.7869 251.7587,266.7673 254.4225,266.2314 255.6026,265.9172 258.5518,265.2412 259.8919,264.9427 260.8459,264.6947 263.2586,264.0366 265.3613,263.5331 267.0019,263.0477 270.5329,262.1079 271.1232,261.9403 274.2939,260.9585 276.3001,260.3904 277.8698,259.8738 280.7986,258.9745 281.7694,258.6654 283.1381,258.1904 284.8308,257.595 287.2388,256.7937 288.2546,256.4231 289.9137,255.8411 291.5867,255.1986 292.7082,254.7866 294.8554,253.9379 298.0598,252.7078 298.5676,252.4843 301.2087,251.311 303.647,250.2491 305.1877,249.5744 307.2589,248.5103 309.1163,247.5685 310.1691,247.0442 311.3836,246.4411 312.9295,245.4922 314.5857,244.4848 315.6088,243.8938 316.6242,243.3077 318.1015,242.1885 320.0551,240.7218 320.8566,240.1744 322.0184,239.0496 322.5905,238.4935 324.1084,237.041 324.4867,236.4465 325.5245,234.8747 326.4824,233.3588 327.091,231.6717 327.4452,230.7743 327.4942,229.6458 327.5015,228.7735 327.5528,227.6409 327.3096,226.6182 326.9351,225.3157 326.4806,223.9598 325.5245,222.1384 324.9879,221.0668 323.8802,219.1829 323.2651,218.2409 322.3309,216.9371 321.5728,215.977 320.9117,215.1075 320.0551,214.075 318.9359,212.6153 318.3964,211.9741 317.1761,210.4901 316.8678,210.1482 315.7242,208.8408 314.5857,207.5578 313.5003,206.3293 312.8968,205.7074 311.5984,204.2855 310.9159,203.605 309.9086,202.5741 309.1163,201.7554 307.5961,200.3116 306.5858,199.4407 305.4702,198.3962 303.647,196.8472 302.8689,196.3073 300.805,194.8021 299.4238,193.8879 298.353,193.174 296.685,192.3189 295.3474,191.662 292.7082,190.4929 292.1183,190.3786 290.0972,190.0406 287.9955,189.6072 286.4445,189.5855 282.7696,190.0406 281.2942,190.3129 278.5408,191.3243 276.3001,192.1245 274.6412,193.174 272.6921,194.2404 270.8307,195.2502 269.4767,196.3073 267.6189,197.6007 265.3613,199.1703 264.32,200.0372 262.9142,201.1721 261.1793,202.5741 259.8919,203.5188 258.3806,204.8416 257.3924,205.7074 256.1565,206.7008 254.4225,208.0839 253.5834,208.8408 251.7441,210.3752 251.6983,210.4135 249.8163,211.9741 248.9532,212.6439 247.2071,214.1072 246.0048,215.1075 244.9509,215.948 243.4838,217.101 242.6665,217.7726 242.0927,218.2409 240.3871,219.6002 238.4382,221.1314 238.0144,221.4646 235.7802,223.2276 234.1352,224.5076 233.4728,225.0391 232.545,225.7663 231.1541,226.8441 230.1113,227.6409 228.8522,228.6587 227.0756,230.0596 226.1288,230.7743 224.2596,232.2943 223.834,232.6314 222.2294,233.9076 221.6063,234.4571 219.7557,235.9808 218.4299,237.041 217.5611,237.8569 216.1369,239.1308 215.3943,239.7489 214.8665,240.1744 213.3151,241.6911 213.0318,241.9532 211.5873,243.3077 210.6675,244.3741 209.3875,245.7078 208.6368,246.4411 207.6083,247.8218 207.0241,248.5283 206.1919,249.5744 205.9736,250.0187 205.1981,251.3337 204.2894,252.7078 204.0118,253.3874 203.5019,254.8694 203.065,255.8411 202.9,257.658 202.7231,258.9745 202.9813,260.2445 203.2464,260.9897 203.9309,262.8339 205.1981,264.4073 205.9666,265.2412 208.1403,266.689 210.6675,267.953 211.8466,268.3746 214.735,269.1777 216.1369,269.4458 218.4967,269.7265 219.0792,269.8223 221.6063,270.0681 224.0308,270.1189 224.6184,270.1002 227.0756,270.1433 229.7387,269.9823 229.8605,269.97 232.545,269.8314 234.6192,269.5629 236.1555,269.4395 238.0144,269.2303 239.1382,269.0184 243.4173,268.4127 243.4838,268.4016 243.517,268.3936" style="fill:none;stroke:black;stroke-width:1" />
  <polyline points="263.75,258.0514 265.3613,257.7865 267.759,257.2148 268.8062,257.0009 270.8307,256.5573 271.6663,256.3199 273.5468,255.8411 275.3861,255.3175 276.3001,255.0869 278.9649,254.2344 279.2498,254.1513 281.7694,253.3942 282.5088,253.1313 283.7802,252.7078 285.852,251.9133 287.2388,251.418 289.1102,250.6465 291.8485,249.5744 292.7082,249.1799 295.2644,247.9055 297.4406,246.8633 298.3118,246.4411 299.6943,245.5721 300.855,244.8416 303.3706,243.3077 303.647,243.084 305.7143,241.3587 307.1733,240.1744 307.7943,239.417 309.1163,237.8691 310.101,236.4769 310.8496,234.9006 311.3487,233.9076 311.5705,232.5017 311.8427,230.7743 311.6499,229.3228 311.4117,227.6409 311.0058,226.5584 310.4763,225.2867 310.1725,224.5076 309.9139,224.0506 309.1163,222.7567 308.2152,221.3742 307.4222,220.4036 306.7717,219.584 305.6175,218.2409 304.9343,217.5033 303.647,216.2148 302.3684,215.1075 300.634,213.7002 298.8531,212.3611 298.1776,211.8514 295.5185,210.3641 294.0564,209.6131 292.7082,208.9175 292.4596,208.8408 289.0677,207.7931 287.2388,207.2826 284.7924,207.1089 284.1583,207.076 281.7694,206.9161 279.0936,207.3078 278.9417,207.3274 276.3001,207.6957 275.0548,208.1274 272.8865,208.8408 271.5583,209.2576 270.8307,209.472 268.4576,210.6146 265.5204,211.9741 265.3613,212.0438 262.7214,213.5951 260.0587,215.1075 259.8919,215.1987 257.4422,216.8374 255.2763,218.2409 254.4225,218.7842 252.4356,220.2359 250.8279,221.3742 250.0025,221.9754 248.9532,222.7088 247.6218,223.7449 246.6097,224.5076 245.3025,225.5495 243.4838,226.9377 242.6104,227.6409 240.873,229.1366 240.7746,229.2222 238.9009,230.7743 238.0144,231.5881 236.4763,233.0265 235.4822,233.9076 234.4559,235.0023 232.545,236.8918 232.2522,237.2088 230.7008,239.1178 229.7588,240.1744 229.0514,241.3062 227.9907,242.7835 227.6363,243.3077 227.0756,244.5635 226.391,246.0488 226.0301,247.0401 225.7591,248.8202 225.6403,250.3967 226.0291,252.1083 226.3163,253.1428 227.0756,254.2132 227.9483,255.3412 228.4882,255.8411 230.4131,257.0625 232.545,258.0964 233.4581,258.4514 235.3471,258.9745 237.2517,259.4114 238.0144,259.5319 239.1278,259.6123 241.8311,259.9213 243.4838,260.0222 245.2404,259.9808 247.1315,260.0181 248.9532,259.981 250.4449,259.8291 253.2202,259.6633 254.4225,259.5552 255.2077,259.4243 258.7427,258.9745 260.2817,258.7512 263.75,258.0514" style="fill:none;stroke:black;stroke-width:1" />
  <polyline points="271.0777,249.7159 271.6942,249.5744 274.7615,248.693 276.3001,248.3203 278.3219,247.5994 281.4985,246.5963 281.9359,246.4411 284.7528,245.0169 287.2388,243.8717 288.2699,243.3077 290.1951,241.868 292.3579,240.375 292.7082,240.1072 294.3844,238.0013 295.2137,237.041 295.7483,235.6493 296.4719,233.9076 296.4315,232.9073 296.4412,231.7691 296.3986,230.7743 295.6721,229.0763 295.0078,227.6409 294.2927,226.7332 292.7082,224.9086 292.2243,224.5076 289.8246,223.0262 287.2388,221.5743 286.5515,221.3742 283.2198,220.5433 281.7694,220.2265 279.7734,220.2307 278.3427,220.204 276.3001,220.208 274.8176,220.5249 271.0906,221.2253 270.5734,221.3742 267.4732,222.5841 265.3613,223.3375 264.3079,223.9041 263.1067,224.5076 261.479,225.4168 259.8919,226.2313 258.7667,226.9963 257.7502,227.6409 256.2976,228.7151 254.4225,229.9835 253.4355,230.7743 251.9189,232.2086 251.7474,232.3751 249.9922,233.9076 248.9532,235.0705 247.8739,236.4227 247.3132,237.041 246.533,238.4275 246.3929,238.7076 245.4755,240.1744 245.2734,241.1996 244.8328,242.5349 244.8975,244.1176 245.1263,245.5001 245.4593,246.4411 246.7203,247.7203 248.9532,249.4157 249.3123,249.5744 252.8291,250.4873 254.4225,250.7782 256.7075,250.8835 257.485,250.9534 259.8919,251.0472 262.1268,250.8548 263.2036,250.8106 265.3613,250.6486 266.7731,250.3832 270.3179,249.8682 270.8307,249.7821 271.0777,249.7159" style="fill:none;stroke:black;stroke-width:1" />
  <polyline points="582.5853,337.1925 581.0404,335.0602 580.4473,334.1751 579.0792,333.0503 577.1159,331.4998 576.3723,330.6157 574.8577,329.2021 573.4066,327.9084 572.5013,327.4187 571.6466,327.0186 570.1978,325.605 569.2962,324.775 567.7221,323.89 566.1772,323.1428 565.2009,322.201 564.5757,321.6417 562.6115,320.5511 560.7078,319.6523 559.4091,318.5083 557.2384,317.3625 555.2384,316.4783 553.8603,315.3749 551.6498,314.2975 549.769,313.5434 548.788,312.8036 547.9331,312.2416 545.8779,311.3374 544.2997,310.7783 542.9497,309.8816 541.584,309.1082 539.9449,308.4697 538.8303,308.1285 536.9561,307.0486 534.7188,305.9749 533.3609,305.5549 530.816,304.2994 529.5546,303.7943 527.8915,303.1053 527.4911,302.8415 524.5984,301.5948 522.4221,300.8357 521.4597,300.2595 520.368,299.7082 518.2893,298.9424 516.9528,298.5542 515.1165,297.6268 512.5909,296.5748 511.4834,296.2577 509.3549,295.3554 508.6666,295.0551 506.014,294.1035 504.767,293.4414 502.2069,292.4892 500.5446,291.9917 498.9568,291.2177 496.7179,290.3081 495.0752,289.8281 492.3794,288.7191 492.1914,288.6559 489.6059,287.7436 488.459,287.1747 485.8169,286.212 484.1365,285.7106 482.5201,284.9674 480.1308,284.0414 478.6671,283.6132 476.2724,282.6695 475.8746,282.5078 473.1977,281.5888 471.7191,280.908 469.2568,280.0324 467.7283,279.5781 465.9369,278.8009 463.172,277.7747 462.259,277.5057 460.8583,276.9722 459.2749,276.3509 456.7896,275.512 455.9518,275.1213 454.7766,274.6413 452.6358,273.8876 451.3202,273.491 449.3143,272.6571 446.1463,271.5079 445.395,271.2468 442.6724,270.1955 440.3814,269.4171 439.356,268.9621 437.872,268.3746 436.0488,267.7233 434.9121,267.3653 432.7456,266.4824 429.6237,265.3449 429.3603,265.2412 426.1527,263.9927 423.9733,263.2262 422.859,262.7462 421.2349,262.1079 419.5798,261.4915 418.5039,261.127 416.3099,260.2315 413.1816,259.0587 412.9682,258.9745 409.7871,257.7016 407.5652,256.875 406.5265,256.4362 405.0205,255.8411 403.2897,255.1571 402.0958,254.7137 400.0572,253.8757 397.0493,252.7078 395.6237,252.1333 393.6065,251.3045 391.157,250.3412 390.3731,250.0235 389.2178,249.5744 387.1702,248.7251 385.6877,248.1285 383.9494,247.4369 381.3732,246.4411 380.2183,245.9515 377.4857,244.8732 377.4723,244.8679 374.7489,243.8049 373.2841,243.3077 370.9079,242.3748 369.2795,241.7322 367.5223,241.1811 364.3292,240.1744 363.148,239.795 360.3086,239.047 358.3408,238.5095 356.206,238.264 354.6811,238.0778 352.8714,237.8652 351.2587,237.9649 349.2185,238.0817 347.402,238.1959 345.0102,238.8041 343.7524,239.1318 341.9326,239.6016 340.6734,240.1744 338.0285,241.0711 336.4632,241.5985 334.8265,242.3701 332.8284,243.3077 330.9939,243.978 328.5972,245.0681 325.5405,246.4411 325.4842,246.4641 322.3995,247.7842 320.0551,248.7733 318.3449,249.5744 316.1325,250.4606 314.5857,251.0727 312.9472,251.7691 310.7332,252.7078 309.1163,253.3178 306.5006,254.3426 305.7424,254.6407 303.647,255.464 302.6994,255.8411 299.9495,256.8563 298.1776,257.5177 296.6271,258.0862 294.2619,258.9745 292.7082,259.5347 290.1732,260.4268 289.925,260.5134 287.2388,261.4831 285.4372,262.1079 283.1493,262.8984 281.7694,263.3957 279.7285,264.072 276.3971,265.2412 276.1511,265.3266 272.8777,266.4139 270.8307,267.141 269.437,267.5762 267.0857,268.3746 265.3613,268.9957 262.8194,269.8308 262.5721,269.91 259.8919,270.8522 259.137,271.0755 257.8293,271.5079 255.7106,272.2459 254.4225,272.7394 252.2951,273.4225 249.036,274.5939 248.8933,274.6413 245.5264,275.8115 243.4838,276.6102 242.1712,277.0227 240.0837,277.7747 238.862,278.2602 238.0144,278.6375 235.5729,279.5093 233.5506,280.3319 232.0225,280.908 229.1141,282.0758 227.0756,283.0088 225.9579,283.401 224.3875,284.0414 222.8593,284.7592 221.6063,285.4231 219.8144,286.1482 217.606,287.1747 216.1369,288.0288 213.9415,289.0504 211.56,290.3081 210.6675,290.9124 208.376,292.1287 206.169,293.4414 205.1981,294.1985 203.1664,295.4109 201.4022,296.5748 200.727,297.1467 199.7288,298.0483 198.3773,298.9339 197.293,299.7082 196.1419,300.7866 194.2594,302.6332 193.571,303.2359 192.066,304.7183 190.8233,305.9749 190.2442,306.808 188.79,308.8443 188.3383,309.367 187.0361,311.2368 186.3,312.2416 185.6615,313.5827 185.3081,314.2363 184.7335,315.3749 184.5343,316.0703 183.7135,318.2832 183.3206,319.9916 182.8669,321.3817 182.6615,322.0193 182.3223,324.2031 182.0717,325.4905 182.0494,327.1801 181.9136,328.7145 182.082,330.3321 182.0791,331.753 182.463,333.6838 182.5248,334.631 183.2395,337.262 183.3206,337.5708 183.8969,340.1117 184.265,340.9828 184.7032,342.7831 185.1007,343.5752 185.6388,344.9032 186.4589,346.7085 186.886,347.7993 187.9294,349.3489 188.1811,349.8419 188.79,350.9118 189.549,352.5404 190.4635,353.934 190.8747,354.9143 191.8081,356.1086 192.3772,357.1869 194.0814,359.14 194.1545,359.242" style="fill:none;stroke:black;stroke-width:1" />
  <polyline points="335.5825,340.9464 336.4632,340.913 337.2038,340.8661 341.7558,340.5431 342.8473,340.4418 346.8104,340.1029 348.2766,339.9408 351.3968,339.597 352.8714,339.4124 355.2823,339.0606 355.8065,338.99 358.3408,338.6002 360.0758,338.3025 363.104,337.713 364.1681,337.5135 365.0817,337.3085 368.2144,336.6983 369.2795,336.4605 371.7839,335.8737 372.1164,335.8003 374.7489,335.1316 375.8965,334.8325 378.1012,334.1751 379.5532,333.7941 380.2183,333.5932 382.3781,332.9378 383.1414,332.7164 385.6877,331.8624 386.5956,331.5619 387.9631,331.0417 389.9677,330.3604 391.157,329.8931 393.2372,329.1001 395.9569,327.9084 396.6264,327.625 398.7462,326.694 399.4484,326.3917 402.0958,325.0676 402.6716,324.775 405.2778,323.4646 407.5652,322.1283 408.4011,321.6417 410.6819,320.2938 413.0346,318.6776 414.4057,317.7228 415.6408,316.868 417.5148,315.3749 418.5039,314.5225 420.1354,313.1762 421.1179,312.2416 422.1747,311.2112 423.9733,309.1721 424.0843,309.0447 425.7912,307.0163 426.5502,305.9749 427.3279,304.7634 427.8947,303.7283 428.4207,302.8415 428.6413,302.3824 429.4427,300.4097 429.8123,299.4964 430.4957,297.1781 430.702,295.8533 430.8842,294.2673 430.8682,292.6248 430.7466,291.0551 430.4957,289.7048 429.8397,287.4022 429.4427,286.5256 428.5689,284.542 427.6819,283.0326 427.1525,282.2201 426.2722,280.908 425.4917,280.0381 423.9733,278.4217 423.4383,277.7747 422.5858,276.9798 421.5686,276.0189 420.0295,274.6413 418.5039,273.5394 417.0275,272.3538 415.911,271.5079 414.5714,270.6275 413.0346,269.6808 412.0029,268.9656 411.0969,268.3746 409.3501,267.352 407.5652,266.3729 406.6056,265.791 405.6412,265.2412 403.7964,264.267 402.0958,263.4242 400.9094,262.7875 399.5629,262.1079 397.9684,261.339 396.6264,260.7299 394.9586,259.93 392.8449,258.9745 391.157,258.2408 388.7688,257.2094 386.3515,256.2214 385.4178,255.8411 382.3374,254.6271 380.2183,253.8312 379.0073,253.4016 376.949,252.7078 375.5922,252.2247 374.7489,251.9364 372.0523,251.1193 371.8984,251.0748 369.2795,250.3053 368.38,250.0897 366.111,249.5744 364.511,249.1729 363.8101,249.0034 362.4049,248.7694 360.3579,248.4188 358.3408,248.0906 355.7973,247.8982 355.3635,247.8688 352.8714,247.6847 350.6187,247.7316 349.6989,247.7569 347.402,247.8036 344.8387,248.1059 344.4149,248.1524 341.9326,248.4381 340.483,248.744 336.5143,249.5452 336.3986,249.5744 332.6312,250.5125 330.9939,250.9031 328.947,251.5351 326.0674,252.3968 325.1117,252.7078 321.8576,253.7404 320.0551,254.2967 318.3855,254.8846 315.6211,255.8411 314.5857,256.172 313.1199,256.6809 311.5414,257.2305 309.1163,258.0649 308.1452,258.4181 306.6144,258.9745 304.77,259.6179 303.647,260.0076 301.3918,260.8159 298.8006,261.751 297.8134,262.1079 294.6838,263.2397 292.7082,263.9643 291.3391,264.4569 289.2168,265.2412 288.0228,265.6903 287.2388,265.9914 284.7147,266.9285 283.4374,267.419 281.7694,268.0552 280.9028,268.3746 278.1697,269.4457 276.3001,270.2081 274.9337,270.7252 272.973,271.5079 271.7484,272.0337 270.8307,272.4451 268.6008,273.3638 265.6705,274.6413 264.0024,275.4198 262.4726,276.1198 259.8919,277.3726 258.9956,277.7747 256.6116,279.0288 254.4225,280.2488 253.1284,280.908 251.1212,282.15 248.9532,283.5659 248.1465,284.0414 246.1175,285.5502 245.5588,285.9859 244.0238,287.1747 243.4838,287.727 241.7375,289.3077 240.6733,290.3081 239.8581,291.3643 238.4733,293.1786 238.0144,293.9572 236.8844,295.9274 236.1749,297.6286 235.913,298.5043 235.5215,299.7082 235.3939,301.2094 235.2541,302.8415 235.439,304.3169 235.6694,305.9749 236.0306,307.1114 236.4704,308.2237 236.7735,309.1082 237.0478,309.662 238.0144,311.2841 238.9635,312.7853 239.9917,314.2422 240.9463,315.3749 241.82,316.3281 243.4838,317.8763 244.1463,318.5083 245.5436,319.6883 246.0788,320.155 248.0887,321.6417 248.9532,322.2387 250.9624,323.624 252.9194,324.775 254.4225,325.6374 256.4279,326.7595 258.8261,327.9084 259.8919,328.4242 262.4233,329.5916 263.7387,330.1122 265.3613,330.7714 266.0776,331.0417 268.8939,332.1513 270.8307,332.8146 272.3203,333.3217 275.2183,334.1751 276.3001,334.5175 277.4748,334.8481 279.5358,335.4547 281.7694,336.0302 283.3327,336.4129 287.064,337.2083 287.558,337.3085 291.3235,338.1017 292.7082,338.3588 295.2894,338.7872 295.5239,338.8287 298.1776,339.2454 299.8689,339.4729 302.5002,339.7848 304.3999,340.0105 309.0852,340.4418 309.1229,340.4456 313.9331,340.8157 315.3762,340.8947 318.9708,341.063 320.0551,341.1089 321.2522,341.1276 324.2387,341.1784 325.5245,341.1984 326.82,341.184 329.7627,341.1471 330.9939,341.1334 332.127,341.091 335.5825,340.9464" style="fill:none;stroke:black;stroke-width:1" />
  <polyline points="333.7193,329.4698 333.7396,329.4687 336.4632,329.3384 338.6554,329.1642 339.9349,329.0529 341.9326,328.8904 343.3682,328.7308 346.6727,328.3262 347.869,328.1759 349.5658,327.9084 352.211,327.53 354.1165,327.1951 356.3991,326.796 358.3408,326.4177 360.4191,325.9657 362.6913,325.416 364.2746,325.0411 365.2278,324.775 368.0236,324.0555 369.2795,323.6936 371.623,322.9842 373.5333,322.338 375.0756,321.8289 375.5704,321.6417 378.4394,320.6226 380.2183,319.9116 381.658,319.3331 383.4857,318.5083 384.7407,317.9658 385.6877,317.5053 387.7109,316.534 389.8605,315.3749 391.157,314.6486 393.25,313.4406 395.0986,312.2416 396.6264,311.1766 398.2479,310.0372 399.4232,309.1082 400.5199,308.2054 402.0958,306.7411 402.9334,305.9749 403.8922,304.9457 404.5603,304.2534 405.7722,302.8415 406.3085,302.1216 407.5652,300.2103 408.0442,299.4337 409.0895,297.4481 409.4935,296.5748 409.8982,295.2382 410.4359,293.4414 410.5898,292.0409 410.7647,290.3081 410.6426,288.9377 410.4817,287.1747 410.0601,285.7454 409.5632,284.0414 409.1125,283.1549 408.1206,281.2262 407.5652,280.3814 406.2741,278.5143 405.7484,277.7747 404.4785,276.4096 403.603,275.5048 402.777,274.6413 402.0958,274.0739 400.3238,272.5231 399.1083,271.5079 398.0068,270.7171 396.6264,269.7765 395.538,268.9981 394.6197,268.3746 392.9401,267.3531 391.157,266.3262 390.2236,265.776 389.2649,265.2412 387.3872,264.2675 385.6877,263.4341 384.436,262.8249 382.8747,262.1079 381.3758,261.4447 380.2183,260.9607 378.1744,260.1454 375.0574,258.9745 374.302,258.7185 371.3835,257.7691 369.2795,257.1246 367.7363,256.7253 364.0676,255.8411 363.652,255.7506 359.7343,255.0428 358.3408,254.8104 356.179,254.6027 355.2105,254.5011 352.8714,254.2845 350.1946,254.2413 350.0777,254.2407 347.402,254.199 344.8197,254.3618 344.4845,254.3792 341.9326,254.5346 340.0953,254.7886 337.7915,255.0802 336.4632,255.2579 335.715,255.4125 333.5178,255.8411 331.6057,256.1917 330.9939,256.2964 329.6489,256.6116 327.6881,257.0807 325.5245,257.5737 323.8868,258.0363 320.4458,258.9745 319.6826,259.1879 316.5892,260.1223 314.5857,260.7107 313.0363,261.2202 310.2918,262.1079 309.1163,262.4843 307.4732,263.0492 306.1101,263.519 303.647,264.3598 302.6998,264.6986 301.1858,265.2412 299.3538,265.9151 298.1776,266.3464 296.0418,267.151 292.8217,268.3746 292.4313,268.5332 289.5565,269.7023 287.2388,270.6582 286.3696,271.01 285.1708,271.5079 283.2701,272.3676 281.7694,273.0586 280.2159,273.7513 278.2783,274.6413 277.2388,275.1791 276.3001,275.6744 274.3513,276.6582 272.2076,277.7747 270.8307,278.6213 268.8591,279.7785 266.9925,280.908 266.2795,281.4341 265.3613,282.1226 263.8553,283.1786 262.658,284.0414 261.5993,285.0195 259.8919,286.6125 258.6585,287.8814 257.6903,289.0468 256.6414,290.3081 256.1227,291.2821 255.1654,293.0159 254.9348,293.4414 254.4225,295.2534 254.0749,296.3756 253.9893,296.823 253.8909,299.4036 253.9151,299.9989 254.4225,302.3216 254.574,302.9283 255.6027,305.2988 255.9531,305.9749 256.9759,307.4376 257.0747,307.5888 258.2339,309.1082 258.8003,309.7336 259.8919,310.7856 260.8163,311.712 261.4226,312.2416 263.0605,313.5597 265.3613,315.1894 265.6341,315.3749 268.1349,316.9194 270.8307,318.3915 271.0597,318.5083 273.8922,319.8878 276.3001,320.9278 278.1209,321.6417 280.2933,322.4873 281.7694,322.998 283.7392,323.6466 286.8588,324.5573 287.634,324.775 291.0902,325.7019 292.7082,326.0901 295.0169,326.5858 296.2971,326.831 298.1776,327.2118 299.1107,327.3738 302.5439,327.9084 304.0567,328.1431 307.8343,328.6428 309.1163,328.7962 310.9483,328.9579 312.4979,329.1045 314.5857,329.2839 317.2328,329.4249 317.392,329.434 320.0551,329.5736 322.5352,329.6209 323.0601,329.6299 325.5245,329.6767 327.9687,329.6415 328.5364,329.6339 330.9939,329.5984 333.7193,329.4698" style="fill:none;stroke:black;stroke-width:1" />
  <polyline points="335.5006,321.0902 336.4632,321.035 337.7382,320.9113 340.2538,320.6799 341.9326,320.5134 344.5198,320.1595 344.7603,320.1282 347.402,319.7553 349.0675,319.4625 352.2787,318.8478 353.8807,318.5083 357.0845,317.7886 358.3408,317.4801 360.8235,316.7973 361.8851,316.4778 363.8101,315.9149 365.4169,315.3749 367.8399,314.5502 369.2795,314.0115 371.1101,313.2903 373.5293,312.2416 374.7489,311.6889 377.1737,310.4974 379.742,309.1082 380.2183,308.8292 382.6133,307.3469 384.6257,305.9749 385.6877,305.155 387.378,303.8099 388.4808,302.8415 389.4621,301.8705 391.157,300.0166 391.6243,299.4405 392.96,297.6077 393.6402,296.5748 394.285,295.2334 395.0893,293.4414 395.2878,292.6746 395.6996,290.839 395.8324,290.3081 395.8469,289.8615 395.8755,287.6049 395.7944,286.6981 395.3919,284.7486 394.7975,282.9936 394.4374,282.1621 393.8913,280.908 393.1293,279.7781 392.1288,278.3314 391.748,277.7747 391.157,277.1458 389.6389,275.511 388.8003,274.6413 387.5342,273.5834 385.6877,272.1074 384.922,271.5079 382.7207,270.0743 380.2183,268.5253 379.9598,268.3746 377.1998,266.9705 374.7489,265.7921 373.4695,265.2412 370.9819,264.266 369.2795,263.6389 367.5677,263.0886 364.2895,262.1079 363.4307,261.8905 360.0362,261.1366 358.3408,260.7905 355.7882,260.4368 355.3249,260.3801 352.8714,260.0553 351.1675,259.9506 348.9197,259.844 347.402,259.7548 346.0044,259.7752 343.4478,259.8425 341.9326,259.8637 340.1036,260.0223 338.5529,260.1717 336.4632,260.3459 334.0352,260.7169 333.2239,260.8303 330.9939,261.159 329.7834,261.4144 326.2936,262.1079 325.0623,262.3726 321.8991,263.1643 320.0551,263.6043 318.1537,264.1519 314.9114,265.0546 314.2859,265.2412 310.9862,266.3124 309.1163,266.9039 307.5221,267.4613 304.8715,268.3746 303.647,268.8224 301.2051,269.7735 300.8567,269.9094 298.1776,270.9456 296.7836,271.5079 294.4898,272.5286 292.7082,273.3178 291.4183,273.9023 289.7979,274.6413 288.4585,275.34 287.2388,275.9749 285.5978,276.8345 283.8181,277.7747 282.8426,278.3895 281.7694,279.0642 280.2281,280.025 278.823,280.908 277.761,281.7449 276.3001,282.8898 274.7999,284.0414 273.3793,285.5015 272.8968,285.9911 271.7344,287.1747 270.8307,288.527 269.9447,289.8005 269.212,291.2354 268.8141,292.2861 268.3397,293.4414 268.1784,294.9609 268.0031,296.5748 268.2596,298.0478 268.5747,299.7082 269.031,300.7392 269.8186,302.2617 270.0934,302.8415 270.8307,303.8027 272.0152,305.2963 272.6284,305.9749 274.0451,307.2667 276.3001,309.098 276.4239,309.1792 278.8767,310.7655 281.4361,312.2416 281.7694,312.4149 283.4363,313.1965 284.6052,313.7504 287.2388,314.8747 288.5809,315.3749 291.1261,316.2813 292.7082,316.7903 294.7015,317.3664 297.4242,318.0767 299.2242,318.5083 302.428,319.2067 303.647,319.4482 305.9285,319.8154 306.6281,319.9338 309.1163,320.3183 311.0405,320.5394 313.0237,320.7468 314.5857,320.9209 315.7063,320.9997 319.3406,321.2323 320.6555,321.2977 325.1122,321.4055 325.9284,321.4103 330.4709,321.342 331.5898,321.3002 335.5006,321.0902" style="fill:none;stroke:black;stroke-width:1" />
  <polyline points="325.5245,314.2875 327.4713,314.2597 329.0074,314.2369 330.9939,314.2086 333.2896,314.0597 334.081,314.0102 336.4632,313.8544 338.8107,313.5864 339.7921,313.4679 341.9326,313.2188 343.2616,313.003 347.2929,312.3041 347.6022,312.2416 351.3789,311.3866 352.8714,311.0249 355.1042,310.3874 357.266,309.7239 359.1685,309.1082 361.9696,308.0538 363.8101,307.3067 365.1237,306.7274 366.7003,305.9749 368.0653,305.2793 369.2795,304.6118 370.8136,303.7204 372.2104,302.8415 373.3505,302.0404 374.7489,300.9788 375.6857,300.2449 376.3172,299.7082 377.7272,298.281 378.2593,297.6971 379.3075,296.5748 380.2183,295.2202 381.0608,293.9241 381.6508,292.6207 382.1269,291.4015 382.5161,290.3081 382.6649,288.9065 382.8508,287.1747 382.6293,285.7935 382.3531,284.0414 381.9299,283.0608 381.2484,281.4981 380.9926,280.908 380.2183,279.8336 379.1454,278.3893 378.6739,277.7747 377.1916,276.3753 376.1885,275.466 375.287,274.6413 374.7489,274.2578 372.5118,272.7895 370.4544,271.5079 369.2795,270.8997 366.8114,269.7885 364.7811,268.9309 363.3978,268.3746 360.0875,267.3739 358.3408,266.8847 356.2432,266.4429 354.3341,266.0792 352.8714,265.7866 352.0894,265.6892 347.9018,265.2412 347.3141,265.1909 342.2302,265.0708 341.66,265.0851 338.5636,265.2412 336.6412,265.3432 336.4632,265.3501 336.2253,265.3775 332.1246,265.889 330.9939,266.0139 329.021,266.3715 327.8747,266.5876 325.5245,266.998 323.8271,267.4022 320.4094,268.1716 319.6185,268.3746 316.2994,269.3563 314.5857,269.8411 312.7487,270.4555 309.5001,271.5079 308.3251,271.9612 306.0387,272.8782 303.647,273.8128 302.8184,274.1666 301.6899,274.6413 299.7946,275.5677 298.1776,276.3402 296.853,277.0158 295.3464,277.7747 294.0732,278.5567 292.7082,279.3765 291.4329,280.1774 290.2547,280.908 288.999,281.9164 287.2388,283.2935 286.3012,284.0414 285.2996,285.1523 284.7619,285.7557 283.451,287.1747 283.0483,287.9074 281.7694,290.0736 281.6062,290.4016 280.9919,292.996 280.897,293.9413 281.1363,296.2121 281.7694,297.996 282.3903,299.3525 283.3335,300.6042 284.0721,301.5224 285.2711,302.8415 286.0616,303.5159 287.2388,304.4198 288.442,305.2856 289.5048,305.9749 291.1185,306.8856 292.7082,307.6999 294.0668,308.3299 295.915,309.1082 297.2589,309.6345 298.1776,309.9626 300.7604,310.7619 301.3588,310.9307 303.647,311.5963 304.4421,311.7861 306.5271,312.2416 308.4134,312.6443 309.1163,312.782 310.3854,312.9686 312.6942,313.3252 314.5857,313.594 317.2667,313.839 317.3925,313.8495 320.0551,314.0873 322.1639,314.1668 323.4943,314.2119 325.5245,314.2875" style="fill:none;stroke:black;stroke-width:1" />
  <polyline points="336.4632,306.7518 337.5532,306.5993 341.8492,305.9749 341.9711,305.9528 345.8289,305.0736 347.402,304.6997 349.5225,304.0564 352.2962,303.171 353.2555,302.8415 356.1243,301.5717 358.3408,300.5373 359.8601,299.7082 361.6863,298.4915 363.8101,296.9978 364.9679,295.9115 366.0825,294.7433 367.2576,293.4414 367.7631,292.5727 368.8908,290.5307 369.2795,289.0336 369.5996,287.3581 369.6041,286.9888 369.2795,284.7807 369.1091,283.9437 367.9021,281.6971 367.4634,280.908 366.1795,279.5506 365.2295,278.5878 364.4366,277.7747 363.8101,277.3253 361.5441,275.9395 359.2939,274.6413 358.3408,274.214 356.4556,273.5613 355.404,273.1904 352.8714,272.3621 351.8107,272.1156 348.9113,271.5079 347.402,271.2428 346.8699,271.2031 343.0481,270.8689 341.9326,270.7899 340.7131,270.8093 337.6755,270.8134 336.4632,270.8317 335.4571,270.9315 331.4078,271.2708 329.7677,271.5079 326.5402,272.0899 325.5245,272.2555 323.2353,272.8194 322.6174,272.9758 320.0551,273.5812 318.8536,273.953 316.5094,274.6413 315.3148,275.059 314.5857,275.2994 312.0582,276.3267 310.7728,276.8257 309.1163,277.4743 308.4418,277.7747 305.9909,279.1175 303.647,280.3479 302.6795,280.908 300.7523,282.3831 299.5918,283.2312 298.4895,284.0414 298.1776,284.3819 296.578,286.2583 295.7484,287.1747 295.1168,288.5546 294.2575,290.3081 294.2297,291.1797 294.1073,292.6399 294.0802,293.4414 294.4908,294.4627 294.8137,295.3686 295.3327,296.5748 296.2566,297.6753 298.1534,299.6943 298.1776,299.7168 300.7893,301.3453 303.43,302.8415 304.1013,303.1018 306.8903,304.1168 309.1163,304.8619 310.4573,305.2067 313.7105,305.9749 315.0003,306.2124 318.7426,306.7268 320.0551,306.893 321.8411,306.998 323.5485,307.1069 325.5245,307.221 327.6629,307.2 328.8716,307.1907 330.9939,307.17 332.836,307.0302 334.8991,306.8709 336.4632,306.7518" style="fill:none;stroke:black;stroke-width:1" />
  <polyline points="341.9326,296.934 342.3256,296.8 342.9726,296.5748 345.4269,295.4433 347.402,294.528 348.3197,293.9672 349.1618,293.4414 350.5242,292.0968 351.5855,291.0448 352.4208,290.0499 352.8714,288.8313 353.3061,286.9257 352.8714,285.2738 352.4567,284.0414 351.6972,283.3687 350.4831,282.2762 348.8464,280.908 347.402,280.2068 344.7924,279.413 344.6308,279.3623 341.9326,278.5984 340.7446,278.4553 337.0328,278.1009 335.9656,278.0597 331.9419,278.3178 330.9939,278.3579 329.4704,278.6474 327.6818,279.0106 325.5245,279.3937 323.8129,279.9275 320.3596,280.908 320.0551,281.0301 317.3726,282.5046 316.509,282.9396 314.5857,283.9135 314.1344,284.3 312.5448,286.0055 311.3352,287.1747 311.005,288.2567 310.5216,289.503 310.2552,290.3081 310.6132,291.1656 311.0358,292.3418 311.5369,293.4414 312.7772,294.4775 314.5857,295.831 316.0664,296.5748 318.6157,297.3994 320.0551,297.8247 322.6242,298.2363 323.0654,298.2994 325.5245,298.6752 327.265,298.711 329.2939,298.7343 330.9939,298.7682 333.0145,298.5506 334.2105,298.4176 336.4632,298.1786 338.467,297.7227 340.8924,297.1708 341.9326,296.934" style="fill:none;stroke:black;stroke-width:1" />
  <polygon points="267.2803,59.3455 280.7415,57.0977 283.8091,75.4683 270.3479,77.7161" style="fill:rgb(255,255,255);stroke:none;" />
  <polygon points="284.168,68.3006 297.7342,66.8139 299.7632,85.328 286.197,86.8148" style="fill:rgb(255,255,255);stroke:none;" />
  <polygon points="272.5191,78.3975 285.9075,75.751 289.5193,94.0225 276.1308,96.669" style="fill:rgb(255,255,255);stroke:none;" />
  <polygon points="277.4311,84.2646 290.8357,81.7011 294.3341,99.9945 280.9296,102.5581" style="fill:rgb(255,255,255);stroke:none;" />
  <polygon points="296.059,87.3037 309.6606,86.1858 311.1862,104.7482 297.5846,105.8661" style="fill:rgb(255,255,255);stroke:none;" />
  <polygon points="245.4647,190.9835 251.8316,178.9122 268.3055,187.6012 261.9386,199.6726" style="fill:rgb(255,255,255);stroke:none;" />
  <polygon points="295.2803,93.3673 308.8579,91.9874 310.7411,110.5169 297.1636,111.8969" style="fill:rgb(255,255,255);stroke:none;" />
  <polygon points="295.4143,100.1464 308.9366,98.3021 311.4536,116.7562 297.9313,118.6006" style="fill:rgb(255,255,255);stroke:none;" />
  <polygon points="291.9744,116.4498 303.4543,109.0696 313.5262,124.7363 302.0464,132.1166" style="fill:rgb(255,255,255);stroke:none;" />
  <polygon points="160.103,147.6273 179.7852,144.2051 182.9757,162.5548 163.2935,165.977" style="fill:rgb(255,255,255);stroke:none;" />
  <polygon points="177.0452,160.0332 196.8144,157.1558 199.4971,175.5865 179.7279,178.464" style="fill:rgb(255,255,255);stroke:none;" />
  <polygon points="319.1797,181.8764 328.7567,172.1535 342.0258,185.2233 332.4489,194.9463" style="fill:rgb(255,255,255);stroke:none;" />
  <polygon points="407.4879,176.2539 420.4114,171.8679 426.397,189.5049 413.4735,193.8908" style="fill:rgb(255,255,255);stroke:none;" />
  <polygon points="180.0519,183.591 198.9011,176.9722 205.0718,194.5453 186.2226,201.1641" style="fill:rgb(255,255,255);stroke:none;" />
  <polygon points="278.528,181.1823 292.072,179.505 294.361,197.9888 280.8169,199.6661" style="fill:rgb(255,255,255);stroke:none;" />
  <polygon points="265.6625,201.414 278.6263,197.1488 284.4472,214.8408 271.4833,219.106" style="fill:rgb(255,255,255);stroke:none;" />
  <polygon points="261.1247,214.9125 273.9429,210.2278 280.3363,227.7211 267.518,232.4058" style="fill:rgb(255,255,255);stroke:none;" />
  <polygon points="336.059,231.5128 349.2657,228.0721 353.9614,246.0954 340.7547,249.5362" style="fill:rgb(255,255,255);stroke:none;" />
  <polygon points="324.2742,243.3612 343.4789,237.8584 348.6091,255.7629 329.4045,261.2657" style="fill:rgb(255,255,255);stroke:none;" />
  <polygon points="324.1279,248.185 343.7357,244.3596 347.3021,262.64 327.6943,266.4654" style="fill:rgb(255,255,255);stroke:none;" />
  <polygon points="318.1711,254.2274 337.7654,250.3336 341.3956,268.6013 321.8013,272.4952" style="fill:rgb(255,255,255);stroke:none;" />
  <polygon points="331.2149,256.2875 351.1671,255.2813 352.1052,273.8826 332.153,274.8888" style="fill:rgb(255,255,255);stroke:none;" />
  <polygon points="319.4083,263.7175 339.1408,260.598 342.049,278.9946 322.3166,282.114" style="fill:rgb(255,255,255);stroke:none;" />
  <polygon points="311.6604,273.6974 330.8783,268.2408 335.9655,286.1576 316.7476,291.6142" style="fill:rgb(255,255,255);stroke:none;" />
  <text dominant-baseline="middle" text-anchor="middle" transform="translate(275.5447,67.4069) rotate(-9.48001633272784)" font-family="Segoe UI" font-size="12" font-weight="400" fill="black">1</text>
  <text dominant-baseline="middle" text-anchor="middle" transform="translate(291.9656,76.8143) rotate(-6.2541698122007)" font-family="Segoe UI" font-size="12" font-weight="400" fill="black">2</text>
  <text dominant-baseline="middle" text-anchor="middle" transform="translate(281.0192,86.21) rotate(-11.1815789132464)" font-family="Segoe UI" font-size="12" font-weight="400" fill="black">3</text>
  <text dominant-baseline="middle" text-anchor="middle" transform="translate(285.8826,92.1296) rotate(-10.8266215191525)" font-family="Segoe UI" font-size="12" font-weight="400" fill="black">4</text>
  <text dominant-baseline="middle" text-anchor="middle" transform="translate(303.6226,96.0259) rotate(-4.69843633247311)" font-family="Segoe UI" font-size="12" font-weight="400" fill="black">5</text>
  <text dominant-baseline="middle" text-anchor="middle" transform="translate(256.8851,189.2924) rotate(-62.1910534595719)" font-family="Segoe UI" font-size="12" font-weight="400" fill="black">0</text>
  <text dominant-baseline="middle" text-anchor="middle" transform="translate(303.0107,101.9421) rotate(-5.80327478680854)" font-family="Segoe UI" font-size="12" font-weight="400" fill="black">6</text>
  <text dominant-baseline="middle" text-anchor="middle" transform="translate(303.434,108.4513) rotate(-7.76691184989411)" font-family="Segoe UI" font-size="12" font-weight="400" fill="black">7</text>
  <text dominant-baseline="middle" text-anchor="middle" transform="translate(302.7503,120.5931) rotate(-32.7363635277723)" font-family="Segoe UI" font-size="12" font-weight="400" fill="black">8</text>
  <text dominant-baseline="middle" text-anchor="middle" transform="translate(171.5394,155.091) rotate(-9.86342937055494)" font-family="Segoe UI" font-size="12" font-weight="400" fill="black">-1</text>
  <text dominant-baseline="middle" text-anchor="middle" transform="translate(188.2712,167.8099) rotate(-8.28144345553406)" font-family="Segoe UI" font-size="12" font-weight="400" fill="black">-2</text>
  <text dominant-baseline="middle" text-anchor="middle" transform="translate(330.6028,183.5499) rotate(-45.4334867506171)" font-family="Segoe UI" font-size="12" font-weight="400" fill="black">0</text>
  <text dominant-baseline="middle" text-anchor="middle" transform="translate(416.9425,182.8794) rotate(-18.7461127715871)" font-family="Segoe UI" font-size="12" font-weight="400" fill="black">3</text>
  <text dominant-baseline="middle" text-anchor="middle" transform="translate(192.5619,189.0681) rotate(-19.3485824878493)" font-family="Segoe UI" font-size="12" font-weight="400" fill="black">-3</text>
  <text dominant-baseline="middle" text-anchor="middle" transform="translate(286.4445,189.5855) rotate(-7.05924935230169)" font-family="Segoe UI" font-size="12" font-weight="400" fill="black">1</text>
  <text dominant-baseline="middle" text-anchor="middle" transform="translate(275.0548,208.1274) rotate(-18.2116124790553)" font-family="Segoe UI" font-size="12" font-weight="400" fill="black">2</text>
  <text dominant-baseline="middle" text-anchor="middle" transform="translate(270.7305,221.3168) rotate(-20.0760753020783)" font-family="Segoe UI" font-size="12" font-weight="400" fill="black">3</text>
  <text dominant-baseline="middle" text-anchor="middle" transform="translate(345.0102,238.8041) rotate(-14.6028938181067)" font-family="Segoe UI" font-size="12" font-weight="400" fill="black">0</text>
  <text dominant-baseline="middle" text-anchor="middle" transform="translate(336.4417,249.5621) rotate(-15.9888736133123)" font-family="Segoe UI" font-size="12" font-weight="400" fill="black">-1</text>
  <text dominant-baseline="middle" text-anchor="middle" transform="translate(335.715,255.4125) rotate(-11.0394873103329)" font-family="Segoe UI" font-size="12" font-weight="400" fill="black">-2</text>
  <text dominant-baseline="middle" text-anchor="middle" transform="translate(329.7834,261.4144) rotate(-11.2395478086132)" font-family="Segoe UI" font-size="12" font-weight="400" fill="black">-3</text>
  <text dominant-baseline="middle" text-anchor="middle" transform="translate(341.66,265.0851) rotate(-2.88702556925026)" font-family="Segoe UI" font-size="12" font-weight="400" fill="black">-4</text>
  <text dominant-baseline="middle" text-anchor="middle" transform="translate(330.7287,271.356) rotate(-8.98337688968456)" font-family="Segoe UI" font-size="12" font-weight="400" fill="black">-5</text>
  <text dominant-baseline="middle" text-anchor="middle" transform="translate(323.8129,279.9275) rotate(-15.8511429010088)" font-family="Segoe UI" font-size="12" font-weight="400" fill="black">-6</text>
  <text dominant-baseline="hanging" text-anchor="middle" transform="translate(311.824,8)" font-family="Segoe UI" font-size="18" font-weight="700" fill="black">ContourSeries</text>
  <polygon points="35.6479,45.9375 588,45.9375 588,362.375 35.6479,362.375" style="fill:none;stroke:black;stroke-width:1" />
</svg>