<?xml version="1.0" encoding="utf-8" standalone="no"?>
<!DOCTYPE svg PUBLIC "-//W3C//DTD SVG 1.1//EN" "http://www.w3.org/Graphics/SVG/1.1/DTD/svg11.dtd">
<svg width="600" height="400" version="1.1" xmlns:xlink="http://www.w3.org/1999/xlink" xmlns="http://www.w3.org/2000/svg">
  <polyline points="38.5917,372.1 34.5917,372.1" style="fill:none;stroke:black;stroke-width:1" />
  <polyline points="38.5917,343.7636 34.5917,343.7636" style="fill:none;stroke:black;stroke-width:1" />
  <polyline points="38.5917,329.5955 34.5917,329.5955" style="fill:none;stroke:black;stroke-width:1" />
  <polyline points="38.5917,315.4273 34.5917,315.4273" style="fill:none;stroke:black;stroke-width:1" />
  <polyline points="38.5917,287.0909 34.5917,287.0909" style="fill:none;stroke:black;stroke-width:1" />
  <polyline points="38.5917,272.9227 34.5917,272.9227" style="fill:none;stroke:black;stroke-width:1" />
  <polyline points="38.5917,258.7545 34.5917,258.7545" style="fill:none;stroke:black;stroke-width:1" />
  <polyline points="38.5917,230.4182 34.5917,230.4182" style="fill:none;stroke:black;stroke-width:1" />
  <polyline points="38.5917,216.25 34.5917,216.25" style="fill:none;stroke:black;stroke-width:1" />
  <polyline points="38.5917,202.0818 34.5917,202.0818" style="fill:none;stroke:black;stroke-width:1" />
  <polyline points="38.5917,173.7455 34.5917,173.7455" style="fill:none;stroke:black;stroke-width:1" />
  <polyline points="38.5917,159.5773 34.5917,159.5773" style="fill:none;stroke:black;stroke-width:1" />
  <polyline points="38.5917,145.4091 34.5917,145.4091" style="fill:none;stroke:black;stroke-width:1" />
  <polyline points="38.5917,117.0727 34.5917,117.0727" style="fill:none;stroke:black;stroke-width:1" />
  <polyline points="38.5917,102.9045 34.5917,102.9045" style="fill:none;stroke:black;stroke-width:1" />
  <polyline points="38.5917,88.7364 34.5917,88.7364" style="fill:none;stroke:black;stroke-width:1" />
  <polyline points="38.5917,60.4 34.5917,60.4" style="fill:none;stroke:black;stroke-width:1" />
  <polyline points="34.5917,368.1 34.5917,372.1" style="fill:none;stroke:black;stroke-width:1" />
  <polyline points="60.9444,368.1 60.9444,372.1" style="fill:none;stroke:black;stroke-width:1" />
  <polyline points="74.1208,368.1 74.1208,372.1" style="fill:none;stroke:black;stroke-width:1" />
  <polyline points="87.2972,368.1 87.2972,372.1" style="fill:none;stroke:black;stroke-width:1" />
  <polyline points="113.65,368.1 113.65,372.1" style="fill:none;stroke:black;stroke-width:1" />
  <polyline points="126.8264,368.1 126.8264,372.1" style="fill:none;stroke:black;stroke-width:1" />
  <polyline points="140.0028,368.1 140.0028,372.1" style="fill:none;stroke:black;stroke-width:1" />
  <polyline points="166.3556,368.1 166.3556,372.1" style="fill:none;stroke:black;stroke-width:1" />
  <polyline points="179.5319,368.1 179.5319,372.1" style="fill:none;stroke:black;stroke-width:1" />
  <polyline points="192.7083,368.1 192.7083,372.1" style="fill:none;stroke:black;stroke-width:1" />
  <polyline points="219.0611,368.1 219.0611,372.1" style="fill:none;stroke:black;stroke-width:1" />
  <polyline points="232.2375,368.1 232.2375,372.1" style="fill:none;stroke:black;stroke-width:1" />
  <polyline points="245.4139,368.1 245.4139,372.1" style="fill:none;stroke:black;stroke-width:1" />
  <polyline points="271.7667,368.1 271.7667,372.1" style="fill:none;stroke:black;stroke-width:1" />
  <polyline points="284.9431,368.1 284.9431,372.1" style="fill:none;stroke:black;stroke-width:1" />
  <polyline points="298.1194,368.1 298.1194,372.1" style="fill:none;stroke:black;stroke-width:1" />
  <polyline points="324.4722,368.1 324.4722,372.1" style="fill:none;stroke:black;stroke-width:1" />
  <polyline points="337.6486,368.1 337.6486,372.1" style="fill:none;stroke:black;stroke-width:1" />
  <polyline points="350.825,368.1 350.825,372.1" style="fill:none;stroke:black;stroke-width:1" />
  <polyline points="377.1778,368.1 377.1778,372.1" style="fill:none;stroke:black;stroke-width:1" />
  <polyline points="390.3542,368.1 390.3542,372.1" style="fill:none;stroke:black;stroke-width:1" />
  <polyline points="403.5306,368.1 403.5306,372.1" style="fill:none;stroke:black;stroke-width:1" />
  <polyline points="429.8833,368.1 429.8833,372.1" style="fill:none;stroke:black;stroke-width:1" />
  <polyline points="443.0597,368.1 443.0597,372.1" style="fill:none;stroke:black;stroke-width:1" />
  <polyline points="456.2361,368.1 456.2361,372.1" style="fill:none;stroke:black;stroke-width:1" />
  <polyline points="482.5889,368.1 482.5889,372.1" style="fill:none;stroke:black;stroke-width:1" />
  <polyline points="495.7653,368.1 495.7653,372.1" style="fill:none;stroke:black;stroke-width:1" />
  <polyline points="508.9417,368.1 508.9417,372.1" style="fill:none;stroke:black;stroke-width:1" />
  <polyline points="535.2944,368.1 535.2944,372.1" style="fill:none;stroke:black;stroke-width:1" />
  <polyline points="548.4708,368.1 548.4708,372.1" style="fill:none;stroke:black;stroke-width:1" />
  <polyline points="561.6472,368.1 561.6472,372.1" style="fill:none;stroke:black;stroke-width:1" />
  <polyline points="588,368.1 588,372.1" style="fill:none;stroke:black;stroke-width:1" />
  <text dominant-baseline="middle" text-anchor="end" transform="translate(30.5917,357.9318)" font-family="Arial" font-size="12" font-weight="400" fill="black">0</text>
  <text dominant-baseline="middle" text-anchor="end" transform="translate(30.5917,301.2591)" font-family="Arial" font-size="12" font-weight="400" fill="black">0.2</text>
  <text dominant-baseline="middle" text-anchor="end" transform="translate(30.5917,244.5864)" font-family="Arial" font-size="12" font-weight="400" fill="black">0.4</text>
  <text dominant-baseline="middle" text-anchor="end" transform="translate(30.5917,187.9136)" font-family="Arial" font-size="12" font-weight="400" fill="black">0.6</text>
  <text dominant-baseline="middle" text-anchor="end" transform="translate(30.5917,131.2409)" font-family="Arial" font-size="12" font-weight="400" fill="black">0.8</text>
  <text dominant-baseline="middle" text-anchor="end" transform="translate(30.5917,74.5682)" font-family="Arial" font-size="12" font-weight="400" fill="black">1</text>
  <polyline points="41.5917,357.9318 34.5917,357.9318" style="fill:none;stroke:black;stroke-width:1" />
  <polyline points="41.5917,301.2591 34.5917,301.2591" style="fill:none;stroke:black;stroke-width:1" />
  <polyline points="41.5917,244.5864 34.5917,244.5864" style="fill:none;stroke:black;stroke-width:1" />
  <polyline points="41.5917,187.9136 34.5917,187.9136" style="fill:none;stroke:black;stroke-width:1" />
  <polyline points="41.5917,131.2409 34.5917,131.2409" style="fill:none;stroke:black;stroke-width:1" />
  <polyline points="41.5917,74.5682 34.5917,74.5682" style="fill:none;stroke:black;stroke-width:1" />
  <text dominant-baseline="hanging" text-anchor="middle" transform="translate(47.7681,376.1)" font-family="Arial" font-size="12" font-weight="400" fill="black">-5</text>
  <text dominant-baseline="hanging" text-anchor="middle" transform="translate(100.4736,376.1)" font-family="Arial" font-size="12" font-weight="400" fill="black">-4</text>
  <text dominant-baseline="hanging" text-anchor="middle" transform="translate(153.1792,376.1)" font-family="Arial" font-size="12" font-weight="400" fill="black">-3</text>
  <text dominant-baseline="hanging" text-anchor="middle" transform="translate(205.8847,376.1)" font-family="Arial" font-size="12" font-weight="400" fill="black">-2</text>
  <text dominant-baseline="hanging" text-anchor="middle" transform="translate(258.5903,376.1)" font-family="Arial" font-size="12" font-weight="400" fill="black">-1</text>
  <text dominant-baseline="hanging" text-anchor="middle" transform="translate(311.2958,376.1)" font-family="Arial" font-size="12" font-weight="400" fill="black">0</text>
  <text dominant-baseline="hanging" text-anchor="middle" transform="translate(364.0014,376.1)" font-family="Arial" font-size="12" font-weight="400" fill="black">1</text>
  <text dominant-baseline="hanging" text-anchor="middle" transform="translate(416.7069,376.1)" font-family="Arial" font-size="12" font-weight="400" fill="black">2</text>
  <text dominant-baseline="hanging" text-anchor="middle" transform="translate(469.4125,376.1)" font-family="Arial" font-size="12" font-weight="400" fill="black">3</text>
  <text dominant-baseline="hanging" text-anchor="middle" transform="translate(522.1181,376.1)" font-family="Arial" font-size="12" font-weight="400" fill="black">4</text>
  <text dominant-baseline="hanging" text-anchor="middle" transform="translate(574.8236,376.1)" font-family="Arial" font-size="12" font-weight="400" fill="black">5</text>
  <polyline points="47.7681,365.1 47.7681,372.1" style="fill:none;stroke:black;stroke-width:1" />
  <polyline points="100.4736,365.1 100.4736,372.1" style="fill:none;stroke:black;stroke-width:1" />
  <polyline points="153.1792,365.1 153.1792,372.1" style="fill:none;stroke:black;stroke-width:1" />
  <polyline points="205.8847,365.1 205.8847,372.1" style="fill:none;stroke:black;stroke-width:1" />
  <polyline points="258.5903,365.1 258.5903,372.1" style="fill:none;stroke:black;stroke-width:1" />
  <polyline points="311.2958,365.1 311.2958,372.1" style="fill:none;stroke:black;stroke-width:1" />
  <polyline points="364.0014,365.1 364.0014,372.1" style="fill:none;stroke:black;stroke-width:1" />
  <polyline points="416.7069,365.1 416.7069,372.1" style="fill:none;stroke:black;stroke-width:1" />
  <polyline points="469.4125,365.1 469.4125,372.1" style="fill:none;stroke:black;stroke-width:1" />
  <polyline points="522.1181,365.1 522.1181,372.1" style="fill:none;stroke:black;stroke-width:1" />
  <polyline points="574.8236,365.1 574.8236,372.1" style="fill:none;stroke:black;stroke-width:1" />
  <polyline points="47.7681,357.9318 48.2951,357.9318 49.8763,357.9318 50.4033,357.9318 51.9845,357.9318 52.5116,357.9318 54.0927,357.9318 54.6198,357.9318 56.2009,357.9318 56.728,357.9318 58.3092,357.9318 58.8362,357.9318 60.4174,357.9318 60.9444,357.9318 62.5256,357.9318 63.0527,357.9318 64.6338,357.9318 65.1609,357.9318 66.7421,357.9318 67.2691,357.9318 68.8503,357.9318 69.3773,357.9318 70.9585,357.9318 71.4856,357.9318 73.0667,357.9318 73.5938,357.9318 75.1749,357.9318 75.702,357.9318 77.2832,357.9318 77.8102,357.9318 79.3914,357.9318 79.9184,357.9318 81.4996,357.9318 82.0267,357.9318 83.6078,357.9318 84.1349,357.9318 85.7161,357.9318 86.2431,357.9318 87.8243,357.9318 88.3513,357.9318 89.9325,357.9318 90.4596,357.9318 92.0407,357.9318 92.5678,357.9318 94.1489,357.9318 94.676,357.9318 96.2572,357.9318 96.7842,357.9318 98.3654,357.9318 98.8924,357.9318 100.4736,357.9318 101.0007,357.9318 102.5818,357.9318 103.1089,357.9318 104.6901,357.9318 105.2171,357.9318 106.7983,357.9318 107.3253,357.9318 108.9065,357.9318 109.4336,357.9318 111.0147,357.9318 111.5418,357.9318 113.1229,357.9318 113.65,357.9318 115.2312,357.9318 115.7582,357.9318 117.3394,357.9318 117.8664,357.9318 119.4476,357.9318 119.9747,357.9318 121.5558,357.9318 122.0829,357.9318 123.6641,357.9318 124.1911,357.9318 125.7723,357.9318 126.2993,357.9318 127.8805,357.9318 128.4076,357.9318 129.9887,357.9318 130.5158,357.9318 132.0969,357.9318 132.624,357.9318 134.2052,357.9318 134.7322,357.9318 136.3134,357.9318 136.8404,357.9318 138.4216,357.9318 138.9487,357.9318 140.5298,357.9318 141.0569,357.9318 142.6381,357.9318 143.1651,357.9318 144.7463,357.9318 145.2733,357.9318 146.8545,357.9318 147.3816,357.9318 148.9627,357.9318 149.4898,357.9318 151.0709,357.9318 151.598,357.9318 153.1792,357.9318 153.7062,357.9318 155.2874,357.9318 155.8144,357.9318 157.3956,357.9318 157.9227,357.9318 159.5038,357.9318 160.0309,357.9318 161.6121,357.9318 162.1391,357.9318 163.7203,357.9318 164.2473,357.9318 165.8285,357.9318 166.3556,357.9318 167.9367,357.9318 168.4638,357.9318 170.0449,357.9318 170.572,357.9318 172.1532,357.9318 172.6802,357.9318 174.2614,357.9318 174.7884,357.9318 176.3696,357.9318 176.8967,357.9318 178.4778,357.9318 179.0049,357.9318 180.5861,357.9318 181.1131,357.9318 182.6943,357.9317 183.2213,357.9317 184.8025,357.9317 185.3296,357.9317 186.9107,357.9316 187.4378,357.9316 189.0189,357.9315 189.546,357.9314 191.1272,357.9312 191.6542,357.9312 193.2354,357.9309 193.7624,357.9308 195.3436,357.9304 195.8707,357.9303 197.4518,357.9296 197.9789,357.9294 199.5601,357.9285 200.0871,357.9281 201.6683,357.9267 202.1953,357.9262 203.7765,357.9242 204.3036,357.9233 205.8847,357.9203 206.4118,357.9191 207.9929,357.9148 208.52,357.913 210.1012,357.9067 210.6282,357.9042 212.2094,357.8951 212.7364,357.8915 214.3176,357.8785 214.8447,357.8734 216.4258,357.8551 216.9529,357.8479 218.5341,357.8223 219.0611,357.8122 220.6423,357.7767 221.1693,357.7628 222.7505,357.7139 223.2776,357.6948 224.8587,357.6281 225.3858,357.6022 226.9669,357.5118 227.494,357.4769 229.0752,357.3557 229.6022,357.3091 231.1834,357.1479 231.7104,357.0862 233.2916,356.8737 233.8187,356.7927 235.3998,356.5149 235.9269,356.4095 237.5081,356.0495 238.0351,355.9135 239.6163,355.4512 240.1433,355.2773 241.7245,354.6888 242.2516,354.4684 243.8327,353.7258 244.3598,353.449 245.9409,352.5204 246.468,352.1757 248.0492,351.025 248.5762,350.5997 249.6303,349.6814 250.1574,349.1866 251.2115,348.1207 251.7386,347.5479 252.7927,346.3172 253.3197,345.6575 254.3738,344.2439 254.9009,343.4881 255.955,341.8729 256.4821,341.0116 257.0091,340.1129 257.5362,339.1759 258.0632,338.1994 258.5903,337.1825 259.1173,336.1242 259.6444,335.0232 260.1714,333.8788 260.6985,332.6898 261.2256,331.4552 261.7526,330.1742 262.2797,328.8457 262.8067,327.4689 263.3338,326.0428 263.8608,324.5667 264.3879,323.0397 264.9149,321.461 265.442,319.83 265.9691,318.146 266.4961,316.4082 267.0232,314.6163 267.5502,312.7696 268.0773,310.8677 268.6043,308.9102 269.1314,306.8968 269.6584,304.8273 270.1855,302.7015 270.7126,300.5194 271.2396,298.2808 271.7667,295.9859 272.2937,293.6349 272.8208,291.2281 273.3478,288.7657 273.8749,286.2483 274.4019,283.6763 274.929,281.0506 275.4561,278.3718 275.9831,275.6408 276.5102,272.8587 277.0372,270.0264 277.5643,267.1452 278.0913,264.2165 278.6184,261.2417 279.1454,258.2223 279.6725,255.16 280.1996,252.0566 280.7266,248.914 281.2537,245.7342 281.7807,242.5195 282.3078,239.2719 282.8348,235.994 283.3619,232.6881 283.8889,229.3569 284.416,226.0031 284.9431,222.6295 285.4701,219.239 285.9972,215.8346 286.5242,212.4194 287.0513,208.9966 287.5783,205.5695 288.1054,202.1414 288.6324,198.7159 289.1595,195.2963 289.6866,191.8864 290.2136,188.4897 290.7407,185.1099 291.2677,181.7509 291.7948,178.4163 292.3218,175.1101 292.8489,171.836 293.3759,168.598 293.903,165.4 294.4301,162.2458 294.9571,159.1393 295.4842,156.0845 296.0112,153.0852 296.5383,150.1452 297.0653,147.2684 297.5924,144.4586 298.1194,141.7194 298.6465,139.0545 299.1736,136.4675 299.7006,133.962 300.2277,131.5413 300.7547,129.2089 301.2818,126.9679 301.8088,124.8216 302.3359,122.7729 302.8629,120.8248 303.39,118.9801 303.9171,117.2414 304.4441,115.6113 304.9712,114.092 305.4982,112.6859 306.0253,111.395 306.5523,110.2211 307.0794,109.1661 307.6064,108.2315 308.1335,107.4187 309.1876,106.163 309.7147,105.722 311.2958,105.1539 311.8229,105.217 313.4041,106.163 313.9311,106.7288 314.9852,108.2315 315.5123,109.1661 316.0393,110.2211 316.5664,111.395 317.0934,112.6859 317.6205,114.092 318.1476,115.6113 318.6746,117.2414 319.2017,118.9801 319.7287,120.8248 320.2558,122.7729 320.7828,124.8216 321.3099,126.9679 321.8369,129.2089 322.364,131.5413 322.8911,133.962 323.4181,136.4675 323.9452,139.0545 324.4722,141.7194 324.9993,144.4586 325.5263,147.2684 326.0534,150.1452 326.5804,153.0852 327.1075,156.0845 327.6346,159.1393 328.1616,162.2458 328.6887,165.4 329.2157,168.598 329.7428,171.836 330.2698,175.1101 330.7969,178.4163 331.3239,181.7509 331.851,185.1099 332.3781,188.4897 332.9051,191.8864 333.4322,195.2963 333.9592,198.7159 334.4863,202.1414 335.0133,205.5695 335.5404,208.9966 336.0674,212.4194 336.5945,215.8346 337.1216,219.239 337.6486,222.6295 338.1757,226.0031 338.7027,229.3569 339.2298,232.6881 339.7568,235.994 340.2839,239.2719 340.8109,242.5195 341.338,245.7342 341.8651,248.914 342.3921,252.0566 342.9192,255.16 343.4462,258.2223 343.9733,261.2417 344.5003,264.2165 345.0274,267.1452 345.5544,270.0264 346.0815,272.8587 346.6086,275.6408 347.1356,278.3718 347.6627,281.0506 348.1897,283.6763 348.7168,286.2483 349.2438,288.7657 349.7709,291.2281 350.2979,293.6349 350.825,295.9859 351.3521,298.2808 351.8791,300.5194 352.4062,302.7015 352.9332,304.8273 353.4603,306.8968 353.9873,308.9102 354.5144,310.8677 355.0414,312.7696 355.5685,314.6163 356.0956,316.4082 356.6226,318.146 357.1497,319.83 357.6767,321.461 358.2038,323.0397 358.7308,324.5667 359.2579,326.0428 359.7849,327.4689 360.312,328.8457 360.8391,330.1742 361.3661,331.4552 361.8932,332.6898 362.4202,333.8788 362.9473,335.0232 363.4743,336.1242 364.0014,337.1825 364.5284,338.1994 365.0555,339.1759 365.5826,340.1129 366.1096,341.0116 367.1637,342.6981 367.6908,343.4881 368.7449,344.9667 369.2719,345.6575 370.3261,346.947 370.8531,347.5479 371.9072,348.6667 372.4343,349.1866 373.4884,350.1522 374.0154,350.5997 375.5966,351.8121 376.1237,352.1757 377.7048,353.1563 378.2319,353.449 379.8131,354.2349 380.3401,354.4684 381.9213,355.0927 382.4483,355.2773 384.0295,355.7688 384.5566,355.9135 386.1377,356.297 386.6648,356.4095 388.2459,356.7061 388.773,356.7927 390.3542,357.0202 390.8812,357.0862 392.4624,357.2591 392.9894,357.3091 394.5706,357.4394 395.0977,357.4769 396.6788,357.5743 397.2059,357.6022 398.7871,357.6743 399.3141,357.6948 400.8953,357.7478 401.4223,357.7628 403.0035,357.8013 403.5306,357.8122 405.1117,357.8401 405.6388,357.8479 407.2199,357.8678 407.747,357.8734 409.3282,357.8875 409.8552,357.8915 411.4364,357.9014 411.9634,357.9042 413.5446,357.9111 414.0717,357.913 415.6528,357.9178 416.1799,357.9191 417.7611,357.9224 418.2881,357.9233 419.8693,357.9256 420.3963,357.9262 421.9775,357.9277 422.5046,357.9281 424.0857,357.9291 424.6128,357.9294 426.1939,357.9301 426.721,357.9303 428.3022,357.9307 428.8292,357.9308 430.4104,357.9311 430.9374,357.9312 432.5186,357.9314 433.0457,357.9314 434.6268,357.9315 435.1539,357.9316 436.7351,357.9316 437.2621,357.9317 438.8433,357.9317 439.3703,357.9317 440.9515,357.9318 441.4786,357.9318 443.0597,357.9318 443.5868,357.9318 445.1679,357.9318 445.695,357.9318 447.2762,357.9318 447.8032,357.9318 449.3844,357.9318 449.9114,357.9318 451.4926,357.9318 452.0197,357.9318 453.6008,357.9318 454.1279,357.9318 455.7091,357.9318 456.2361,357.9318 457.8173,357.9318 458.3443,357.9318 459.9255,357.9318 460.4526,357.9318 462.0337,357.9318 462.5608,357.9318 464.1419,357.9318 464.669,357.9318 466.2502,357.9318 466.7772,357.9318 468.3584,357.9318 468.8854,357.9318 470.4666,357.9318 470.9937,357.9318 472.5748,357.9318 473.1019,357.9318 474.6831,357.9318 475.2101,357.9318 476.7913,357.9318 477.3183,357.9318 478.8995,357.9318 479.4266,357.9318 481.0077,357.9318 481.5348,357.9318 483.1159,357.9318 483.643,357.9318 485.2242,357.9318 485.7512,357.9318 487.3324,357.9318 487.8594,357.9318 489.4406,357.9318 489.9677,357.9318 491.5488,357.9318 492.0759,357.9318 493.6571,357.9318 494.1841,357.9318 495.7653,357.9318 496.2923,357.9318 497.8735,357.9318 498.4006,357.9318 499.9817,357.9318 500.5088,357.9318 502.0899,357.9318 502.617,357.9318 504.1982,357.9318 504.7252,357.9318 506.3064,357.9318 506.8334,357.9318 508.4146,357.9318 508.9417,357.9318 510.5228,357.9318 511.0499,357.9318 512.6311,357.9318 513.1581,357.9318 514.7393,357.9318 515.2663,357.9318 516.8475,357.9318 517.3746,357.9318 518.9557,357.9318 519.4828,357.9318 521.0639,357.9318 521.591,357.9318 523.1722,357.9318 523.6992,357.9318 525.2804,357.9318 525.8074,357.9318 527.3886,357.9318 527.9157,357.9318 529.4968,357.9318 530.0239,357.9318 531.6051,357.9318 532.1321,357.9318 533.7133,357.9318 534.2403,357.9318 535.8215,357.9318 536.3486,357.9318 537.9297,357.9318 538.4568,357.9318 540.0379,357.9318 540.565,357.9318 542.1462,357.9318 542.6732,357.9318 544.2544,357.9318 544.7814,357.9318 546.3626,357.9318 546.8897,357.9318 548.4708,357.9318 548.9979,357.9318 550.5791,357.9318 551.1061,357.9318 552.6873,357.9318 553.2143,357.9318 554.7955,357.9318 555.3226,357.9318 556.9037,357.9318 557.4308,357.9318 559.0119,357.9318 559.539,357.9318 561.1202,357.9318 561.6472,357.9318 563.2284,357.9318 563.7554,357.9318 565.3366,357.9318 565.8637,357.9318 567.4448,357.9318 567.9719,357.9318 569.5531,357.9318 570.0801,357.9318 571.6613,357.9318 572.1883,357.9318 573.7695,357.9318 574.2966,357.9318 574.8236,357.9318" style="fill:none;stroke:rgb(78,154,6);stroke-width:2;stroke-linejoin:bevel" />
  <polyline points="47.7681,357.9314 48.2951,357.9314 49.8763,357.9313 50.4033,357.9313 51.9845,357.9312 52.5116,357.9312 54.0927,357.9311 54.6198,357.931 56.2009,357.9309 56.728,357.9308 58.3092,357.9307 58.8362,357.9306 60.4174,357.9305 60.9444,357.9304 62.5256,357.9302 63.0527,357.9301 64.6338,357.9298 65.1609,357.9297 66.7421,357.9294 67.2691,357.9293 68.8503,357.9289 69.3773,357.9288 70.9585,357.9284 71.4856,357.9282 73.0667,357.9277 73.5938,357.9275 75.1749,357.9269 75.702,357.9266 77.2832,357.9259 77.8102,357.9256 79.3914,357.9248 79.9184,357.9244 81.4996,357.9234 82.0267,357.923 83.6078,357.9218 84.1349,357.9214 85.7161,357.9199 86.2431,357.9194 87.8243,357.9177 88.3513,357.9171 89.9325,357.9151 90.4596,357.9144 92.0407,357.9121 92.5678,357.9112 94.1489,357.9085 94.676,357.9075 96.2572,357.9044 96.7842,357.9032 98.3654,357.8995 98.8924,357.8982 100.4736,357.8939 101.0007,357.8924 102.5818,357.8874 103.1089,357.8856 104.6901,357.8798 105.2171,357.8777 106.7983,357.871 107.3253,357.8686 108.9065,357.8608 109.4336,357.858 111.0147,357.8491 111.5418,357.8459 113.1229,357.8356 113.65,357.8319 115.2312,357.8201 115.7582,357.8158 117.3394,357.8022 117.8664,357.7974 119.4476,357.7818 119.9747,357.7762 121.5558,357.7584 122.0829,357.7521 123.6641,357.7317 124.1911,357.7245 125.7723,357.7013 126.2993,357.6931 127.8805,357.6667 128.4076,357.6573 129.9887,357.6273 130.5158,357.6167 132.0969,357.5827 132.624,357.5706 134.2052,357.5321 134.7322,357.5185 136.3134,357.475 136.8404,357.4596 138.4216,357.4105 138.9487,357.3932 140.5298,357.3379 141.0569,357.3184 142.6381,357.2563 143.1651,357.2343 144.7463,357.1646 145.2733,357.14 146.8545,357.0619 147.3816,357.0344 148.9627,356.9471 149.4898,356.9164 151.0709,356.8189 151.598,356.7846 153.1792,356.676 153.7062,356.6378 155.2874,356.517 155.8144,356.4746 157.3956,356.3405 157.9227,356.2934 159.5038,356.1447 160.0309,356.0926 161.6121,355.9281 162.1391,355.8705 163.7203,355.6889 164.2473,355.6253 165.8285,355.4251 166.3556,355.355 167.9367,355.1347 168.4638,355.0577 170.0449,354.8157 170.572,354.7312 172.1532,354.4659 172.6802,354.3733 174.2614,354.0829 174.7884,353.9817 176.3696,353.6645 176.8967,353.554 178.4778,353.2081 179.0049,353.0878 180.5861,352.7113 181.1131,352.5805 182.6943,352.1715 183.2213,352.0295 184.8025,351.586 185.3296,351.4322 186.9107,350.9522 187.4378,350.7859 189.0189,350.2674 189.546,350.0879 191.1272,349.5288 191.6542,349.3354 193.2354,348.7338 193.7624,348.5259 195.3436,347.8796 195.8707,347.6565 197.4518,346.9637 197.9789,346.7248 199.5601,345.9835 200.0871,345.7281 201.6683,344.9365 202.1953,344.664 203.7765,343.8203 204.3036,343.5302 205.8847,342.6327 206.4118,342.3245 207.9929,341.3718 208.52,341.0448 210.1012,340.0355 210.6282,339.6895 212.2094,338.6224 212.7364,338.2569 214.3176,337.131 214.8447,336.7458 216.4258,335.5602 216.9529,335.155 218.007,334.3296 218.5341,333.9093 219.5882,333.0536 220.1152,332.6182 221.1693,331.7323 221.6964,331.2817 222.7505,330.3656 223.2776,329.8999 224.3317,328.9537 224.8587,328.473 225.9128,327.4968 226.4399,327.0013 227.494,325.9955 228.0211,325.4853 229.0752,324.4503 229.6022,323.9256 230.6563,322.8619 231.1834,322.323 232.2375,321.2312 232.7646,320.6784 233.8187,319.5593 234.3457,318.993 235.3998,317.8472 235.9269,317.2678 236.981,316.0964 237.5081,315.5045 238.5622,314.3085 239.0892,313.7045 240.1433,312.485 240.6704,311.8696 241.7245,310.6279 242.2516,310.0018 243.3057,308.7393 243.8327,308.1031 244.8868,306.8212 245.4139,306.1757 246.468,304.8761 246.9951,304.2222 248.0492,302.9066 248.5762,302.2451 249.6303,300.9152 250.1574,300.2471 251.2115,298.905 251.7386,298.2312 252.7927,296.8788 253.3197,296.2004 254.3738,294.8399 254.9009,294.158 255.955,292.7916 256.4821,292.1073 257.5362,290.7372 258.0632,290.0517 259.1173,288.6805 259.6444,287.995 260.6985,286.625 261.2256,285.9407 262.2797,284.5745 262.8067,283.8928 263.8608,282.5329 264.3879,281.8551 265.442,280.5043 265.9691,279.8316 267.0232,278.4926 267.5502,277.8265 268.6043,276.5019 269.1314,275.8438 270.1855,274.5365 270.7126,273.8876 271.7667,272.6004 272.2937,271.9623 273.3478,270.698 273.8749,270.072 274.929,268.8333 275.4561,268.2209 276.5102,267.0107 277.0372,266.4132 278.0913,265.2342 278.6184,264.6531 279.6725,263.5081 280.1996,262.9446 281.2537,261.8363 281.7807,261.2918 282.8348,260.2229 283.3619,259.6988 284.416,258.6718 284.9431,258.1693 285.9972,257.1868 286.5242,256.7071 287.5783,255.7716 288.1054,255.316 289.1595,254.4297 289.6866,253.9992 290.7407,253.1644 291.2677,252.7603 292.8489,251.6023 293.3759,251.2349 294.9571,250.1895 295.4842,249.8604 297.0653,248.9324 297.5924,248.6432 299.1736,247.8369 299.7006,247.589 301.2818,246.9083 301.8088,246.7027 303.39,246.1507 303.9171,245.9885 305.4982,245.5679 306.0253,245.4499 307.6064,245.1627 308.1335,245.0894 309.7147,244.9369 310.2417,244.9087 311.8229,244.8917 312.3499,244.9087 313.9311,245.0273 314.4582,245.0894 316.0393,245.343 316.5664,245.4499 318.1476,245.8373 318.6746,245.9885 320.2558,246.5078 320.7828,246.7027 322.364,247.3515 322.8911,247.589 324.4722,248.3641 324.9993,248.6432 326.5804,249.5411 327.1075,249.8604 328.6887,250.8768 329.2157,251.2349 330.7969,252.3652 331.3239,252.7603 332.3781,253.5775 332.9051,253.9992 333.9592,254.8686 334.4863,255.316 335.5404,256.2354 336.0674,256.7071 337.1216,257.6743 337.6486,258.1693 338.7027,259.1817 339.2298,259.6988 340.2839,260.754 340.8109,261.2918 341.8651,262.3873 342.3921,262.9446 343.4462,264.0776 343.9733,264.6531 345.0274,265.821 345.5544,266.4132 346.6086,267.6133 347.1356,268.2209 348.1897,269.4504 348.7168,270.072 349.7709,271.3281 350.2979,271.9623 351.3521,273.2422 351.8791,273.8876 352.9332,275.1886 353.4603,275.8438 354.5144,277.1629 355.0414,277.8265 356.0956,279.161 356.6226,279.8316 357.6767,281.1788 358.2038,281.8551 359.2579,283.2122 359.7849,283.8928 360.8391,285.2572 361.3661,285.9407 362.4202,287.3098 362.9473,287.995 364.0014,289.3661 364.5284,290.0517 365.5826,291.4225 366.1096,292.1073 367.1637,293.4752 367.6908,294.158 368.7449,295.5208 369.2719,296.2004 370.3261,297.5558 370.8531,298.2312 371.9072,299.577 372.4343,300.2471 373.4884,301.5812 374.0154,302.2451 375.0696,303.5656 375.5966,304.2222 376.6507,305.5273 377.1778,306.1757 378.2319,307.4637 378.7589,308.1031 379.8131,309.3722 380.3401,310.0018 381.3942,311.2506 381.9213,311.8696 382.9754,313.0967 383.5024,313.7045 384.5566,314.9085 385.0836,315.5045 386.1377,316.6842 386.6648,317.2678 387.7189,318.4223 388.2459,318.993 389.3001,320.1211 389.8271,320.6784 390.8812,321.7794 391.4083,322.323 392.4624,323.3962 392.9894,323.9256 394.0436,324.9702 394.5706,325.4853 395.6247,326.5009 396.1518,327.0013 397.2059,327.9874 397.7329,328.473 398.7871,329.4293 399.3141,329.8999 400.3682,330.8262 400.8953,331.2817 401.9494,332.1778 402.4764,332.6182 403.5306,333.484 404.0576,333.9093 405.1117,334.7448 405.6388,335.155 407.2199,336.3556 407.747,336.7458 409.3282,337.8866 409.8552,338.2569 411.4364,339.3387 411.9634,339.6895 413.5446,340.7132 414.0717,341.0448 415.6528,342.0116 416.1799,342.3245 417.7611,343.2356 418.2881,343.5302 419.8693,344.3872 420.3963,344.664 421.9775,345.4685 422.5046,345.7281 424.0857,346.4818 424.6128,346.7248 426.1939,347.4295 426.721,347.6565 428.3022,348.3142 428.8292,348.5259 430.4104,349.1385 430.9374,349.3354 432.5186,349.905 433.0457,350.0879 434.6268,350.6163 435.1539,350.7859 436.7351,351.2753 437.2621,351.4322 438.8433,351.8846 439.3703,352.0295 440.9515,352.447 441.4786,352.5805 443.0597,352.9649 443.5868,353.0878 445.1679,353.4412 445.695,353.554 447.2762,353.8783 447.8032,353.9817 449.3844,354.2787 449.9114,354.3733 451.4926,354.6448 452.0197,354.7312 453.6008,354.9789 454.1279,355.0577 455.7091,355.2833 456.2361,355.355 457.8173,355.5602 458.3443,355.6253 459.9255,355.8114 460.4526,355.8705 462.0337,356.0391 462.5608,356.0926 464.1419,356.2451 464.669,356.2934 466.2502,356.431 466.7772,356.4746 468.3584,356.5986 468.8854,356.6378 470.4666,356.7494 470.9937,356.7846 472.5748,356.8848 473.1019,356.9164 474.6831,357.0061 475.2101,357.0344 476.7913,357.1147 477.3183,357.14 478.8995,357.2118 479.4266,357.2343 481.0077,357.2983 481.5348,357.3184 483.1159,357.3753 483.643,357.3932 485.2242,357.4437 485.7512,357.4596 487.3324,357.5044 487.8594,357.5185 489.4406,357.5582 489.9677,357.5706 491.5488,357.6057 492.0759,357.6167 493.6571,357.6476 494.1841,357.6573 495.7653,357.6845 496.2923,357.6931 497.8735,357.717 498.4006,357.7245 499.9817,357.7455 500.5088,357.7521 502.0899,357.7705 502.617,357.7762 504.1982,357.7924 504.7252,357.7974 506.3064,357.8115 506.8334,357.8158 508.4146,357.8281 508.9417,357.8319 510.5228,357.8426 511.0499,357.8459 512.6311,357.8552 513.1581,357.858 514.7393,357.8661 515.2663,357.8686 516.8475,357.8755 517.3746,357.8777 518.9557,357.8837 519.4828,357.8856 521.0639,357.8907 521.591,357.8924 523.1722,357.8968 523.6992,357.8982 525.2804,357.902 525.8074,357.9032 527.3886,357.9065 527.9157,357.9075 529.4968,357.9104 530.0239,357.9112 531.6051,357.9137 532.1321,357.9144 533.7133,357.9165 534.2403,357.9171 535.8215,357.9189 536.3486,357.9194 537.9297,357.9209 538.4568,357.9214 540.0379,357.9226 540.565,357.923 542.1462,357.9241 542.6732,357.9244 544.2544,357.9253 544.7814,357.9256 546.3626,357.9264 546.8897,357.9266 548.4708,357.9273 548.9979,357.9275 550.5791,357.928 551.1061,357.9282 552.6873,357.9287 553.2143,357.9288 554.7955,357.9292 555.3226,357.9293 556.9037,357.9296 557.4308,357.9297 559.0119,357.93 559.539,357.9301 561.1202,357.9303 561.6472,357.9304 563.2284,357.9306 563.7554,357.9306 565.3366,357.9308 565.8637,357.9308 567.4448,357.931 567.9719,357.931 569.5531,357.9311 570.0801,357.9312 571.6613,357.9313 572.1883,357.9313 573.7695,357.9314 574.2966,357.9314 574.8236,357.9314" style="fill:none;stroke:rgb(200,141,0);stroke-width:2;stroke-linejoin:bevel" />
  <polyline points="47.7681,353.782 48.2951,353.7403 49.8763,353.6133 50.4033,353.5703 51.9845,353.4392 52.5116,353.3948 54.0927,353.2596 54.6198,353.2138 56.2009,353.0744 56.728,353.0272 58.3092,352.8834 58.8362,352.8348 60.4174,352.6866 60.9444,352.6365 62.5256,352.4839 63.0527,352.4323 64.6338,352.2752 65.1609,352.222 66.7421,352.0603 67.2691,352.0056 68.8503,351.8392 69.3773,351.783 70.9585,351.6119 71.4856,351.554 73.0667,351.3781 73.5938,351.3186 75.1749,351.1379 75.702,351.0768 77.2832,350.8911 77.8102,350.8283 79.3914,350.6377 79.9184,350.5733 81.4996,350.3775 82.0267,350.3115 83.6078,350.1107 84.1349,350.0429 85.7161,349.8369 86.2431,349.7674 87.8243,349.5563 88.3513,349.4851 89.9325,349.2687 90.4596,349.1957 92.0407,348.9741 92.5678,348.8994 94.1489,348.6725 94.676,348.596 96.2572,348.3637 96.7842,348.2854 98.3654,348.0479 98.8924,347.9678 100.4736,347.7248 101.0007,347.6429 102.5818,347.3946 103.1089,347.3109 104.6901,347.0572 105.2171,346.9717 106.7983,346.7125 107.3253,346.6253 108.9065,346.3607 109.4336,346.2716 111.0147,346.0016 111.5418,345.9107 113.1229,345.6353 113.65,345.5426 115.2312,345.2619 115.7582,345.1674 117.3394,344.8812 117.8664,344.785 119.4476,344.4935 119.9747,344.3954 121.5558,344.0986 122.0829,343.9988 123.6641,343.6967 124.1911,343.5951 125.7723,343.2878 126.2993,343.1845 127.8805,342.872 128.4076,342.7669 129.9887,342.4493 130.5158,342.3425 132.0969,342.0198 132.624,341.9114 134.2052,341.5837 134.7322,341.4736 136.3134,341.141 136.8404,341.0293 138.4216,340.6918 138.9487,340.5785 140.5298,340.2363 141.0569,340.1214 142.6381,339.7745 143.1651,339.6581 144.7463,339.3067 145.2733,339.1888 146.8545,338.8329 147.3816,338.7135 148.9627,338.3533 149.4898,338.2325 151.0709,337.8681 151.598,337.7459 153.1792,337.3775 153.7062,337.254 155.2874,336.8815 155.8144,336.7568 157.3956,336.3806 157.9227,336.2546 159.5038,335.8747 160.0309,335.7475 161.6121,335.3643 162.1391,335.2359 163.7203,334.8493 164.2473,334.72 165.8285,334.3302 166.3556,334.1998 167.9367,333.8072 168.4638,333.6758 170.0449,333.2804 170.572,333.1482 172.1532,332.7502 172.6802,332.6172 174.2614,332.2168 174.7884,332.083 176.3696,331.6806 176.8967,331.5461 178.4778,331.1417 179.0049,331.0066 180.5861,330.6005 181.1131,330.4649 182.6943,330.0573 183.2213,329.9212 184.8025,329.5124 185.3296,329.3759 186.9107,328.9661 187.4378,328.8293 189.0189,328.4187 189.546,328.2818 191.1272,327.8707 191.6542,327.7336 193.2354,327.3222 193.7624,327.1851 195.3436,326.7737 195.8707,326.6367 197.4518,326.2256 197.9789,326.0886 199.5601,325.6781 200.0871,325.5414 201.6683,325.1317 202.1953,324.9953 203.7765,324.5866 204.3036,324.4506 205.8847,324.0434 206.4118,323.9079 207.9929,323.5023 208.52,323.3674 210.1012,322.9638 210.6282,322.8296 212.2094,322.4282 212.7364,322.2949 214.3176,321.896 214.8447,321.7635 216.4258,321.3675 216.9529,321.236 218.5341,320.8431 219.0611,320.7127 220.6423,320.3232 221.1693,320.194 222.7505,319.8082 223.2776,319.6803 224.8587,319.2986 225.3858,319.172 226.9669,318.7946 227.494,318.6696 229.0752,318.2968 229.6022,318.1733 231.1834,317.8055 231.7104,317.6837 233.2916,317.321 233.8187,317.2011 235.3998,316.8439 235.9269,316.7258 237.5081,316.3745 238.0351,316.2584 239.6163,315.9132 240.1433,315.7991 241.7245,315.4603 242.2516,315.3485 243.8327,315.0163 244.3598,314.9067 245.9409,314.5815 246.468,314.4743 248.0492,314.1564 248.5762,314.0516 250.1574,313.7412 250.6844,313.639 252.2656,313.3363 252.7927,313.2367 254.3738,312.9421 254.9009,312.8453 256.4821,312.559 257.0091,312.465 258.5903,312.1872 259.1173,312.0961 260.6985,311.8272 261.2256,311.739 262.8067,311.4792 263.3338,311.3941 264.9149,311.1435 265.442,311.0616 267.0232,310.8205 267.5502,310.7417 269.1314,310.5104 269.6584,310.435 271.2396,310.2136 271.7667,310.1415 273.3478,309.9303 273.8749,309.8616 275.4561,309.6607 275.9831,309.5955 277.5643,309.4051 278.0913,309.3435 279.6725,309.1639 280.1996,309.1058 281.7807,308.9371 282.3078,308.8826 283.8889,308.7249 284.416,308.6742 285.9972,308.5277 286.5242,308.4808 288.1054,308.3456 288.6324,308.3024 290.2136,308.1787 290.7407,308.1394 292.3218,308.0272 292.8489,307.9918 294.4301,307.8913 294.9571,307.8597 296.5383,307.771 297.0653,307.7434 298.6465,307.6666 299.1736,307.643 300.7547,307.578 301.2818,307.5584 302.8629,307.5055 303.39,307.4899 304.9712,307.449 305.4982,307.4374 307.0794,307.4086 307.6064,307.401 309.1876,307.3843 309.7147,307.3808 311.2958,307.3762 311.8229,307.3767 313.4041,307.3843 313.9311,307.3889 315.5123,307.4086 316.0393,307.4172 317.6205,307.449 318.1476,307.4616 319.7287,307.5055 320.2558,307.5221 321.8369,307.578 322.364,307.5987 323.9452,307.6666 324.4722,307.6912 326.0534,307.771 326.5804,307.7996 328.1616,307.8913 328.6887,307.9238 330.2698,308.0272 330.7969,308.0636 332.3781,308.1787 332.9051,308.219 334.4863,308.3456 335.0133,308.3897 336.5945,308.5277 337.1216,308.5756 338.7027,308.7249 339.2298,308.7766 340.8109,308.9371 341.338,308.9924 342.9192,309.1639 343.4462,309.2228 345.0274,309.4051 345.5544,309.4677 347.1356,309.6607 347.6627,309.7268 349.2438,309.9303 349.7709,309.9998 351.3521,310.2136 351.8791,310.2865 353.4603,310.5104 353.9873,310.5867 355.5685,310.8205 356.0956,310.9 357.6767,311.1435 358.2038,311.2262 359.7849,311.4792 360.312,311.565 361.8932,311.8272 362.4202,311.9161 364.0014,312.1872 364.5284,312.2791 366.1096,312.559 366.6367,312.6537 368.2178,312.9421 368.7449,313.0396 370.3261,313.3363 370.8531,313.4365 372.4343,313.7412 372.9613,313.844 374.5425,314.1564 375.0696,314.2617 376.6507,314.5815 377.1778,314.6893 378.7589,315.0163 379.286,315.1265 380.8672,315.4603 381.3942,315.5727 382.9754,315.9132 383.5024,316.0277 385.0836,316.3745 385.6107,316.4911 387.1918,316.8439 387.7189,316.9625 389.3001,317.321 389.8271,317.4415 391.4083,317.8055 391.9353,317.9277 393.5165,318.2968 394.0436,318.4206 395.6247,318.7946 396.1518,318.92 397.7329,319.2986 398.26,319.4255 399.8412,319.8082 400.3682,319.9365 401.9494,320.3232 402.4764,320.4527 404.0576,320.8431 404.5847,320.9738 406.1658,321.3675 406.6929,321.4992 408.2741,321.896 408.8011,322.0287 410.3823,322.4282 410.9093,322.5618 412.4905,322.9638 413.0176,323.0982 414.5987,323.5023 415.1258,323.6374 416.7069,324.0434 417.234,324.179 418.8152,324.5866 419.3422,324.7227 420.9234,325.1317 421.4504,325.2681 423.0316,325.6781 423.5587,325.8149 425.1398,326.2256 425.6669,326.3626 427.2481,326.7737 427.7751,326.9108 429.3563,327.3222 429.8833,327.4594 431.4645,327.8707 431.9916,328.0077 433.5727,328.4187 434.0998,328.5557 435.6809,328.9661 436.208,329.1028 437.7892,329.5124 438.3162,329.6487 439.8974,330.0573 440.4244,330.1933 442.0056,330.6005 442.5327,330.736 444.1138,331.1417 444.6409,331.2766 446.2221,331.6806 446.7491,331.8149 448.3303,332.2168 448.8573,332.3505 450.4385,332.7502 450.9656,332.8831 452.5467,333.2804 453.0738,333.4124 454.6549,333.8072 455.182,333.9383 456.7632,334.3302 457.2902,334.4604 458.8714,334.8493 459.3984,334.9785 460.9796,335.3643 461.5067,335.4923 463.0878,335.8747 463.6149,336.0016 465.1961,336.3806 465.7231,336.5063 467.3043,336.8815 467.8313,337.006 469.4125,337.3775 469.9396,337.5006 471.5207,337.8681 472.0478,337.9899 473.6289,338.3533 474.156,338.4737 475.7372,338.8329 476.2642,338.9519 477.8454,339.3067 478.3724,339.4242 479.9536,339.7745 480.4807,339.8905 482.0618,340.2363 482.5889,340.3507 484.1701,340.6918 484.6971,340.8047 486.2783,341.141 486.8053,341.2523 488.3865,341.5837 488.9136,341.6933 490.4947,342.0198 491.0218,342.1278 492.6029,342.4493 493.13,342.5556 494.7112,342.872 495.2382,342.9766 496.8194,343.2878 497.3464,343.3907 498.9276,343.6967 499.4547,343.7978 501.0358,344.0986 501.5629,344.198 503.1441,344.4935 503.6711,344.5911 505.2523,344.8812 505.7793,344.9771 507.3605,345.2619 507.8876,345.3559 509.4687,345.6353 509.9958,345.7276 511.5769,346.0016 512.104,346.0921 513.6852,346.3607 514.2122,346.4493 515.7934,346.7125 516.3204,346.7994 517.9016,347.0572 518.4287,347.1422 520.0098,347.3946 520.5369,347.4778 522.1181,347.7248 522.6451,347.8063 524.2263,348.0479 524.7533,348.1275 526.3345,348.3637 526.8616,348.4416 528.4427,348.6725 528.9698,348.7485 530.5509,348.9741 531.078,349.0484 532.6592,349.2687 533.1862,349.3413 534.7674,349.5563 535.2944,349.6271 536.8756,349.8369 537.4027,349.906 538.9838,350.1107 539.5109,350.178 541.0921,350.3775 541.6191,350.4432 543.2003,350.6377 543.7273,350.7016 545.3085,350.8911 545.8356,350.9534 547.4167,351.1379 547.9438,351.1985 549.5249,351.3781 550.052,351.4371 551.6332,351.6119 552.1602,351.6693 553.7414,351.8392 554.2684,351.8951 555.8496,352.0603 556.3767,352.1146 557.9578,352.2752 558.4849,352.3279 560.0661,352.4839 560.5931,352.5351 562.1743,352.6866 562.7013,352.7364 564.2825,352.8834 564.8096,352.9317 566.3907,353.0744 566.9178,353.1212 568.4989,353.2596 569.026,353.305 570.6072,353.4392 571.1342,353.4832 572.7154,353.6133 573.2424,353.656 574.2966,353.7403 574.8236,353.782" style="fill:none;stroke:rgb(204,0,0);stroke-width:2;stroke-linejoin:bevel" />
  <polyline points="47.7681,357.9121 48.2951,357.9109 49.8763,357.9068 50.4033,357.9053 51.9845,357.9001 52.5116,357.8982 54.0927,357.8919 54.6198,357.8895 56.2009,357.8816 56.728,357.8787 58.3092,357.8689 58.8362,357.8653 60.4174,357.8532 60.9444,357.8488 62.5256,357.8339 63.0527,357.8285 64.6338,357.8103 65.1609,357.8037 66.7421,357.7815 67.2691,357.7734 68.8503,357.7465 69.3773,357.7366 70.9585,357.704 71.4856,357.6921 73.0667,357.6527 73.5938,357.6383 75.1749,357.5909 75.702,357.5736 77.2832,357.5167 77.8102,357.496 79.3914,357.428 79.9184,357.4033 81.4996,357.3224 82.0267,357.293 83.6078,357.1969 84.1349,357.1621 85.7161,357.0485 86.2431,357.0073 87.8243,356.8734 88.3513,356.825 89.9325,356.6677 90.4596,356.611 92.0407,356.4269 92.5678,356.3606 94.1489,356.1458 94.676,356.0687 96.2572,355.8191 96.7842,355.7296 98.3654,355.4406 98.8924,355.3371 100.4736,355.0037 101.0007,354.8845 102.5818,354.5011 103.1089,354.3643 104.6901,353.9251 105.2171,353.7687 106.7983,353.2674 107.3253,353.0892 108.9065,352.519 109.4336,352.3167 111.0147,351.6707 111.5418,351.4418 113.1229,350.7125 113.65,350.4546 115.2312,349.6342 115.7582,349.3447 117.3394,348.4254 117.8664,348.1016 119.4476,347.0753 119.9747,346.7144 121.5558,345.573 122.0829,345.1724 123.137,344.34 123.6641,343.9079 124.7182,343.0109 125.2452,342.5457 126.2993,341.5812 126.8264,341.0816 127.8805,340.0468 128.4076,339.5113 129.4617,338.4035 129.9887,337.8309 131.0428,336.6476 131.5699,336.0366 132.624,334.7755 133.1511,334.1251 134.2052,332.7841 134.7322,332.0933 135.7863,330.6706 136.3134,329.9385 137.3675,328.4325 137.8946,327.6585 138.9487,326.0682 139.4757,325.2517 140.5298,323.5762 141.0569,322.717 141.5839,321.8436 142.111,320.9559 142.6381,320.054 143.1651,319.1378 143.6922,318.2074 144.2192,317.2628 144.7463,316.3041 145.2733,315.3313 145.8004,314.3445 146.3274,313.3438 146.8545,312.3292 147.3816,311.3008 147.9086,310.2588 148.4357,309.2032 148.9627,308.1343 149.4898,307.052 150.0168,305.9567 150.5439,304.8483 151.0709,303.7272 151.598,302.5935 152.1251,301.4473 152.6521,300.289 153.1792,299.1186 153.7062,297.9365 154.2333,296.7429 154.7603,295.538 155.2874,294.3221 155.8144,293.0955 156.3415,291.8584 156.8686,290.6112 157.3956,289.3542 157.9227,288.0877 158.4497,286.812 158.9768,285.5275 159.5038,284.2345 160.0309,282.9335 160.5579,281.6247 161.085,280.3086 161.6121,278.9857 162.1391,277.6562 162.6662,276.3207 163.1932,274.9795 163.7203,273.6331 164.2473,272.2821 164.7744,270.9268 165.3014,269.5677 165.8285,268.2053 166.3556,266.8402 166.8826,265.4727 167.4097,264.1036 167.9367,262.7331 168.4638,261.362 168.9908,259.9907 169.5179,258.6199 170.0449,257.2499 170.572,255.8815 171.0991,254.5152 171.6261,253.1515 172.1532,251.7911 172.6802,250.4345 173.2073,249.0823 173.7343,247.7352 174.2614,246.3937 174.7884,245.0585 175.3155,243.7301 175.8426,242.4092 176.3696,241.0964 176.8967,239.7923 177.4237,238.4976 177.9508,237.2128 178.4778,235.9385 179.0049,234.6755 179.5319,233.4243 180.059,232.1856 180.5861,230.9599 181.1131,229.7479 181.6402,228.5502 182.1672,227.3675 182.6943,226.2003 183.2213,225.0492 183.7484,223.9149 184.2754,222.7979 184.8025,221.6989 185.3296,220.6184 185.8566,219.557 186.3837,218.5153 186.9107,217.4938 187.4378,216.4932 187.9648,215.5139 188.4919,214.5565 189.0189,213.6215 189.546,212.7095 190.0731,211.8209 190.6001,210.9563 191.6542,209.3009 192.1813,208.5111 193.2354,207.0094 193.7624,206.2984 194.8166,204.9581 195.3436,204.3296 196.3977,203.1578 196.9248,202.6151 197.9789,201.6179 198.5059,201.164 200.0871,199.9838 200.6142,199.6517 202.1953,198.8425 202.7224,198.6355 204.3036,198.2048 204.8306,198.1249 206.4118,198.077 206.9388,198.1249 208.52,198.4602 209.0471,198.6355 210.6282,199.3507 211.1553,199.6517 212.7364,200.7401 213.2635,201.164 214.3176,202.1018 214.8447,202.6151 215.8988,203.7294 216.4258,204.3296 217.4799,205.6145 218.007,206.2984 219.0611,207.7471 219.5882,208.5111 220.6423,210.1161 221.1693,210.9563 221.6964,211.8209 222.2234,212.7095 222.7505,213.6215 223.2776,214.5565 223.8046,215.5139 224.3317,216.4932 224.8587,217.4938 225.3858,218.5153 225.9128,219.557 226.4399,220.6184 226.9669,221.6989 227.494,222.7979 228.0211,223.9149 228.5481,225.0492 229.0752,226.2003 229.6022,227.3675 230.1293,228.5502 230.6563,229.7479 231.1834,230.9599 231.7104,232.1856 232.2375,233.4243 232.7646,234.6755 233.2916,235.9385 233.8187,237.2128 234.3457,238.4976 234.8728,239.7923 235.3998,241.0964 235.9269,242.4092 236.4539,243.7301 236.981,245.0585 237.5081,246.3937 238.0351,247.7352 238.5622,249.0823 239.0892,250.4345 239.6163,251.7911 240.1433,253.1515 240.6704,254.5152 241.1974,255.8815 241.7245,257.2499 242.2516,258.6199 242.7786,259.9907 243.3057,261.362 243.8327,262.7331 244.3598,264.1036 244.8868,265.4727 245.4139,266.8402 245.9409,268.2053 246.468,269.5677 246.9951,270.9268 247.5221,272.2821 248.0492,273.6331 248.5762,274.9795 249.1033,276.3207 249.6303,277.6562 250.1574,278.9857 250.6844,280.3086 251.2115,281.6247 251.7386,282.9335 252.2656,284.2345 252.7927,285.5275 253.3197,286.812 253.8468,288.0877 254.3738,289.3542 254.9009,290.6112 255.4279,291.8584 255.955,293.0955 256.4821,294.3221 257.0091,295.538 257.5362,296.7429 258.0632,297.9365 258.5903,299.1186 259.1173,300.289 259.6444,301.4473 260.1714,302.5935 260.6985,303.7272 261.2256,304.8483 261.7526,305.9567 262.2797,307.052 262.8067,308.1343 263.3338,309.2032 263.8608,310.2588 264.3879,311.3008 264.9149,312.3292 265.442,313.3438 265.9691,314.3445 266.4961,315.3313 267.0232,316.3041 267.5502,317.2628 268.0773,318.2074 268.6043,319.1378 269.1314,320.054 269.6584,320.9559 270.1855,321.8436 270.7126,322.717 271.2396,323.5762 271.7667,324.4211 272.8208,326.0682 273.3478,326.8704 274.4019,328.4325 274.929,329.1925 275.9831,330.6706 276.5102,331.3888 277.5643,332.7841 278.0913,333.4614 279.1454,334.7755 279.6725,335.4127 280.7266,336.6476 281.2537,337.2456 282.3078,338.4035 282.8348,338.9636 283.8889,340.0468 284.416,340.5701 285.4701,341.5812 285.9972,342.0692 287.0513,343.0109 287.5783,343.4649 288.6324,344.34 289.1595,344.7615 290.7407,345.9635 291.2677,346.3439 292.8489,347.4267 293.3759,347.7687 294.9571,348.7404 295.4842,349.0468 297.0653,349.9156 297.5924,350.189 299.1736,350.9629 299.7006,351.2059 301.2818,351.8927 301.8088,352.1079 303.39,352.7151 303.9171,352.9051 305.4982,353.44 306.0253,353.607 307.6064,354.0765 308.1335,354.2228 309.7147,354.6333 310.2417,354.7611 311.8229,355.1188 312.3499,355.2299 313.9311,355.5405 314.4582,355.6367 316.0393,355.9054 316.5664,355.9886 318.1476,356.2202 318.6746,356.2917 320.2558,356.4906 320.7828,356.552 322.364,356.7222 322.8911,356.7747 324.4722,356.9199 324.9993,356.9645 326.5804,357.0879 327.1075,357.1258 328.6887,357.2303 329.2157,357.2623 330.7969,357.3505 331.3239,357.3775 332.9051,357.4517 333.4322,357.4743 335.0133,357.5365 335.5404,357.5555 337.1216,357.6074 337.6486,357.6232 339.2298,357.6664 339.7568,357.6795 341.338,357.7154 341.8651,357.7263 343.4462,357.7559 343.9733,357.7649 345.5544,357.7893 346.0815,357.7967 347.6627,357.8167 348.1897,357.8227 349.7709,357.8391 350.2979,357.8441 351.8791,357.8574 352.4062,357.8615 353.9873,357.8723 354.5144,357.8756 356.0956,357.8844 356.6226,357.887 358.2038,357.8941 358.7308,357.8962 360.312,357.9019 360.8391,357.9036 362.4202,357.9082 362.9473,357.9096 364.5284,357.9132 365.0555,357.9143 366.6367,357.9172 367.1637,357.9181 368.7449,357.9204 369.2719,357.9211 370.8531,357.9229 371.3802,357.9235 372.9613,357.9249 373.4884,357.9253 375.0696,357.9265 375.5966,357.9268 377.1778,357.9277 377.7048,357.9279 379.286,357.9286 379.8131,357.9288 381.3942,357.9294 381.9213,357.9295 383.5024,357.93 384.0295,357.9301 385.6107,357.9304 386.1377,357.9305 387.7189,357.9307 388.2459,357.9308 389.8271,357.931 390.3542,357.9311 391.9353,357.9312 392.4624,357.9312 394.0436,357.9314 394.5706,357.9314 396.1518,357.9315 396.6788,357.9315 398.26,357.9316 398.7871,357.9316 400.3682,357.9316 400.8953,357.9316 402.4764,357.9317 403.0035,357.9317 404.5847,357.9317 405.1117,357.9317 406.6929,357.9317 407.2199,357.9317 408.8011,357.9318 409.3282,357.9318 410.9093,357.9318 411.4364,357.9318 413.0176,357.9318 413.5446,357.9318 415.1258,357.9318 415.6528,357.9318 417.234,357.9318 417.7611,357.9318 419.3422,357.9318 419.8693,357.9318 421.4504,357.9318 421.9775,357.9318 423.5587,357.9318 424.0857,357.9318 425.6669,357.9318 426.1939,357.9318 427.7751,357.9318 428.3022,357.9318 429.8833,357.9318 430.4104,357.9318 431.9916,357.9318 432.5186,357.9318 434.0998,357.9318 434.6268,357.9318 436.208,357.9318 436.7351,357.9318 438.3162,357.9318 438.8433,357.9318 440.4244,357.9318 440.9515,357.9318 442.5327,357.9318 443.0597,357.9318 444.6409,357.9318 445.1679,357.9318 446.7491,357.9318 447.2762,357.9318 448.8573,357.9318 449.3844,357.9318 450.9656,357.9318 451.4926,357.9318 453.0738,357.9318 453.6008,357.9318 455.182,357.9318 455.7091,357.9318 457.2902,357.9318 457.8173,357.9318 459.3984,357.9318 459.9255,357.9318 461.5067,357.9318 462.0337,357.9318 463.6149,357.9318 464.1419,357.9318 465.7231,357.9318 466.2502,357.9318 467.8313,357.9318 468.3584,357.9318 469.9396,357.9318 470.4666,357.9318 472.0478,357.9318 472.5748,357.9318 474.156,357.9318 474.6831,357.9318 476.2642,357.9318 476.7913,357.9318 478.3724,357.9318 478.8995,357.9318 480.4807,357.9318 481.0077,357.9318 482.5889,357.9318 483.1159,357.9318 484.6971,357.9318 485.2242,357.9318 486.8053,357.9318 487.3324,357.9318 488.9136,357.9318 489.4406,357.9318 491.0218,357.9318 491.5488,357.9318 493.13,357.9318 493.6571,357.9318 495.2382,357.9318 495.7653,357.9318 497.3464,357.9318 497.8735,357.9318 499.4547,357.9318 499.9817,357.9318 501.5629,357.9318 502.0899,357.9318 503.6711,357.9318 504.1982,357.9318 505.7793,357.9318 506.3064,357.9318 507.8876,357.9318 508.4146,357.9318 509.9958,357.9318 510.5228,357.9318 512.104,357.9318 512.6311,357.9318 514.2122,357.9318 514.7393,357.9318 516.3204,357.9318 516.8475,357.9318 518.4287,357.9318 518.9557,357.9318 520.5369,357.9318 521.0639,357.9318 522.6451,357.9318 523.1722,357.9318 524.7533,357.9318 525.2804,357.9318 526.8616,357.9318 527.3886,357.9318 528.9698,357.9318 529.4968,357.9318 531.078,357.9318 531.6051,357.9318 533.1862,357.9318 533.7133,357.9318 535.2944,357.9318 535.8215,357.9318 537.4027,357.9318 537.9297,357.9318 539.5109,357.9318 540.0379,357.9318 541.6191,357.9318 542.1462,357.9318 543.7273,357.9318 544.2544,357.9318 545.8356,357.9318 546.3626,357.9318 547.9438,357.9318 548.4708,357.9318 550.052,357.9318 550.5791,357.9318 552.1602,357.9318 552.6873,357.9318 554.2684,357.9318 554.7955,357.9318 556.3767,357.9318 556.9037,357.9318 558.4849,357.9318 559.0119,357.9318 560.5931,357.9318 561.1202,357.9318 562.7013,357.9318 563.2284,357.9318 564.8096,357.9318 565.3366,357.9318 566.9178,357.9318 567.4448,357.9318 569.026,357.9318 569.5531,357.9318 571.1342,357.9318 571.6613,357.9318 573.2424,357.9318 573.7695,357.9318 574.2966,357.9318 574.8236,357.9318" style="fill:none;stroke:rgb(32,74,135);stroke-width:2;stroke-linejoin:bevel" />
  <text dominant-baseline="hanging" text-anchor="middle" transform="translate(311.2958,8)" font-family="Arial" font-size="18" font-weight="700" fill="black">Normal distribution</text>
  <text dominant-baseline="hanging" text-anchor="middle" transform="translate(311.2958,31.85)" font-family="Arial" font-size="14" font-weight="400" fill="black">Probability density function</text>
  <polygon points="34.5917,60.4 588,60.4 588,372.1 34.5917,372.1" style="fill:none;stroke:black;stroke-width:1" />
  <polygon points="487.7333,68.4 580,68.4 580,148 487.7333,148" style="fill:none;stroke:none;" />
  <text dominant-baseline="hanging" text-anchor="start" transform="translate(515.7333,76.4)" font-family="Arial" font-size="12" font-weight="400" fill="black">N(0,0.2)</text>
  <polyline points="495.7333,84.35 511.7333,84.35" style="fill:none;stroke:rgb(78,154,6);stroke-width:2" />
  <text dominant-baseline="hanging" text-anchor="start" transform="translate(515.7333,92.3)" font-family="Arial" font-size="12" font-weight="400" fill="black">N(0,1)</text>
  <polyline points="495.7333,100.25 511.7333,100.25" style="fill:none;stroke:rgb(200,141,0);stroke-width:2" />
  <text dominant-baseline="hanging" text-anchor="start" transform="translate(515.7333,108.2)" font-family="Arial" font-size="12" font-weight="400" fill="black">N(0,5)</text>
  <polyline points="495.7333,116.15 511.7333,116.15" style="fill:none;stroke:rgb(204,0,0);stroke-width:2" />
  <text dominant-baseline="hanging" text-anchor="start" transform="translate(515.7333,124.1)" font-family="Arial" font-size="12" font-weight="400" fill="black">N(-2,0.5)</text>
  <polyline points="495.7333,132.05 511.7333,132.05" style="fill:none;stroke:rgb(32,74,135);stroke-width:2" />
</svg>