<?xml version="1.0" encoding="utf-8" standalone="no"?>
<!DOCTYPE svg PUBLIC "-//W3C//DTD SVG 1.1//EN" "http://www.w3.org/Graphics/SVG/1.1/DTD/svg11.dtd">
<svg width="600" height="400" version="1.1" xmlns:xlink="http://www.w3.org/1999/xlink" xmlns="http://www.w3.org/2000/svg">
  <polyline points="48.5786,362.375 48.5786,366.375" style="fill:none;stroke:black;stroke-width:1" />
  <polyline points="62.2698,362.375 62.2698,366.375" style="fill:none;stroke:black;stroke-width:1" />
  <polyline points="75.9609,362.375 75.9609,366.375" style="fill:none;stroke:black;stroke-width:1" />
  <polyline points="89.6521,362.375 89.6521,366.375" style="fill:none;stroke:black;stroke-width:1" />
  <polyline points="117.0344,362.375 117.0344,366.375" style="fill:none;stroke:black;stroke-width:1" />
  <polyline points="130.7256,362.375 130.7256,366.375" style="fill:none;stroke:black;stroke-width:1" />
  <polyline points="144.4167,362.375 144.4167,366.375" style="fill:none;stroke:black;stroke-width:1" />
  <polyline points="158.1079,362.375 158.1079,366.375" style="fill:none;stroke:black;stroke-width:1" />
  <polyline points="185.4902,362.375 185.4902,366.375" style="fill:none;stroke:black;stroke-width:1" />
  <polyline points="199.1813,362.375 199.1813,366.375" style="fill:none;stroke:black;stroke-width:1" />
  <polyline points="212.8725,362.375 212.8725,366.375" style="fill:none;stroke:black;stroke-width:1" />
  <polyline points="226.5636,362.375 226.5636,366.375" style="fill:none;stroke:black;stroke-width:1" />
  <polyline points="253.9459,362.375 253.9459,366.375" style="fill:none;stroke:black;stroke-width:1" />
  <polyline points="267.6371,362.375 267.6371,366.375" style="fill:none;stroke:black;stroke-width:1" />
  <polyline points="281.3282,362.375 281.3282,366.375" style="fill:none;stroke:black;stroke-width:1" />
  <polyline points="295.0194,362.375 295.0194,366.375" style="fill:none;stroke:black;stroke-width:1" />
  <polyline points="322.4017,362.375 322.4017,366.375" style="fill:none;stroke:black;stroke-width:1" />
  <polyline points="336.0929,362.375 336.0929,366.375" style="fill:none;stroke:black;stroke-width:1" />
  <polyline points="349.784,362.375 349.784,366.375" style="fill:none;stroke:black;stroke-width:1" />
  <polyline points="363.4752,362.375 363.4752,366.375" style="fill:none;stroke:black;stroke-width:1" />
  <polyline points="390.8575,362.375 390.8575,366.375" style="fill:none;stroke:black;stroke-width:1" />
  <polyline points="404.5486,362.375 404.5486,366.375" style="fill:none;stroke:black;stroke-width:1" />
  <polyline points="418.2398,362.375 418.2398,366.375" style="fill:none;stroke:black;stroke-width:1" />
  <polyline points="431.9309,362.375 431.9309,366.375" style="fill:none;stroke:black;stroke-width:1" />
  <polyline points="459.3132,362.375 459.3132,366.375" style="fill:none;stroke:black;stroke-width:1" />
  <polyline points="473.0044,362.375 473.0044,366.375" style="fill:none;stroke:black;stroke-width:1" />
  <polyline points="486.6955,362.375 486.6955,366.375" style="fill:none;stroke:black;stroke-width:1" />
  <polyline points="500.3867,362.375 500.3867,366.375" style="fill:none;stroke:black;stroke-width:1" />
  <polyline points="527.769,362.375 527.769,366.375" style="fill:none;stroke:black;stroke-width:1" />
  <polyline points="541.4601,362.375 541.4601,366.375" style="fill:none;stroke:black;stroke-width:1" />
  <polyline points="555.1513,362.375 555.1513,366.375" style="fill:none;stroke:black;stroke-width:1" />
  <polyline points="568.8425,362.375 568.8425,366.375" style="fill:none;stroke:black;stroke-width:1" />
  <polyline points="30.3729,346.0603 26.3729,346.0603" style="fill:none;stroke:black;stroke-width:1" />
  <polyline points="30.3729,331.5601 26.3729,331.5601" style="fill:none;stroke:black;stroke-width:1" />
  <polyline points="30.3729,317.0599 26.3729,317.0599" style="fill:none;stroke:black;stroke-width:1" />
  <polyline points="30.3729,302.5596 26.3729,302.5596" style="fill:none;stroke:black;stroke-width:1" />
  <polyline points="30.3729,273.5591 26.3729,273.5591" style="fill:none;stroke:black;stroke-width:1" />
  <polyline points="30.3729,259.0589 26.3729,259.0589" style="fill:none;stroke:black;stroke-width:1" />
  <polyline points="30.3729,244.5586 26.3729,244.5586" style="fill:none;stroke:black;stroke-width:1" />
  <polyline points="30.3729,230.0584 26.3729,230.0584" style="fill:none;stroke:black;stroke-width:1" />
  <polyline points="30.3729,201.0579 26.3729,201.0579" style="fill:none;stroke:black;stroke-width:1" />
  <polyline points="30.3729,186.5576 26.3729,186.5576" style="fill:none;stroke:black;stroke-width:1" />
  <polyline points="30.3729,172.0574 26.3729,172.0574" style="fill:none;stroke:black;stroke-width:1" />
  <polyline points="30.3729,157.5571 26.3729,157.5571" style="fill:none;stroke:black;stroke-width:1" />
  <polyline points="30.3729,128.5567 26.3729,128.5567" style="fill:none;stroke:black;stroke-width:1" />
  <polyline points="30.3729,114.0564 26.3729,114.0564" style="fill:none;stroke:black;stroke-width:1" />
  <polyline points="30.3729,99.5562 26.3729,99.5562" style="fill:none;stroke:black;stroke-width:1" />
  <polyline points="30.3729,85.0559 26.3729,85.0559" style="fill:none;stroke:black;stroke-width:1" />
  <text dominant-baseline="hanging" text-anchor="middle" transform="translate(34.8875,373.375)" font-family="Segoe UI" font-size="12" font-weight="400" fill="black">0</text>
  <text dominant-baseline="hanging" text-anchor="middle" transform="translate(103.3432,373.375)" font-family="Segoe UI" font-size="12" font-weight="400" fill="black">5</text>
  <text dominant-baseline="hanging" text-anchor="middle" transform="translate(171.799,373.375)" font-family="Segoe UI" font-size="12" font-weight="400" fill="black">10</text>
  <text dominant-baseline="hanging" text-anchor="middle" transform="translate(240.2548,373.375)" font-family="Segoe UI" font-size="12" font-weight="400" fill="black">15</text>
  <text dominant-baseline="hanging" text-anchor="middle" transform="translate(308.7105,373.375)" font-family="Segoe UI" font-size="12" font-weight="400" fill="black">20</text>
  <text dominant-baseline="hanging" text-anchor="middle" transform="translate(377.1663,373.375)" font-family="Segoe UI" font-size="12" font-weight="400" fill="black">25</text>
  <text dominant-baseline="hanging" text-anchor="middle" transform="translate(445.6221,373.375)" font-family="Segoe UI" font-size="12" font-weight="400" fill="black">30</text>
  <text dominant-baseline="hanging" text-anchor="middle" transform="translate(514.0778,373.375)" font-family="Segoe UI" font-size="12" font-weight="400" fill="black">35</text>
  <text dominant-baseline="hanging" text-anchor="middle" transform="translate(582.5336,373.375)" font-family="Segoe UI" font-size="12" font-weight="400" fill="black">40</text>
  <polyline points="34.8875,362.375 34.8875,369.375" style="fill:none;stroke:black;stroke-width:1" />
  <polyline points="103.3432,362.375 103.3432,369.375" style="fill:none;stroke:black;stroke-width:1" />
  <polyline points="171.799,362.375 171.799,369.375" style="fill:none;stroke:black;stroke-width:1" />
  <polyline points="240.2548,362.375 240.2548,369.375" style="fill:none;stroke:black;stroke-width:1" />
  <polyline points="308.7105,362.375 308.7105,369.375" style="fill:none;stroke:black;stroke-width:1" />
  <polyline points="377.1663,362.375 377.1663,369.375" style="fill:none;stroke:black;stroke-width:1" />
  <polyline points="445.6221,362.375 445.6221,369.375" style="fill:none;stroke:black;stroke-width:1" />
  <polyline points="514.0778,362.375 514.0778,369.375" style="fill:none;stroke:black;stroke-width:1" />
  <polyline points="582.5336,362.375 582.5336,369.375" style="fill:none;stroke:black;stroke-width:1" />
  <text dominant-baseline="middle" text-anchor="end" transform="translate(19.3729,360.5606)" font-family="Segoe UI" font-size="12" font-weight="400" fill="black">0</text>
  <text dominant-baseline="middle" text-anchor="end" transform="translate(19.3729,288.0594)" font-family="Segoe UI" font-size="12" font-weight="400" fill="black">2</text>
  <text dominant-baseline="middle" text-anchor="end" transform="translate(19.3729,215.5581)" font-family="Segoe UI" font-size="12" font-weight="400" fill="black">4</text>
  <text dominant-baseline="middle" text-anchor="end" transform="translate(19.3729,143.0569)" font-family="Segoe UI" font-size="12" font-weight="400" fill="black">6</text>
  <text dominant-baseline="middle" text-anchor="end" transform="translate(19.3729,70.5557)" font-family="Segoe UI" font-size="12" font-weight="400" fill="black">8</text>
  <polyline points="30.3729,360.5606 23.3729,360.5606" style="fill:none;stroke:black;stroke-width:1" />
  <polyline points="30.3729,288.0594 23.3729,288.0594" style="fill:none;stroke:black;stroke-width:1" />
  <polyline points="30.3729,215.5581 23.3729,215.5581" style="fill:none;stroke:black;stroke-width:1" />
  <polyline points="30.3729,143.0569 23.3729,143.0569" style="fill:none;stroke:black;stroke-width:1" />
  <polyline points="30.3729,70.5557 23.3729,70.5557" style="fill:none;stroke:black;stroke-width:1" />
  <polyline points="34.9483,360.496 35.0093,360.431 36.3143,358.9753 36.3777,358.9017 37.6015,357.4319 37.667,357.3508 38.8644,355.8294 38.9319,355.7415 40.0967,354.1936 40.1662,354.0995 41.2927,352.5477 41.364,352.4479 42.4468,350.9123 42.5199,350.8074 43.6286,349.1965 43.7034,349.0867 44.7616,347.5176 44.838,347.4034 45.919,345.7734 45.997,345.6549 47.0211,344.0888 47.1006,343.9664 48.1443,342.3515 48.2254,342.2254 49.2887,340.5636 49.3713,340.4341 50.3704,338.8601 50.4543,338.7274 51.4702,337.1164 51.5556,336.9807 52.5884,335.3344 52.6751,335.1957 53.7248,333.5155 53.8129,333.3742 54.7899,331.8055 54.8794,331.6616 55.8706,330.0668 55.9614,329.9207 56.9669,328.3009 57.059,328.1526 58.0787,326.5091 58.1721,326.3586 59.2061,324.6926 59.3007,324.5401 60.349,322.8528 60.4449,322.6985 61.4103,321.147 61.5074,320.991 62.4847,319.4237 62.583,319.2662 63.5722,317.684 63.6717,317.525 64.6727,315.9288 64.7734,315.7685 65.7863,314.1592 65.8882,313.9977 66.913,312.3762 67.016,312.2135 68.0527,310.5809 68.1569,310.4171 69.2055,308.7741 69.3109,308.6093 70.3713,306.957 70.478,306.7913 71.5503,305.1305 71.6581,304.964 72.7423,303.2956 72.8513,303.1285 73.8372,301.6212 73.9473,301.4535 74.943,299.9415 75.0542,299.7733 76.0596,298.2573 76.1718,298.0887 77.1869,296.5693 77.3002,296.4003 78.3251,294.8783 78.4395,294.7091 79.474,293.1851 79.5895,293.0156 80.6338,291.4903 80.7504,291.3208 81.8044,289.7949 81.922,289.6253 82.9857,288.0995 83.1044,287.93 84.1779,286.4049 84.2977,286.2355 85.3808,284.7118 85.5017,284.5426 86.5946,283.0211 86.7165,282.8522 87.8191,281.3335 87.9422,281.1649 89.0545,279.6497 89.1786,279.4816 90.3006,277.9705 90.4258,277.8029 91.5576,276.2967 91.6838,276.1297 92.8253,274.6291 92.9527,274.4627 94.1038,272.9683 94.2323,272.8026 95.3932,271.3152 95.5227,271.1503 96.6933,269.6705 96.8239,269.5065 98.0043,268.035 98.1359,267.872 99.326,266.4094 99.4588,266.2475 100.6585,264.7946 100.7924,264.6337 102.0019,263.1912 102.1368,263.0315 103.356,261.6 103.492,261.4416 104.7209,260.0219 104.858,259.8648 106.0966,258.4575 106.2348,258.3018 107.4832,256.9075 107.6224,256.7534 108.8805,255.3729 109.0208,255.2203 110.2886,253.8543 110.43,253.7034 111.7075,252.3525 111.85,252.2033 113.1373,250.8683 113.2808,250.7209 114.5778,249.4024 114.7224,249.2569 116.0291,247.9556 116.1748,247.812 117.4912,246.5286 117.638,246.387 118.9641,245.1222 119.112,244.9828 120.4478,243.7373 120.5968,243.6 121.9424,242.3744 122.0924,242.2393 123.4477,241.0344 123.5988,240.9017 124.9638,239.7181 125.116,239.5878 126.644,238.2984 126.7974,238.1708 128.3372,236.9092 128.4918,236.7845 130.0436,235.5516 130.1993,235.4298 131.7629,234.2266 131.9199,234.1078 133.4954,232.9353 133.6535,232.8196 135.2409,231.6785 135.4003,231.566 136.9995,230.4573 137.16,230.3481 138.7712,229.2728 138.9329,229.167 140.5559,228.1259 140.7188,228.0236 142.3537,227.0178 142.5178,226.919 144.1645,225.9493 144.3298,225.8541 145.9885,224.9214 146.1549,224.8301 147.8254,223.9354 147.9931,223.8478 149.6755,222.992 149.8443,222.9084 151.5386,222.0924 151.7086,222.0128 153.4148,221.2375 153.586,221.162 155.304,220.4284 155.4764,220.3571 157.2064,219.666 157.3799,219.5991 159.1217,218.9515 159.2965,218.889 161.0502,218.2858 161.2262,218.2277 162.9917,217.6699 163.1689,217.6164 164.9463,217.1048 165.1246,217.056 166.9139,216.5916 167.0935,216.5476 168.8947,216.1313 169.0754,216.0921 170.8884,215.7248 171.0703,215.6906 172.9929,215.3607 173.1431,215.3377 175.1149,215.0725 175.268,215.0547 177.1217,214.8691 177.2775,214.856 179.1629,214.7263 179.3213,214.7178 181.2378,214.6429 181.3988,214.6389 183.3458,214.6174 183.5093,214.6179 185.4862,214.6488 185.6521,214.6535 187.49,214.7271 187.6582,214.7357 189.5203,214.8516 189.6907,214.8641 191.5766,215.0215 191.7491,215.0377 193.6582,215.2358 193.8328,215.2556 195.7646,215.4933 195.9413,215.5167 197.8954,215.7932 198.0741,215.8201 199.8696,216.1045 200.05,216.1345 201.8633,216.4498 202.0455,216.4828 203.8761,216.8283 204.0601,216.8643 205.9078,217.2392 206.0934,217.2782 207.9577,217.6819 208.145,217.7236 210.0256,218.1554 210.2144,218.2 212.1109,218.6591 212.3014,218.7064 214.2134,219.1923 214.4054,219.2422 216.3326,219.754 216.5261,219.8065 218.2732,220.2889 218.468,220.3437 220.227,220.8463 220.4231,220.9032 222.1936,221.4255 222.391,221.4846 224.1727,222.0261 224.3713,222.0873 226.1641,222.6473 226.3639,222.7106 228.1673,223.2888 228.3683,223.354 230.1821,223.9498 230.3843,224.017 232.2083,224.6299 232.4115,224.6989 234.2453,225.3283 234.4496,225.3992 236.2931,226.0447 236.4984,226.1173 238.3511,226.7783 238.5575,226.8526 240.4193,227.5287 240.6266,227.6046 242.4971,228.2952 242.7054,228.3727 244.3753,228.9983 244.5844,229.0772 246.2608,229.7137 246.4707,229.7939 248.1535,230.4408 248.3642,230.5223 250.0532,231.1793 250.2647,231.2621 251.9596,231.9288 252.1718,232.0127 253.8725,232.6887 254.0854,232.7738 255.7916,233.4587 256.0053,233.5449 257.7169,234.2384 257.9311,234.3256 259.6479,235.0274 259.8628,235.1156 261.5845,235.8252 261.8001,235.9144 263.5265,236.6315 263.7426,236.7215 265.4737,237.4457 265.6904,237.5366 267.4258,238.2675 267.643,238.3593 269.3825,239.0965 269.6002,239.189 271.3438,239.9322 271.562,240.0255 273.3093,240.7743 273.5279,240.8683 275.2788,241.6223 275.4978,241.7169 277.252,242.4758 277.4715,242.5709 279.2289,243.3343 279.4487,243.43 281.2091,244.1975 281.4293,244.2937 283.1924,245.0649 283.4129,245.1616 285.1786,245.9362 285.3994,246.0332 287.1674,246.8108 287.3885,246.9082 289.1587,247.6885 289.3801,247.7861 291.1522,248.5686 291.3738,248.6666 293.1476,249.451 293.3695,249.5491 295.1449,250.335 295.3669,250.4333 297.1436,251.2204 297.3658,251.3188 299.1437,252.1066 299.366,252.2051 301.1448,252.9933 301.3673,253.0919 303.1468,253.8801 303.3693,253.9786 305.1495,254.7665 305.372,254.8649 307.1525,255.6521 307.3751,255.7504 309.1557,256.5365 309.3783,256.6347 311.1589,257.4192 311.3814,257.5172 313.1617,258.3 313.3842,258.3977 315.1641,259.1782 315.3866,259.2756 317.1658,260.0536 317.3881,260.1507 319.1664,260.9257 319.3887,261.0224 321.166,261.794 321.388,261.8903 323.1641,262.6583 323.386,262.754 325.1605,263.5179 325.3823,263.6131 327.1552,264.3726 327.3767,264.4673 329.1477,265.2219 329.369,265.3159 331.1379,266.0654 331.3589,266.1587 333.1256,266.9026 333.3463,266.9953 335.1106,267.7332 335.3309,267.8251 337.0925,268.5568 337.3125,268.6478 339.0712,269.3728 339.2909,269.463 341.0465,270.1809 341.2658,270.2702 343.0181,270.9808 343.237,271.0691 344.9859,271.7718 345.2043,271.8592 346.9495,272.5537 347.1674,272.64 348.9088,273.3261 349.1262,273.4113 350.8635,274.0884 351.0804,274.1724 352.8134,274.8403 353.0298,274.9232 354.7583,275.5814 354.9741,275.663 356.698,276.3112 356.9131,276.3915 358.6321,277.0293 358.8467,277.1084 360.5606,277.7354 360.7745,277.813 362.4832,278.4289 362.6964,278.5052 364.3996,279.1095 364.6121,279.1843 366.3096,279.7767 366.5214,279.85 368.2131,280.4302 368.4241,280.502 370.1097,281.0695 370.32,281.1397 372.2087,281.7627 372.4181,281.831 374.2988,282.4373 374.5073,282.5037 376.3795,283.0927 376.587,283.1572 378.4505,283.7284 378.6571,283.7908 380.5117,284.3437 380.7172,284.4041 382.5625,284.9381 382.7671,284.9964 384.6028,285.511 384.8063,285.5671 386.6323,286.0619 386.8346,286.1158 388.6505,286.5902 388.8517,286.6417 390.6573,287.0952 390.8573,287.1445 392.6522,287.5765 392.851,287.6233 394.635,288.0335 394.8326,288.0778 396.6054,288.4655 396.8018,288.5073 398.7581,288.9112 398.9531,288.9502 400.895,289.3254 401.0885,289.3614 403.0157,289.7071 403.2077,289.7402 405.1197,290.0557 405.3101,290.0858 407.2067,290.3704 407.3955,290.3973 409.2761,290.6505 409.4634,290.6742 411.3277,290.895 411.5133,290.9155 413.361,291.1034 413.5449,291.1205 415.3756,291.2748 415.5578,291.2886 417.5515,291.4188 417.7318,291.4287 419.7041,291.5168 419.8824,291.5229 421.8329,291.568 422.0092,291.5701 423.9373,291.5712 424.1116,291.5693 426.0169,291.5256 426.189,291.5196 428.071,291.4302 428.241,291.4199 430.0991,291.2839 430.2669,291.2693 432.1007,291.0857 432.2663,291.0668 434.2386,290.8113 434.4017,290.7876 436.344,290.4737 436.5046,290.4451 438.4164,290.0715 438.5744,290.0379 440.455,289.6036 440.6104,289.5648 442.4591,289.0685 442.6119,289.0246 444.4281,288.4652 444.5781,288.4159 446.3464,287.7984 446.491,287.745 448.2216,287.0738 448.3654,287.0154 450.0853,286.2837 450.2282,286.2202 451.9374,285.4291 452.0794,285.3607 453.7781,284.5113 453.9192,284.4381 455.6071,283.5314 455.7473,283.4535 457.4246,282.4907 457.564,282.4081 459.2306,281.3903 459.3691,281.3032 461.0251,280.2313 461.1626,280.1398 462.808,279.015 462.9447,278.9191 464.4435,277.8424 464.5794,277.7426 466.0692,276.6229 466.2042,276.5192 467.685,275.3573 467.8193,275.2498 469.2911,274.0467 469.4245,273.9355 470.8872,272.692 471.0198,272.5771 472.4736,271.294 472.6054,271.1756 474.0501,269.8537 474.1811,269.7318 475.6168,268.372 475.7469,268.2467 477.1737,266.85 477.303,266.7213 478.5921,265.42 478.7207,265.2883 480.0024,263.9575 480.1302,263.823 481.4043,262.4632 481.5314,262.3259 482.798,260.9379 482.9243,260.7978 484.1834,259.3823 484.309,259.2394 485.5606,257.797 485.6854,257.6514 486.9295,256.1828 487.0536,256.0346 488.2902,254.5403 488.4134,254.3896 489.6425,252.8704 489.7651,252.7173 490.9867,251.1737 491.1084,251.0182 492.3225,249.4509 492.4436,249.2931 493.6501,247.7028 493.7704,247.5427 494.8499,246.0922 494.9694,245.9301 496.0428,244.4618 496.1617,244.2977 497.2288,242.8121 497.3471,242.6461 498.4081,241.1436 498.5256,240.9758 499.5805,239.4569 499.6974,239.2873 500.7461,237.7526 500.8623,237.5812 501.9049,236.0311 502.0204,235.858 503.0568,234.2929 503.1716,234.1182 504.2019,232.5387 504.316,232.3625 505.3402,230.769 505.4536,230.5912 506.4716,228.9843 506.5844,228.805 507.5963,227.1851 507.7084,227.0044 508.7141,225.372 508.8255,225.1899 509.825,223.5455 509.9357,223.3621 510.9292,221.7061 511.0392,221.5215 512.0265,219.8544 512.1358,219.6686 513.117,217.9909 513.2256,217.804 514.2006,216.1162 514.3086,215.9282 515.2774,214.2308 515.3847,214.0417 516.3474,212.3352 516.4541,212.1451 517.4106,210.43 517.5165,210.2389 518.4669,208.5156 518.5722,208.3237 519.5165,206.5927 519.621,206.4 520.5591,204.6618 520.663,204.4683 521.595,202.7234 521.6982,202.5292 522.624,200.778 522.7265,200.5831 523.6462,198.8262 523.7481,198.6307 524.6616,196.8685 524.7628,196.6725 525.6701,194.9055 525.7706,194.7089 526.6718,192.9377 526.7716,192.7406 527.6667,190.9656 527.7658,190.7681 528.6548,188.9897 528.7532,188.7919 529.636,187.0107 529.7338,186.8126 530.6104,185.0289 530.7075,184.8306 531.578,183.0451 531.6744,182.8466 532.5387,181.0596 532.6344,180.861 533.4926,179.0731 533.5877,178.8745 534.4397,177.0861 534.5341,176.8874 535.38,175.0991 535.4736,174.9004 536.3134,173.1127 536.4064,172.9141 537.24,171.1273 537.3323,170.9288 538.1598,169.1435 538.2514,168.9453 539.0727,167.162 539.1637,166.9639 539.9789,165.1831 540.0691,164.9854 540.8782,163.2074 540.9677,163.0101 541.7706,161.2355 541.8595,161.0386 542.6562,159.268 542.7444,159.0715 543.5351,157.3052 543.6226,157.1092 544.407,155.3479 544.4938,155.1525 545.2722,153.3964 545.3583,153.2016 546.1305,151.4514 546.2159,151.2573 546.982,149.5134 547.0668,149.32 547.8266,147.5829 547.9107,147.3903 548.6645,145.6605 548.7479,145.4687 549.4955,143.7467 549.5782,143.5558 550.3197,141.842 550.4017,141.652 551.137,139.947 551.2184,139.758 551.9475,138.0621 552.0282,137.8742 552.7512,136.1881 552.8312,136.0013 553.5481,134.3252 553.6274,134.1396 554.3381,132.4742 554.4168,132.2898 555.1993,130.4524 555.2772,130.2694 556.0522,128.4463 556.1293,128.2647 556.8968,126.4565 556.9732,126.2764 557.7332,124.4838 557.8088,124.3053 558.5613,122.5289 558.6361,122.3521 559.3811,120.5925 559.4552,120.4174 560.1927,118.6753 560.2661,118.502 560.996,116.7781 561.0686,116.6066 561.7911,114.9015 561.8629,114.732 562.5779,113.0463 562.649,112.8788 563.4268,111.0477 563.497,110.8823 564.2658,109.0762 564.3353,108.9132 565.095,107.1329 565.1637,106.9723 565.9144,105.2186 565.9823,105.0605 566.724,103.3344 566.791,103.1787 567.5237,101.481 567.5899,101.328 568.379,99.5091 568.4443,99.359 569.2228,97.5758 569.2872,97.4287 570.055,95.6822 570.1185,95.5382 570.8756,93.8295 570.9383,93.6887 571.7465,91.8814 571.8082,91.7441 572.604,89.9835 572.6647,89.8499 573.4481,88.1374 573.5079,88.0076 574.3377,86.2185 574.3964,86.0928 575.2119,84.3626 575.2696,84.2411 576.1274,82.4542 576.1841,82.3374 577.0255,80.6217 577.081,80.5097 577.9605,78.7601 578.0149,78.6534 578.929,76.888 578.9822,76.7871 579.9274,75.0257 579.9792,74.931 580.9516,73.1955 581.0021,73.1076 581.9977,71.4223 582.0467,71.3417 582.4852,70.6327 582.5336,70.5557" style="fill:none;stroke:rgb(78,154,6);stroke-width:2;stroke-linejoin:bevel" />
  <text dominant-baseline="hanging" text-anchor="middle" transform="translate(309.1865,8)" font-family="Segoe UI" font-size="18" font-weight="700" fill="black">LineSeries</text>
  <text dominant-baseline="hanging" text-anchor="middle" transform="translate(309.1865,35.9375)" font-family="Segoe UI" font-size="14" font-weight="400" fill="black">Smooth = true</text>
  <polygon points="30.3729,67.6667 588,67.6667 588,362.375 30.3729,362.375" style="fill:none;stroke:black;stroke-width:1" />
</svg>