<?xml version="1.0" encoding="utf-8" standalone="no"?>
<!DOCTYPE svg PUBLIC "-//W3C//DTD SVG 1.1//EN" "http://www.w3.org/Graphics/SVG/1.1/DTD/svg11.dtd">
<svg width="600" height="400" version="1.1" xmlns:xlink="http://www.w3.org/1999/xlink" xmlns="http://www.w3.org/2000/svg">
  <polyline points="49.56,362.375 49.56,366.375" style="fill:none;stroke:black;stroke-width:1" />
  <polyline points="63.226,362.375 63.226,366.375" style="fill:none;stroke:black;stroke-width:1" />
  <polyline points="76.8919,362.375 76.8919,366.375" style="fill:none;stroke:black;stroke-width:1" />
  <polyline points="90.5579,362.375 90.5579,366.375" style="fill:none;stroke:black;stroke-width:1" />
  <polyline points="117.8899,362.375 117.8899,366.375" style="fill:none;stroke:black;stroke-width:1" />
  <polyline points="131.5559,362.375 131.5559,366.375" style="fill:none;stroke:black;stroke-width:1" />
  <polyline points="145.2219,362.375 145.2219,366.375" style="fill:none;stroke:black;stroke-width:1" />
  <polyline points="158.8879,362.375 158.8879,366.375" style="fill:none;stroke:black;stroke-width:1" />
  <polyline points="186.2199,362.375 186.2199,366.375" style="fill:none;stroke:black;stroke-width:1" />
  <polyline points="199.8859,362.375 199.8859,366.375" style="fill:none;stroke:black;stroke-width:1" />
  <polyline points="213.5519,362.375 213.5519,366.375" style="fill:none;stroke:black;stroke-width:1" />
  <polyline points="227.2178,362.375 227.2178,366.375" style="fill:none;stroke:black;stroke-width:1" />
  <polyline points="254.5498,362.375 254.5498,366.375" style="fill:none;stroke:black;stroke-width:1" />
  <polyline points="268.2158,362.375 268.2158,366.375" style="fill:none;stroke:black;stroke-width:1" />
  <polyline points="281.8818,362.375 281.8818,366.375" style="fill:none;stroke:black;stroke-width:1" />
  <polyline points="295.5478,362.375 295.5478,366.375" style="fill:none;stroke:black;stroke-width:1" />
  <polyline points="322.8798,362.375 322.8798,366.375" style="fill:none;stroke:black;stroke-width:1" />
  <polyline points="336.5458,362.375 336.5458,366.375" style="fill:none;stroke:black;stroke-width:1" />
  <polyline points="350.2118,362.375 350.2118,366.375" style="fill:none;stroke:black;stroke-width:1" />
  <polyline points="363.8778,362.375 363.8778,366.375" style="fill:none;stroke:black;stroke-width:1" />
  <polyline points="391.2097,362.375 391.2097,366.375" style="fill:none;stroke:black;stroke-width:1" />
  <polyline points="404.8757,362.375 404.8757,366.375" style="fill:none;stroke:black;stroke-width:1" />
  <polyline points="418.5417,362.375 418.5417,366.375" style="fill:none;stroke:black;stroke-width:1" />
  <polyline points="432.2077,362.375 432.2077,366.375" style="fill:none;stroke:black;stroke-width:1" />
  <polyline points="459.5397,362.375 459.5397,366.375" style="fill:none;stroke:black;stroke-width:1" />
  <polyline points="473.2057,362.375 473.2057,366.375" style="fill:none;stroke:black;stroke-width:1" />
  <polyline points="486.8717,362.375 486.8717,366.375" style="fill:none;stroke:black;stroke-width:1" />
  <polyline points="500.5377,362.375 500.5377,366.375" style="fill:none;stroke:black;stroke-width:1" />
  <polyline points="527.8696,362.375 527.8696,366.375" style="fill:none;stroke:black;stroke-width:1" />
  <polyline points="541.5356,362.375 541.5356,366.375" style="fill:none;stroke:black;stroke-width:1" />
  <polyline points="555.2016,362.375 555.2016,366.375" style="fill:none;stroke:black;stroke-width:1" />
  <polyline points="568.8676,362.375 568.8676,366.375" style="fill:none;stroke:black;stroke-width:1" />
  <polyline points="30.3729,343.7318 26.3729,343.7318" style="fill:none;stroke:black;stroke-width:1" />
  <polyline points="30.3729,328.2217 26.3729,328.2217" style="fill:none;stroke:black;stroke-width:1" />
  <polyline points="30.3729,312.7116 26.3729,312.7116" style="fill:none;stroke:black;stroke-width:1" />
  <polyline points="30.3729,297.2015 26.3729,297.2015" style="fill:none;stroke:black;stroke-width:1" />
  <polyline points="30.3729,266.1812 26.3729,266.1812" style="fill:none;stroke:black;stroke-width:1" />
  <polyline points="30.3729,250.6711 26.3729,250.6711" style="fill:none;stroke:black;stroke-width:1" />
  <polyline points="30.3729,235.161 26.3729,235.161" style="fill:none;stroke:black;stroke-width:1" />
  <polyline points="30.3729,219.6509 26.3729,219.6509" style="fill:none;stroke:black;stroke-width:1" />
  <polyline points="30.3729,188.6306 26.3729,188.6306" style="fill:none;stroke:black;stroke-width:1" />
  <polyline points="30.3729,173.1205 26.3729,173.1205" style="fill:none;stroke:black;stroke-width:1" />
  <polyline points="30.3729,157.6104 26.3729,157.6104" style="fill:none;stroke:black;stroke-width:1" />
  <polyline points="30.3729,142.1003 26.3729,142.1003" style="fill:none;stroke:black;stroke-width:1" />
  <polyline points="30.3729,111.08 26.3729,111.08" style="fill:none;stroke:black;stroke-width:1" />
  <polyline points="30.3729,95.5699 26.3729,95.5699" style="fill:none;stroke:black;stroke-width:1" />
  <polyline points="30.3729,80.0598 26.3729,80.0598" style="fill:none;stroke:black;stroke-width:1" />
  <polyline points="30.3729,64.5496 26.3729,64.5496" style="fill:none;stroke:black;stroke-width:1" />
  <text dominant-baseline="hanging" text-anchor="middle" transform="translate(35.894,373.375)" font-family="Segoe UI" font-size="12" font-weight="400" fill="black">0</text>
  <text dominant-baseline="hanging" text-anchor="middle" transform="translate(104.2239,373.375)" font-family="Segoe UI" font-size="12" font-weight="400" fill="black">5</text>
  <text dominant-baseline="hanging" text-anchor="middle" transform="translate(172.5539,373.375)" font-family="Segoe UI" font-size="12" font-weight="400" fill="black">10</text>
  <text dominant-baseline="hanging" text-anchor="middle" transform="translate(240.8838,373.375)" font-family="Segoe UI" font-size="12" font-weight="400" fill="black">15</text>
  <text dominant-baseline="hanging" text-anchor="middle" transform="translate(309.2138,373.375)" font-family="Segoe UI" font-size="12" font-weight="400" fill="black">20</text>
  <text dominant-baseline="hanging" text-anchor="middle" transform="translate(377.5437,373.375)" font-family="Segoe UI" font-size="12" font-weight="400" fill="black">25</text>
  <text dominant-baseline="hanging" text-anchor="middle" transform="translate(445.8737,373.375)" font-family="Segoe UI" font-size="12" font-weight="400" fill="black">30</text>
  <text dominant-baseline="hanging" text-anchor="middle" transform="translate(514.2037,373.375)" font-family="Segoe UI" font-size="12" font-weight="400" fill="black">35</text>
  <text dominant-baseline="hanging" text-anchor="middle" transform="translate(582.5336,373.375)" font-family="Segoe UI" font-size="12" font-weight="400" fill="black">40</text>
  <polyline points="35.894,362.375 35.894,369.375" style="fill:none;stroke:black;stroke-width:1" />
  <polyline points="104.2239,362.375 104.2239,369.375" style="fill:none;stroke:black;stroke-width:1" />
  <polyline points="172.5539,362.375 172.5539,369.375" style="fill:none;stroke:black;stroke-width:1" />
  <polyline points="240.8838,362.375 240.8838,369.375" style="fill:none;stroke:black;stroke-width:1" />
  <polyline points="309.2138,362.375 309.2138,369.375" style="fill:none;stroke:black;stroke-width:1" />
  <polyline points="377.5437,362.375 377.5437,369.375" style="fill:none;stroke:black;stroke-width:1" />
  <polyline points="445.8737,362.375 445.8737,369.375" style="fill:none;stroke:black;stroke-width:1" />
  <polyline points="514.2037,362.375 514.2037,369.375" style="fill:none;stroke:black;stroke-width:1" />
  <polyline points="582.5336,362.375 582.5336,369.375" style="fill:none;stroke:black;stroke-width:1" />
  <text dominant-baseline="middle" text-anchor="end" transform="translate(19.3729,359.242)" font-family="Segoe UI" font-size="12" font-weight="400" fill="black">0</text>
  <text dominant-baseline="middle" text-anchor="end" transform="translate(19.3729,281.6914)" font-family="Segoe UI" font-size="12" font-weight="400" fill="black">2</text>
  <text dominant-baseline="middle" text-anchor="end" transform="translate(19.3729,204.1407)" font-family="Segoe UI" font-size="12" font-weight="400" fill="black">4</text>
  <text dominant-baseline="middle" text-anchor="end" transform="translate(19.3729,126.5901)" font-family="Segoe UI" font-size="12" font-weight="400" fill="black">6</text>
  <text dominant-baseline="middle" text-anchor="end" transform="translate(19.3729,49.0395)" font-family="Segoe UI" font-size="12" font-weight="400" fill="black">8</text>
  <polyline points="30.3729,359.242 23.3729,359.242" style="fill:none;stroke:black;stroke-width:1" />
  <polyline points="30.3729,281.6914 23.3729,281.6914" style="fill:none;stroke:black;stroke-width:1" />
  <polyline points="30.3729,204.1407 23.3729,204.1407" style="fill:none;stroke:black;stroke-width:1" />
  <polyline points="30.3729,126.5901 23.3729,126.5901" style="fill:none;stroke:black;stroke-width:1" />
  <polyline points="30.3729,49.0395 23.3729,49.0395" style="fill:none;stroke:black;stroke-width:1" />
  <polyline points="35.894,359.242 172.5539,204.1407 445.8737,281.6914 582.5336,49.0395" style="fill:none;stroke:rgb(78,154,6);stroke-width:2;stroke-linejoin:bevel" />
  <text dominant-baseline="hanging" text-anchor="middle" transform="translate(309.1865,8)" font-family="Segoe UI" font-size="18" font-weight="700" fill="black">LineSeries</text>
  <polygon points="30.3729,45.9375 588,45.9375 588,362.375 30.3729,362.375" style="fill:none;stroke:black;stroke-width:1" />
</svg>