<?xml version="1.0" encoding="utf-8" standalone="no"?>
<!DOCTYPE svg PUBLIC "-//W3C//DTD SVG 1.1//EN" "http://www.w3.org/Graphics/SVG/1.1/DTD/svg11.dtd">
<svg width="600" height="400" version="1.1" xmlns:xlink="http://www.w3.org/1999/xlink" xmlns="http://www.w3.org/2000/svg">
  <rect x="548.3083" y="360.7928" width="5" height="2.0822" style="fill:rgb(0,0,139);stroke:none;" />
  <rect x="548.3083" y="359.2106" width="5" height="2.0822" style="fill:rgb(0,5,141);stroke:none;" />
  <rect x="548.3083" y="357.6284" width="5" height="2.0822" style="fill:rgb(0,10,143);stroke:none;" />
  <rect x="548.3083" y="356.0463" width="5" height="2.0822" style="fill:rgb(0,15,145);stroke:none;" />
  <rect x="548.3083" y="354.4641" width="5" height="2.0822" style="fill:rgb(0,20,148);stroke:none;" />
  <rect x="548.3083" y="352.8819" width="5" height="2.0822" style="fill:rgb(0,25,150);stroke:none;" />
  <rect x="548.3083" y="351.2997" width="5" height="2.0822" style="fill:rgb(0,30,152);stroke:none;" />
  <rect x="548.3083" y="349.7175" width="5" height="2.0822" style="fill:rgb(0,35,155);stroke:none;" />
  <rect x="548.3083" y="348.1353" width="5" height="2.0822" style="fill:rgb(0,41,157);stroke:none;" />
  <rect x="548.3083" y="346.5531" width="5" height="2.0822" style="fill:rgb(0,46,159);stroke:none;" />
  <rect x="548.3083" y="344.9709" width="5" height="2.0822" style="fill:rgb(0,51,162);stroke:none;" />
  <rect x="548.3083" y="343.3888" width="5" height="2.0822" style="fill:rgb(0,56,164);stroke:none;" />
  <rect x="548.3083" y="341.8066" width="5" height="2.0822" style="fill:rgb(0,61,166);stroke:none;" />
  <rect x="548.3083" y="340.2244" width="5" height="2.0822" style="fill:rgb(0,66,169);stroke:none;" />
  <rect x="548.3083" y="338.6422" width="5" height="2.0822" style="fill:rgb(0,71,171);stroke:none;" />
  <rect x="548.3083" y="337.06" width="5" height="2.0822" style="fill:rgb(0,76,173);stroke:none;" />
  <rect x="548.3083" y="335.4778" width="5" height="2.0822" style="fill:rgb(0,82,176);stroke:none;" />
  <rect x="548.3083" y="333.8956" width="5" height="2.0822" style="fill:rgb(0,87,178);stroke:none;" />
  <rect x="548.3083" y="332.3134" width="5" height="2.0822" style="fill:rgb(0,92,180);stroke:none;" />
  <rect x="548.3083" y="330.7313" width="5" height="2.0822" style="fill:rgb(0,97,183);stroke:none;" />
  <rect x="548.3083" y="329.1491" width="5" height="2.0822" style="fill:rgb(0,102,185);stroke:none;" />
  <rect x="548.3083" y="327.5669" width="5" height="2.0822" style="fill:rgb(0,107,187);stroke:none;" />
  <rect x="548.3083" y="325.9847" width="5" height="2.0822" style="fill:rgb(0,112,190);stroke:none;" />
  <rect x="548.3083" y="324.4025" width="5" height="2.0822" style="fill:rgb(0,117,192);stroke:none;" />
  <rect x="548.3083" y="322.8203" width="5" height="2.0822" style="fill:rgb(0,123,194);stroke:none;" />
  <rect x="548.3083" y="321.2381" width="5" height="2.0822" style="fill:rgb(0,128,197);stroke:none;" />
  <rect x="548.3083" y="319.6559" width="5" height="2.0822" style="fill:rgb(0,133,199);stroke:none;" />
  <rect x="548.3083" y="318.0738" width="5" height="2.0822" style="fill:rgb(0,138,201);stroke:none;" />
  <rect x="548.3083" y="316.4916" width="5" height="2.0822" style="fill:rgb(0,143,204);stroke:none;" />
  <rect x="548.3083" y="314.9094" width="5" height="2.0822" style="fill:rgb(0,148,206);stroke:none;" />
  <rect x="548.3083" y="313.3272" width="5" height="2.0822" style="fill:rgb(0,153,208);stroke:none;" />
  <rect x="548.3083" y="311.745" width="5" height="2.0822" style="fill:rgb(0,158,211);stroke:none;" />
  <rect x="548.3083" y="310.1628" width="5" height="2.0822" style="fill:rgb(0,164,213);stroke:none;" />
  <rect x="548.3083" y="308.5806" width="5" height="2.0822" style="fill:rgb(0,169,215);stroke:none;" />
  <rect x="548.3083" y="306.9984" width="5" height="2.0822" style="fill:rgb(0,174,218);stroke:none;" />
  <rect x="548.3083" y="305.4163" width="5" height="2.0822" style="fill:rgb(0,179,220);stroke:none;" />
  <rect x="548.3083" y="303.8341" width="5" height="2.0822" style="fill:rgb(0,184,222);stroke:none;" />
  <rect x="548.3083" y="302.2519" width="5" height="2.0822" style="fill:rgb(0,189,225);stroke:none;" />
  <rect x="548.3083" y="300.6697" width="5" height="2.0822" style="fill:rgb(0,194,227);stroke:none;" />
  <rect x="548.3083" y="299.0875" width="5" height="2.0822" style="fill:rgb(0,199,229);stroke:none;" />
  <rect x="548.3083" y="297.5053" width="5" height="2.0822" style="fill:rgb(0,205,232);stroke:none;" />
  <rect x="548.3083" y="295.9231" width="5" height="2.0822" style="fill:rgb(0,210,234);stroke:none;" />
  <rect x="548.3083" y="294.3409" width="5" height="2.0822" style="fill:rgb(0,215,236);stroke:none;" />
  <rect x="548.3083" y="292.7588" width="5" height="2.0822" style="fill:rgb(0,220,239);stroke:none;" />
  <rect x="548.3083" y="291.1766" width="5" height="2.0822" style="fill:rgb(0,225,241);stroke:none;" />
  <rect x="548.3083" y="289.5944" width="5" height="2.0822" style="fill:rgb(0,230,243);stroke:none;" />
  <rect x="548.3083" y="288.0122" width="5" height="2.0822" style="fill:rgb(0,235,246);stroke:none;" />
  <rect x="548.3083" y="286.43" width="5" height="2.0822" style="fill:rgb(0,240,248);stroke:none;" />
  <rect x="548.3083" y="284.8478" width="5" height="2.0822" style="fill:rgb(0,246,250);stroke:none;" />
  <rect x="548.3083" y="283.2656" width="5" height="2.0822" style="fill:rgb(0,251,253);stroke:none;" />
  <rect x="548.3083" y="281.6834" width="5" height="2.0822" style="fill:rgb(1,255,253);stroke:none;" />
  <rect x="548.3083" y="280.1013" width="5" height="2.0822" style="fill:rgb(6,255,248);stroke:none;" />
  <rect x="548.3083" y="278.5191" width="5" height="2.0822" style="fill:rgb(11,255,243);stroke:none;" />
  <rect x="548.3083" y="276.9369" width="5" height="2.0822" style="fill:rgb(16,255,238);stroke:none;" />
  <rect x="548.3083" y="275.3547" width="5" height="2.0822" style="fill:rgb(21,255,233);stroke:none;" />
  <rect x="548.3083" y="273.7725" width="5" height="2.0822" style="fill:rgb(26,255,228);stroke:none;" />
  <rect x="548.3083" y="272.1903" width="5" height="2.0822" style="fill:rgb(32,255,222);stroke:none;" />
  <rect x="548.3083" y="270.6081" width="5" height="2.0822" style="fill:rgb(37,255,217);stroke:none;" />
  <rect x="548.3083" y="269.0259" width="5" height="2.0822" style="fill:rgb(42,255,212);stroke:none;" />
  <rect x="548.3083" y="267.4438" width="5" height="2.0822" style="fill:rgb(47,255,207);stroke:none;" />
  <rect x="548.3083" y="265.8616" width="5" height="2.0822" style="fill:rgb(52,255,202);stroke:none;" />
  <rect x="548.3083" y="264.2794" width="5" height="2.0822" style="fill:rgb(57,255,197);stroke:none;" />
  <rect x="548.3083" y="262.6972" width="5" height="2.0822" style="fill:rgb(62,255,192);stroke:none;" />
  <rect x="548.3083" y="261.115" width="5" height="2.0822" style="fill:rgb(67,255,187);stroke:none;" />
  <rect x="548.3083" y="259.5328" width="5" height="2.0822" style="fill:rgb(73,255,181);stroke:none;" />
  <rect x="548.3083" y="257.9506" width="5" height="2.0822" style="fill:rgb(78,255,176);stroke:none;" />
  <rect x="548.3083" y="256.3684" width="5" height="2.0822" style="fill:rgb(83,255,171);stroke:none;" />
  <rect x="548.3083" y="254.7863" width="5" height="2.0822" style="fill:rgb(88,255,166);stroke:none;" />
  <rect x="548.3083" y="253.2041" width="5" height="2.0822" style="fill:rgb(93,255,161);stroke:none;" />
  <rect x="548.3083" y="251.6219" width="5" height="2.0822" style="fill:rgb(98,255,156);stroke:none;" />
  <rect x="548.3083" y="250.0397" width="5" height="2.0822" style="fill:rgb(103,255,151);stroke:none;" />
  <rect x="548.3083" y="248.4575" width="5" height="2.0822" style="fill:rgb(108,255,146);stroke:none;" />
  <rect x="548.3083" y="246.8753" width="5" height="2.0822" style="fill:rgb(114,255,140);stroke:none;" />
  <rect x="548.3083" y="245.2931" width="5" height="2.0822" style="fill:rgb(119,255,135);stroke:none;" />
  <rect x="548.3083" y="243.7109" width="5" height="2.0822" style="fill:rgb(124,255,130);stroke:none;" />
  <rect x="548.3083" y="242.1288" width="5" height="2.0822" style="fill:rgb(129,255,125);stroke:none;" />
  <rect x="548.3083" y="240.5466" width="5" height="2.0822" style="fill:rgb(134,255,120);stroke:none;" />
  <rect x="548.3083" y="238.9644" width="5" height="2.0822" style="fill:rgb(139,255,115);stroke:none;" />
  <rect x="548.3083" y="237.3822" width="5" height="2.0822" style="fill:rgb(144,255,110);stroke:none;" />
  <rect x="548.3083" y="235.8" width="5" height="2.0822" style="fill:rgb(149,255,105);stroke:none;" />
  <rect x="548.3083" y="234.2178" width="5" height="2.0822" style="fill:rgb(155,255,99);stroke:none;" />
  <rect x="548.3083" y="232.6356" width="5" height="2.0822" style="fill:rgb(160,255,94);stroke:none;" />
  <rect x="548.3083" y="231.0534" width="5" height="2.0822" style="fill:rgb(165,255,89);stroke:none;" />
  <rect x="548.3083" y="229.4713" width="5" height="2.0822" style="fill:rgb(170,255,84);stroke:none;" />
  <rect x="548.3083" y="227.8891" width="5" height="2.0822" style="fill:rgb(175,255,79);stroke:none;" />
  <rect x="548.3083" y="226.3069" width="5" height="2.0822" style="fill:rgb(180,255,74);stroke:none;" />
  <rect x="548.3083" y="224.7247" width="5" height="2.0822" style="fill:rgb(185,255,69);stroke:none;" />
  <rect x="548.3083" y="223.1425" width="5" height="2.0822" style="fill:rgb(190,255,64);stroke:none;" />
  <rect x="548.3083" y="221.5603" width="5" height="2.0822" style="fill:rgb(196,255,58);stroke:none;" />
  <rect x="548.3083" y="219.9781" width="5" height="2.0822" style="fill:rgb(201,255,53);stroke:none;" />
  <rect x="548.3083" y="218.3959" width="5" height="2.0822" style="fill:rgb(206,255,48);stroke:none;" />
  <rect x="548.3083" y="216.8138" width="5" height="2.0822" style="fill:rgb(211,255,43);stroke:none;" />
  <rect x="548.3083" y="215.2316" width="5" height="2.0822" style="fill:rgb(216,255,38);stroke:none;" />
  <rect x="548.3083" y="213.6494" width="5" height="2.0822" style="fill:rgb(221,255,33);stroke:none;" />
  <rect x="548.3083" y="212.0672" width="5" height="2.0822" style="fill:rgb(226,255,28);stroke:none;" />
  <rect x="548.3083" y="210.485" width="5" height="2.0822" style="fill:rgb(231,255,23);stroke:none;" />
  <rect x="548.3083" y="208.9028" width="5" height="2.0822" style="fill:rgb(237,255,17);stroke:none;" />
  <rect x="548.3083" y="207.3206" width="5" height="2.0822" style="fill:rgb(242,255,12);stroke:none;" />
  <rect x="548.3083" y="205.7384" width="5" height="2.0822" style="fill:rgb(247,255,7);stroke:none;" />
  <rect x="548.3083" y="204.1563" width="5" height="2.0822" style="fill:rgb(252,255,2);stroke:none;" />
  <rect x="548.3083" y="202.5741" width="5" height="2.0822" style="fill:rgb(255,254,0);stroke:none;" />
  <rect x="548.3083" y="200.9919" width="5" height="2.0822" style="fill:rgb(255,252,0);stroke:none;" />
  <rect x="548.3083" y="199.4097" width="5" height="2.0822" style="fill:rgb(255,250,0);stroke:none;" />
  <rect x="548.3083" y="197.8275" width="5" height="2.0822" style="fill:rgb(255,248,0);stroke:none;" />
  <rect x="548.3083" y="196.2453" width="5" height="2.0822" style="fill:rgb(255,246,0);stroke:none;" />
  <rect x="548.3083" y="194.6631" width="5" height="2.0822" style="fill:rgb(255,245,0);stroke:none;" />
  <rect x="548.3083" y="193.0809" width="5" height="2.0822" style="fill:rgb(255,243,0);stroke:none;" />
  <rect x="548.3083" y="191.4988" width="5" height="2.0822" style="fill:rgb(255,241,0);stroke:none;" />
  <rect x="548.3083" y="189.9166" width="5" height="2.0822" style="fill:rgb(255,239,0);stroke:none;" />
  <rect x="548.3083" y="188.3344" width="5" height="2.0822" style="fill:rgb(255,237,0);stroke:none;" />
  <rect x="548.3083" y="186.7522" width="5" height="2.0822" style="fill:rgb(255,236,0);stroke:none;" />
  <rect x="548.3083" y="185.17" width="5" height="2.0822" style="fill:rgb(255,234,0);stroke:none;" />
  <rect x="548.3083" y="183.5878" width="5" height="2.0822" style="fill:rgb(255,232,0);stroke:none;" />
  <rect x="548.3083" y="182.0056" width="5" height="2.0822" style="fill:rgb(255,230,0);stroke:none;" />
  <rect x="548.3083" y="180.4234" width="5" height="2.0822" style="fill:rgb(255,228,0);stroke:none;" />
  <rect x="548.3083" y="178.8413" width="5" height="2.0822" style="fill:rgb(255,226,0);stroke:none;" />
  <rect x="548.3083" y="177.2591" width="5" height="2.0822" style="fill:rgb(255,225,0);stroke:none;" />
  <rect x="548.3083" y="175.6769" width="5" height="2.0822" style="fill:rgb(255,223,0);stroke:none;" />
  <rect x="548.3083" y="174.0947" width="5" height="2.0822" style="fill:rgb(255,221,0);stroke:none;" />
  <rect x="548.3083" y="172.5125" width="5" height="2.0822" style="fill:rgb(255,219,0);stroke:none;" />
  <rect x="548.3083" y="170.9303" width="5" height="2.0822" style="fill:rgb(255,217,0);stroke:none;" />
  <rect x="548.3083" y="169.3481" width="5" height="2.0822" style="fill:rgb(255,216,0);stroke:none;" />
  <rect x="548.3083" y="167.7659" width="5" height="2.0822" style="fill:rgb(255,214,0);stroke:none;" />
  <rect x="548.3083" y="166.1838" width="5" height="2.0822" style="fill:rgb(255,212,0);stroke:none;" />
  <rect x="548.3083" y="164.6016" width="5" height="2.0822" style="fill:rgb(255,210,0);stroke:none;" />
  <rect x="548.3083" y="163.0194" width="5" height="2.0822" style="fill:rgb(255,208,0);stroke:none;" />
  <rect x="548.3083" y="161.4372" width="5" height="2.0822" style="fill:rgb(255,207,0);stroke:none;" />
  <rect x="548.3083" y="159.855" width="5" height="2.0822" style="fill:rgb(255,205,0);stroke:none;" />
  <rect x="548.3083" y="158.2728" width="5" height="2.0822" style="fill:rgb(255,203,0);stroke:none;" />
  <rect x="548.3083" y="156.6906" width="5" height="2.0822" style="fill:rgb(255,201,0);stroke:none;" />
  <rect x="548.3083" y="155.1084" width="5" height="2.0822" style="fill:rgb(255,199,0);stroke:none;" />
  <rect x="548.3083" y="153.5263" width="5" height="2.0822" style="fill:rgb(255,198,0);stroke:none;" />
  <rect x="548.3083" y="151.9441" width="5" height="2.0822" style="fill:rgb(255,196,0);stroke:none;" />
  <rect x="548.3083" y="150.3619" width="5" height="2.0822" style="fill:rgb(255,194,0);stroke:none;" />
  <rect x="548.3083" y="148.7797" width="5" height="2.0822" style="fill:rgb(255,192,0);stroke:none;" />
  <rect x="548.3083" y="147.1975" width="5" height="2.0822" style="fill:rgb(255,190,0);stroke:none;" />
  <rect x="548.3083" y="145.6153" width="5" height="2.0822" style="fill:rgb(255,188,0);stroke:none;" />
  <rect x="548.3083" y="144.0331" width="5" height="2.0822" style="fill:rgb(255,187,0);stroke:none;" />
  <rect x="548.3083" y="142.4509" width="5" height="2.0822" style="fill:rgb(255,185,0);stroke:none;" />
  <rect x="548.3083" y="140.8687" width="5" height="2.0822" style="fill:rgb(255,183,0);stroke:none;" />
  <rect x="548.3083" y="139.2866" width="5" height="2.0822" style="fill:rgb(255,181,0);stroke:none;" />
  <rect x="548.3083" y="137.7044" width="5" height="2.0822" style="fill:rgb(255,179,0);stroke:none;" />
  <rect x="548.3083" y="136.1222" width="5" height="2.0822" style="fill:rgb(255,178,0);stroke:none;" />
  <rect x="548.3083" y="134.54" width="5" height="2.0822" style="fill:rgb(255,176,0);stroke:none;" />
  <rect x="548.3083" y="132.9578" width="5" height="2.0822" style="fill:rgb(255,174,0);stroke:none;" />
  <rect x="548.3083" y="131.3756" width="5" height="2.0822" style="fill:rgb(255,172,0);stroke:none;" />
  <rect x="548.3083" y="129.7934" width="5" height="2.0822" style="fill:rgb(255,170,0);stroke:none;" />
  <rect x="548.3083" y="128.2112" width="5" height="2.0822" style="fill:rgb(255,169,0);stroke:none;" />
  <rect x="548.3083" y="126.6291" width="5" height="2.0822" style="fill:rgb(255,167,0);stroke:none;" />
  <rect x="548.3083" y="125.0469" width="5" height="2.0822" style="fill:rgb(255,165,0);stroke:none;" />
  <rect x="548.3083" y="123.4647" width="5" height="2.0822" style="fill:rgb(253,162,0);stroke:none;" />
  <rect x="548.3083" y="121.8825" width="5" height="2.0822" style="fill:rgb(250,159,0);stroke:none;" />
  <rect x="548.3083" y="120.3003" width="5" height="2.0822" style="fill:rgb(248,155,0);stroke:none;" />
  <rect x="548.3083" y="118.7181" width="5" height="2.0822" style="fill:rgb(246,152,0);stroke:none;" />
  <rect x="548.3083" y="117.1359" width="5" height="2.0822" style="fill:rgb(243,149,0);stroke:none;" />
  <rect x="548.3083" y="115.5537" width="5" height="2.0822" style="fill:rgb(241,145,0);stroke:none;" />
  <rect x="548.3083" y="113.9716" width="5" height="2.0822" style="fill:rgb(239,142,0);stroke:none;" />
  <rect x="548.3083" y="112.3894" width="5" height="2.0822" style="fill:rgb(236,139,0);stroke:none;" />
  <rect x="548.3083" y="110.8072" width="5" height="2.0822" style="fill:rgb(234,135,0);stroke:none;" />
  <rect x="548.3083" y="109.225" width="5" height="2.0822" style="fill:rgb(232,132,0);stroke:none;" />
  <rect x="548.3083" y="107.6428" width="5" height="2.0822" style="fill:rgb(229,129,0);stroke:none;" />
  <rect x="548.3083" y="106.0606" width="5" height="2.0822" style="fill:rgb(227,126,0);stroke:none;" />
  <rect x="548.3083" y="104.4784" width="5" height="2.0822" style="fill:rgb(225,122,0);stroke:none;" />
  <rect x="548.3083" y="102.8962" width="5" height="2.0822" style="fill:rgb(222,119,0);stroke:none;" />
  <rect x="548.3083" y="101.3141" width="5" height="2.0822" style="fill:rgb(220,116,0);stroke:none;" />
  <rect x="548.3083" y="99.7319" width="5" height="2.0822" style="fill:rgb(218,112,0);stroke:none;" />
  <rect x="548.3083" y="98.1497" width="5" height="2.0822" style="fill:rgb(215,109,0);stroke:none;" />
  <rect x="548.3083" y="96.5675" width="5" height="2.0822" style="fill:rgb(213,106,0);stroke:none;" />
  <rect x="548.3083" y="94.9853" width="5" height="2.0822" style="fill:rgb(211,102,0);stroke:none;" />
  <rect x="548.3083" y="93.4031" width="5" height="2.0822" style="fill:rgb(208,99,0);stroke:none;" />
  <rect x="548.3083" y="91.8209" width="5" height="2.0822" style="fill:rgb(206,96,0);stroke:none;" />
  <rect x="548.3083" y="90.2387" width="5" height="2.0822" style="fill:rgb(204,92,0);stroke:none;" />
  <rect x="548.3083" y="88.6566" width="5" height="2.0822" style="fill:rgb(201,89,0);stroke:none;" />
  <rect x="548.3083" y="87.0744" width="5" height="2.0822" style="fill:rgb(199,86,0);stroke:none;" />
  <rect x="548.3083" y="85.4922" width="5" height="2.0822" style="fill:rgb(197,82,0);stroke:none;" />
  <rect x="548.3083" y="83.91" width="5" height="2.0822" style="fill:rgb(194,79,0);stroke:none;" />
  <rect x="548.3083" y="82.3278" width="5" height="2.0822" style="fill:rgb(192,76,0);stroke:none;" />
  <rect x="548.3083" y="80.7456" width="5" height="2.0822" style="fill:rgb(190,72,0);stroke:none;" />
  <rect x="548.3083" y="79.1634" width="5" height="2.0822" style="fill:rgb(187,69,0);stroke:none;" />
  <rect x="548.3083" y="77.5812" width="5" height="2.0822" style="fill:rgb(185,66,0);stroke:none;" />
  <rect x="548.3083" y="75.9991" width="5" height="2.0822" style="fill:rgb(183,63,0);stroke:none;" />
  <rect x="548.3083" y="74.4169" width="5" height="2.0822" style="fill:rgb(180,59,0);stroke:none;" />
  <rect x="548.3083" y="72.8347" width="5" height="2.0822" style="fill:rgb(178,56,0);stroke:none;" />
  <rect x="548.3083" y="71.2525" width="5" height="2.0822" style="fill:rgb(176,53,0);stroke:none;" />
  <rect x="548.3083" y="69.6703" width="5" height="2.0822" style="fill:rgb(173,49,0);stroke:none;" />
  <rect x="548.3083" y="68.0881" width="5" height="2.0822" style="fill:rgb(171,46,0);stroke:none;" />
  <rect x="548.3083" y="66.5059" width="5" height="2.0822" style="fill:rgb(169,43,0);stroke:none;" />
  <rect x="548.3083" y="64.9237" width="5" height="2.0822" style="fill:rgb(166,39,0);stroke:none;" />
  <rect x="548.3083" y="63.3416" width="5" height="2.0822" style="fill:rgb(164,36,0);stroke:none;" />
  <rect x="548.3083" y="61.7594" width="5" height="2.0822" style="fill:rgb(162,33,0);stroke:none;" />
  <rect x="548.3083" y="60.1772" width="5" height="2.0822" style="fill:rgb(159,29,0);stroke:none;" />
  <rect x="548.3083" y="58.595" width="5" height="2.0822" style="fill:rgb(157,26,0);stroke:none;" />
  <rect x="548.3083" y="57.0128" width="5" height="2.0822" style="fill:rgb(155,23,0);stroke:none;" />
  <rect x="548.3083" y="55.4306" width="5" height="2.0822" style="fill:rgb(152,19,0);stroke:none;" />
  <rect x="548.3083" y="53.8484" width="5" height="2.0822" style="fill:rgb(150,16,0);stroke:none;" />
  <rect x="548.3083" y="52.2662" width="5" height="2.0822" style="fill:rgb(148,13,0);stroke:none;" />
  <rect x="548.3083" y="50.6841" width="5" height="2.0822" style="fill:rgb(145,9,0);stroke:none;" />
  <rect x="548.3083" y="49.1019" width="5" height="2.0822" style="fill:rgb(143,6,0);stroke:none;" />
  <rect x="548.3083" y="47.5197" width="5" height="2.0822" style="fill:rgb(141,3,0);stroke:none;" />
  <rect x="548.3083" y="45.9375" width="5" height="2.0822" style="fill:rgb(139,0,0);stroke:none;" />
  <polyline points="548.3083,353.6902 552.3083,353.6902" style="fill:none;stroke:black;stroke-width:1" />
  <polyline points="548.3083,339.8109 552.3083,339.8109" style="fill:none;stroke:black;stroke-width:1" />
  <polyline points="548.3083,312.0523 552.3083,312.0523" style="fill:none;stroke:black;stroke-width:1" />
  <polyline points="548.3083,298.173 552.3083,298.173" style="fill:none;stroke:black;stroke-width:1" />
  <polyline points="548.3083,284.2937 552.3083,284.2937" style="fill:none;stroke:black;stroke-width:1" />
  <polyline points="548.3083,270.4144 552.3083,270.4144" style="fill:none;stroke:black;stroke-width:1" />
  <polyline points="548.3083,242.6558 552.3083,242.6558" style="fill:none;stroke:black;stroke-width:1" />
  <polyline points="548.3083,228.7765 552.3083,228.7765" style="fill:none;stroke:black;stroke-width:1" />
  <polyline points="548.3083,214.8972 552.3083,214.8972" style="fill:none;stroke:black;stroke-width:1" />
  <polyline points="548.3083,201.0179 552.3083,201.0179" style="fill:none;stroke:black;stroke-width:1" />
  <polyline points="548.3083,173.2593 552.3083,173.2593" style="fill:none;stroke:black;stroke-width:1" />
  <polyline points="548.3083,159.38 552.3083,159.38" style="fill:none;stroke:black;stroke-width:1" />
  <polyline points="548.3083,145.5007 552.3083,145.5007" style="fill:none;stroke:black;stroke-width:1" />
  <polyline points="548.3083,131.6214 552.3083,131.6214" style="fill:none;stroke:black;stroke-width:1" />
  <polyline points="548.3083,103.8628 552.3083,103.8628" style="fill:none;stroke:black;stroke-width:1" />
  <polyline points="548.3083,89.9835 552.3083,89.9835" style="fill:none;stroke:black;stroke-width:1" />
  <polyline points="548.3083,76.1042 552.3083,76.1042" style="fill:none;stroke:black;stroke-width:1" />
  <polyline points="548.3083,62.2249 552.3083,62.2249" style="fill:none;stroke:black;stroke-width:1" />
  <polyline points="61.6098,362.375 61.6098,366.375" style="fill:none;stroke:black;stroke-width:1" />
  <polyline points="81.2275,362.375 81.2275,366.375" style="fill:none;stroke:black;stroke-width:1" />
  <polyline points="100.8452,362.375 100.8452,366.375" style="fill:none;stroke:black;stroke-width:1" />
  <polyline points="120.4629,362.375 120.4629,366.375" style="fill:none;stroke:black;stroke-width:1" />
  <polyline points="159.6982,362.375 159.6982,366.375" style="fill:none;stroke:black;stroke-width:1" />
  <polyline points="179.3159,362.375 179.3159,366.375" style="fill:none;stroke:black;stroke-width:1" />
  <polyline points="198.9336,362.375 198.9336,366.375" style="fill:none;stroke:black;stroke-width:1" />
  <polyline points="218.5513,362.375 218.5513,366.375" style="fill:none;stroke:black;stroke-width:1" />
  <polyline points="257.7867,362.375 257.7867,366.375" style="fill:none;stroke:black;stroke-width:1" />
  <polyline points="277.4044,362.375 277.4044,366.375" style="fill:none;stroke:black;stroke-width:1" />
  <polyline points="297.0221,362.375 297.0221,366.375" style="fill:none;stroke:black;stroke-width:1" />
  <polyline points="316.6398,362.375 316.6398,366.375" style="fill:none;stroke:black;stroke-width:1" />
  <polyline points="355.8752,362.375 355.8752,366.375" style="fill:none;stroke:black;stroke-width:1" />
  <polyline points="375.4929,362.375 375.4929,366.375" style="fill:none;stroke:black;stroke-width:1" />
  <polyline points="395.1106,362.375 395.1106,366.375" style="fill:none;stroke:black;stroke-width:1" />
  <polyline points="414.7283,362.375 414.7283,366.375" style="fill:none;stroke:black;stroke-width:1" />
  <polyline points="453.9637,362.375 453.9637,366.375" style="fill:none;stroke:black;stroke-width:1" />
  <polyline points="473.5814,362.375 473.5814,366.375" style="fill:none;stroke:black;stroke-width:1" />
  <polyline points="493.199,362.375 493.199,366.375" style="fill:none;stroke:black;stroke-width:1" />
  <polyline points="512.8167,362.375 512.8167,366.375" style="fill:none;stroke:black;stroke-width:1" />
  <polyline points="40.3354,346.9305 36.3354,346.9305" style="fill:none;stroke:black;stroke-width:1" />
  <polyline points="40.3354,334.454 36.3354,334.454" style="fill:none;stroke:black;stroke-width:1" />
  <polyline points="40.3354,321.9775 36.3354,321.9775" style="fill:none;stroke:black;stroke-width:1" />
  <polyline points="40.3354,309.501 36.3354,309.501" style="fill:none;stroke:black;stroke-width:1" />
  <polyline points="40.3354,284.548 36.3354,284.548" style="fill:none;stroke:black;stroke-width:1" />
  <polyline points="40.3354,272.0715 36.3354,272.0715" style="fill:none;stroke:black;stroke-width:1" />
  <polyline points="40.3354,259.595 36.3354,259.595" style="fill:none;stroke:black;stroke-width:1" />
  <polyline points="40.3354,247.1185 36.3354,247.1185" style="fill:none;stroke:black;stroke-width:1" />
  <polyline points="40.3354,222.1655 36.3354,222.1655" style="fill:none;stroke:black;stroke-width:1" />
  <polyline points="40.3354,209.689 36.3354,209.689" style="fill:none;stroke:black;stroke-width:1" />
  <polyline points="40.3354,197.2125 36.3354,197.2125" style="fill:none;stroke:black;stroke-width:1" />
  <polyline points="40.3354,184.736 36.3354,184.736" style="fill:none;stroke:black;stroke-width:1" />
  <polyline points="40.3354,159.783 36.3354,159.783" style="fill:none;stroke:black;stroke-width:1" />
  <polyline points="40.3354,147.3065 36.3354,147.3065" style="fill:none;stroke:black;stroke-width:1" />
  <polyline points="40.3354,134.83 36.3354,134.83" style="fill:none;stroke:black;stroke-width:1" />
  <polyline points="40.3354,122.3535 36.3354,122.3535" style="fill:none;stroke:black;stroke-width:1" />
  <polyline points="40.3354,97.4004 36.3354,97.4004" style="fill:none;stroke:black;stroke-width:1" />
  <polyline points="40.3354,84.9239 36.3354,84.9239" style="fill:none;stroke:black;stroke-width:1" />
  <polyline points="40.3354,72.4474 36.3354,72.4474" style="fill:none;stroke:black;stroke-width:1" />
  <polyline points="40.3354,59.9709 36.3354,59.9709" style="fill:none;stroke:black;stroke-width:1" />
  <text dominant-baseline="middle" text-anchor="start" transform="translate(559.3083,325.9316)" font-family="Segoe UI" font-size="12" font-weight="400" fill="black">200</text>
  <text dominant-baseline="middle" text-anchor="start" transform="translate(559.3083,256.5351)" font-family="Segoe UI" font-size="12" font-weight="400" fill="black">400</text>
  <text dominant-baseline="middle" text-anchor="start" transform="translate(559.3083,187.1386)" font-family="Segoe UI" font-size="12" font-weight="400" fill="black">600</text>
  <text dominant-baseline="middle" text-anchor="start" transform="translate(559.3083,117.7421)" font-family="Segoe UI" font-size="12" font-weight="400" fill="black">800</text>
  <text dominant-baseline="middle" text-anchor="start" transform="translate(559.3083,48.3456)" font-family="Segoe UI" font-size="12" font-weight="400" fill="black">1000</text>
  <polyline points="548.3083,325.9316 555.3083,325.9316" style="fill:none;stroke:black;stroke-width:1" />
  <polyline points="548.3083,256.5351 555.3083,256.5351" style="fill:none;stroke:black;stroke-width:1" />
  <polyline points="548.3083,187.1386 555.3083,187.1386" style="fill:none;stroke:black;stroke-width:1" />
  <polyline points="548.3083,117.7421 555.3083,117.7421" style="fill:none;stroke:black;stroke-width:1" />
  <polyline points="548.3083,48.3456 555.3083,48.3456" style="fill:none;stroke:black;stroke-width:1" />
  <text dominant-baseline="hanging" text-anchor="middle" transform="translate(41.9921,373.375)" font-family="Segoe UI" font-size="12" font-weight="400" fill="black">0</text>
  <text dominant-baseline="hanging" text-anchor="middle" transform="translate(140.0805,373.375)" font-family="Segoe UI" font-size="12" font-weight="400" fill="black">0,2</text>
  <text dominant-baseline="hanging" text-anchor="middle" transform="translate(238.169,373.375)" font-family="Segoe UI" font-size="12" font-weight="400" fill="black">0,4</text>
  <text dominant-baseline="hanging" text-anchor="middle" transform="translate(336.2575,373.375)" font-family="Segoe UI" font-size="12" font-weight="400" fill="black">0,6</text>
  <text dominant-baseline="hanging" text-anchor="middle" transform="translate(434.346,373.375)" font-family="Segoe UI" font-size="12" font-weight="400" fill="black">0,8</text>
  <polyline points="41.9921,362.375 41.9921,369.375" style="fill:none;stroke:black;stroke-width:1" />
  <polyline points="140.0805,362.375 140.0805,369.375" style="fill:none;stroke:black;stroke-width:1" />
  <polyline points="238.169,362.375 238.169,369.375" style="fill:none;stroke:black;stroke-width:1" />
  <polyline points="336.2575,362.375 336.2575,369.375" style="fill:none;stroke:black;stroke-width:1" />
  <polyline points="434.346,362.375 434.346,369.375" style="fill:none;stroke:black;stroke-width:1" />
  <text dominant-baseline="middle" text-anchor="end" transform="translate(29.3354,359.407)" font-family="Segoe UI" font-size="12" font-weight="400" fill="black">0</text>
  <text dominant-baseline="middle" text-anchor="end" transform="translate(29.3354,297.0245)" font-family="Segoe UI" font-size="12" font-weight="400" fill="black">0,2</text>
  <text dominant-baseline="middle" text-anchor="end" transform="translate(29.3354,234.642)" font-family="Segoe UI" font-size="12" font-weight="400" fill="black">0,4</text>
  <text dominant-baseline="middle" text-anchor="end" transform="translate(29.3354,172.2595)" font-family="Segoe UI" font-size="12" font-weight="400" fill="black">0,6</text>
  <text dominant-baseline="middle" text-anchor="end" transform="translate(29.3354,109.8769)" font-family="Segoe UI" font-size="12" font-weight="400" fill="black">0,8</text>
  <text dominant-baseline="middle" text-anchor="end" transform="translate(29.3354,47.4944)" font-family="Segoe UI" font-size="12" font-weight="400" fill="black">1</text>
  <polyline points="40.3354,359.407 33.3354,359.407" style="fill:none;stroke:black;stroke-width:1" />
  <polyline points="40.3354,297.0245 33.3354,297.0245" style="fill:none;stroke:black;stroke-width:1" />
  <polyline points="40.3354,234.642 33.3354,234.642" style="fill:none;stroke:black;stroke-width:1" />
  <polyline points="40.3354,172.2595 33.3354,172.2595" style="fill:none;stroke:black;stroke-width:1" />
  <polyline points="40.3354,109.8769 33.3354,109.8769" style="fill:none;stroke:black;stroke-width:1" />
  <polyline points="40.3354,47.4944 33.3354,47.4944" style="fill:none;stroke:black;stroke-width:1" />
  <ellipse cx="418.5498" cy="62.8495" rx="7" ry="7" style="fill:rgb(255,226,0);stroke:none;" />
  <ellipse cx="518.9745" cy="59.0988" rx="10" ry="10" style="fill:rgb(155,23,0);stroke:none;" />
  <ellipse cx="231.5175" cy="182.5075" rx="8" ry="8" style="fill:rgb(155,23,0);stroke:none;" />
  <ellipse cx="446.4077" cy="340.2091" rx="11" ry="11" style="fill:rgb(255,216,0);stroke:none;" />
  <ellipse cx="431.2522" cy="234.4024" rx="9" ry="9" style="fill:rgb(255,216,0);stroke:none;" />
  <ellipse cx="283.4327" cy="100.6236" rx="12" ry="12" style="fill:rgb(0,133,199);stroke:none;" />
  <ellipse cx="228.3368" cy="336.0367" rx="5" ry="5" style="fill:rgb(0,133,199);stroke:none;" />
  <ellipse cx="461.3783" cy="148.8237" rx="6" ry="6" style="fill:rgb(187,69,0);stroke:none;" />
  <ellipse cx="305.9761" cy="83.7465" rx="5" ry="5" style="fill:rgb(255,174,0);stroke:none;" />
  <ellipse cx="274.3323" cy="207.8957" rx="14" ry="14" style="fill:rgb(0,251,253);stroke:none;" />
  <ellipse cx="106.768" cy="243.4899" rx="6" ry="6" style="fill:rgb(0,251,253);stroke:none;" />
  <ellipse cx="178.186" cy="58.7166" rx="6" ry="6" style="fill:rgb(0,169,215);stroke:none;" />
  <ellipse cx="318.6493" cy="90.9378" rx="7" ry="7" style="fill:rgb(124,255,130);stroke:none;" />
  <ellipse cx="317.452" cy="62.2611" rx="12" ry="12" style="fill:rgb(229,129,0);stroke:none;" />
  <ellipse cx="486.837" cy="350.1872" rx="9" ry="9" style="fill:rgb(229,129,0);stroke:none;" />
  <ellipse cx="267.2007" cy="260.9345" rx="6" ry="6" style="fill:rgb(129,255,125);stroke:none;" />
  <ellipse cx="445.4544" cy="134.051" rx="13" ry="13" style="fill:rgb(0,246,250);stroke:none;" />
  <ellipse cx="444.9857" cy="216.4829" rx="5" ry="5" style="fill:rgb(194,79,0);stroke:none;" />
  <ellipse cx="479.1213" cy="196.2704" rx="6" ry="6" style="fill:rgb(242,255,12);stroke:none;" />
  <ellipse cx="72.6834" cy="249.8289" rx="11" ry="11" style="fill:rgb(206,96,0);stroke:none;" />
  <ellipse cx="509.1942" cy="215.2339" rx="5" ry="5" style="fill:rgb(255,208,0);stroke:none;" />
  <ellipse cx="309.2249" cy="233.9507" rx="14" ry="14" style="fill:rgb(237,255,17);stroke:none;" />
  <ellipse cx="522.901" cy="331.5895" rx="5" ry="5" style="fill:rgb(237,255,17);stroke:none;" />
  <ellipse cx="316.0976" cy="69.4342" rx="8" ry="8" style="fill:rgb(255,225,0);stroke:none;" />
  <ellipse cx="96.3104" cy="280.6405" rx="7" ry="7" style="fill:rgb(0,164,213);stroke:none;" />
  <ellipse cx="186.222" cy="322.9645" rx="6" ry="6" style="fill:rgb(0,164,213);stroke:none;" />
  <ellipse cx="198.4874" cy="195.9906" rx="9" ry="9" style="fill:rgb(255,236,0);stroke:none;" />
  <ellipse cx="96.9552" cy="319.5258" rx="6" ry="6" style="fill:rgb(255,236,0);stroke:none;" />
  <ellipse cx="78.1019" cy="87.9601" rx="8" ry="8" style="fill:rgb(0,107,187);stroke:none;" />
  <ellipse cx="172.5125" cy="163.0782" rx="6" ry="6" style="fill:rgb(0,215,236);stroke:none;" />
  <ellipse cx="226.8945" cy="203.1743" rx="9" ry="9" style="fill:rgb(0,215,236);stroke:none;" />
  <ellipse cx="169.1507" cy="74.8027" rx="13" ry="13" style="fill:rgb(143,6,0);stroke:none;" />
  <ellipse cx="173.5054" cy="192.5065" rx="13" ry="13" style="fill:rgb(175,255,79);stroke:none;" />
  <ellipse cx="397.3888" cy="232.4868" rx="11" ry="11" style="fill:rgb(192,76,0);stroke:none;" />
  <ellipse cx="102.2918" cy="209.2435" rx="12" ry="12" style="fill:rgb(255,207,0);stroke:none;" />
  <ellipse cx="167.047" cy="63.8777" rx="6" ry="6" style="fill:rgb(255,241,0);stroke:none;" />
  <ellipse cx="497.8291" cy="316.3053" rx="12" ry="12" style="fill:rgb(0,87,178);stroke:none;" />
  <ellipse cx="512.2012" cy="195.4607" rx="10" ry="10" style="fill:rgb(0,87,178);stroke:none;" />
  <ellipse cx="101.2609" cy="65.687" rx="13" ry="13" style="fill:rgb(0,148,206);stroke:none;" />
  <ellipse cx="494.3817" cy="238.1367" rx="7" ry="7" style="fill:rgb(173,49,0);stroke:none;" />
  <ellipse cx="70.24" cy="239.7221" rx="13" ry="13" style="fill:rgb(173,49,0);stroke:none;" />
  <ellipse cx="407.1841" cy="320.442" rx="8" ry="8" style="fill:rgb(0,205,232);stroke:none;" />
  <ellipse cx="237.2831" cy="274.8587" rx="13" ry="13" style="fill:rgb(241,145,0);stroke:none;" />
  <ellipse cx="381.6229" cy="358.959" rx="13" ry="13" style="fill:rgb(255,196,0);stroke:none;" />
  <ellipse cx="222.6979" cy="214.6603" rx="9" ry="9" style="fill:rgb(255,196,0);stroke:none;" />
  <ellipse cx="135.417" cy="219.2518" rx="14" ry="14" style="fill:rgb(62,255,192);stroke:none;" />
  <ellipse cx="349.747" cy="97.0771" rx="8" ry="8" style="fill:rgb(67,255,187);stroke:none;" />
  <ellipse cx="105.6173" cy="336.2743" rx="9" ry="9" style="fill:rgb(67,255,187);stroke:none;" />
  <ellipse cx="268.4388" cy="157.7924" rx="7" ry="7" style="fill:rgb(0,123,194);stroke:none;" />
  <ellipse cx="103.5444" cy="118.6148" rx="13" ry="13" style="fill:rgb(78,255,176);stroke:none;" />
  <ellipse cx="383.9321" cy="145.0277" rx="9" ry="9" style="fill:rgb(88,255,166);stroke:none;" />
  <ellipse cx="134.9567" cy="125.3741" rx="6" ry="6" style="fill:rgb(141,3,0);stroke:none;" />
  <ellipse cx="118.0608" cy="180.0702" rx="7" ry="7" style="fill:rgb(148,13,0);stroke:none;" />
  <ellipse cx="449.4977" cy="294.7484" rx="10" ry="10" style="fill:rgb(148,13,0);stroke:none;" />
  <ellipse cx="192.8676" cy="321.9065" rx="13" ry="13" style="fill:rgb(255,194,0);stroke:none;" />
  <ellipse cx="59.0222" cy="79.09" rx="9" ry="9" style="fill:rgb(0,102,185);stroke:none;" />
  <ellipse cx="455.9343" cy="295.3907" rx="5" ry="5" style="fill:rgb(255,210,0);stroke:none;" />
  <ellipse cx="235.6872" cy="183.6755" rx="5" ry="5" style="fill:rgb(0,5,141);stroke:none;" />
  <ellipse cx="434.4536" cy="249.3328" rx="13" ry="13" style="fill:rgb(0,5,141);stroke:none;" />
  <ellipse cx="288.8878" cy="205.1025" rx="9" ry="9" style="fill:rgb(190,255,64);stroke:none;" />
  <ellipse cx="165.0649" cy="159.1659" rx="12" ry="12" style="fill:rgb(190,255,64);stroke:none;" />
  <ellipse cx="190.0691" cy="52.2035" rx="6" ry="6" style="fill:rgb(0,56,164);stroke:none;" />
  <ellipse cx="336.4842" cy="243.9519" rx="7" ry="7" style="fill:rgb(0,82,176);stroke:none;" />
  <ellipse cx="473.645" cy="295.584" rx="8" ry="8" style="fill:rgb(0,174,218);stroke:none;" />
  <ellipse cx="303.4542" cy="276.8257" rx="10" ry="10" style="fill:rgb(0,174,218);stroke:none;" />
  <ellipse cx="125.7093" cy="229.4494" rx="8" ry="8" style="fill:rgb(42,255,212);stroke:none;" />
  <ellipse cx="180.5792" cy="344.0671" rx="6" ry="6" style="fill:rgb(164,36,0);stroke:none;" />
  <ellipse cx="288.2713" cy="167.7782" rx="10" ry="10" style="fill:rgb(247,255,7);stroke:none;" />
  <ellipse cx="354.7215" cy="237.8441" rx="7" ry="7" style="fill:rgb(247,255,7);stroke:none;" />
  <ellipse cx="187.6131" cy="97.0982" rx="9" ry="9" style="fill:rgb(227,126,0);stroke:none;" />
  <ellipse cx="357.3774" cy="218.522" rx="8" ry="8" style="fill:rgb(152,19,0);stroke:none;" />
  <ellipse cx="234.1383" cy="338.345" rx="12" ry="12" style="fill:rgb(0,194,227);stroke:none;" />
  <ellipse cx="137.9553" cy="73.9432" rx="13" ry="13" style="fill:rgb(0,92,180);stroke:none;" />
  <ellipse cx="136.9314" cy="301.2928" rx="6" ry="6" style="fill:rgb(1,255,253);stroke:none;" />
  <ellipse cx="105.767" cy="49.0395" rx="5" ry="5" style="fill:rgb(1,255,253);stroke:none;" />
  <ellipse cx="425.112" cy="120.214" rx="12" ry="12" style="fill:rgb(159,29,0);stroke:none;" />
  <ellipse cx="497.2751" cy="359.242" rx="8" ry="8" style="fill:rgb(180,255,74);stroke:none;" />
  <ellipse cx="451.5298" cy="236.5476" rx="13" ry="13" style="fill:rgb(255,181,0);stroke:none;" />
  <ellipse cx="500.9164" cy="160.8579" rx="11" ry="11" style="fill:rgb(190,72,0);stroke:none;" />
  <ellipse cx="410.3946" cy="152.6429" rx="10" ry="10" style="fill:rgb(185,255,69);stroke:none;" />
  <ellipse cx="467.8381" cy="235.0604" rx="7" ry="7" style="fill:rgb(134,255,120);stroke:none;" />
  <ellipse cx="360.3944" cy="323.301" rx="6" ry="6" style="fill:rgb(134,255,120);stroke:none;" />
  <ellipse cx="45.1668" cy="254.0357" rx="11" ry="11" style="fill:rgb(211,255,43);stroke:none;" />
  <ellipse cx="490.096" cy="205.0674" rx="13" ry="13" style="fill:rgb(201,89,0);stroke:none;" />
  <ellipse cx="340.4976" cy="253.7416" rx="10" ry="10" style="fill:rgb(144,255,110);stroke:none;" />
  <ellipse cx="387.9072" cy="260.3346" rx="8" ry="8" style="fill:rgb(232,132,0);stroke:none;" />
  <ellipse cx="271.6803" cy="234.8369" rx="14" ry="14" style="fill:rgb(255,223,0);stroke:none;" />
  <ellipse cx="228.9394" cy="76.9809" rx="6" ry="6" style="fill:rgb(255,178,0);stroke:none;" />
  <ellipse cx="411.3708" cy="115.3628" rx="7" ry="7" style="fill:rgb(165,255,89);stroke:none;" />
  <ellipse cx="91.0781" cy="307.3705" rx="12" ry="12" style="fill:rgb(255,237,0);stroke:none;" />
  <ellipse cx="63.2649" cy="204.4631" rx="7" ry="7" style="fill:rgb(197,82,0);stroke:none;" />
  <ellipse cx="133.6028" cy="339.9677" rx="14" ry="14" style="fill:rgb(0,30,152);stroke:none;" />
  <ellipse cx="343.7389" cy="55.3092" rx="10" ry="10" style="fill:rgb(234,135,0);stroke:none;" />
  <ellipse cx="231.2975" cy="56.1287" rx="5" ry="5" style="fill:rgb(234,135,0);stroke:none;" />
  <ellipse cx="131.8713" cy="160.693" rx="10" ry="10" style="fill:rgb(221,255,33);stroke:none;" />
  <ellipse cx="206.2403" cy="137.9139" rx="13" ry="13" style="fill:rgb(255,165,0);stroke:none;" />
  <ellipse cx="523.5248" cy="326.6425" rx="6" ry="6" style="fill:rgb(26,255,228);stroke:none;" />
  <ellipse cx="118.8735" cy="69.4929" rx="8" ry="8" style="fill:rgb(160,255,94);stroke:none;" />
  <ellipse cx="505.9117" cy="110.0158" rx="10" ry="10" style="fill:rgb(231,255,23);stroke:none;" />
  <ellipse cx="168.7478" cy="305.468" rx="5" ry="5" style="fill:rgb(255,246,0);stroke:none;" />
  <text dominant-baseline="hanging" text-anchor="middle" transform="translate(284.3219,8)" font-family="Segoe UI" font-size="18" font-weight="700" fill="black">ScatterSeries</text>
  <polygon points="40.3354,45.9375 528.3083,45.9375 528.3083,362.375 40.3354,362.375" style="fill:none;stroke:black;stroke-width:1" />
</svg>