<?xml version="1.0" encoding="utf-8" standalone="no"?>
<!DOCTYPE svg PUBLIC "-//W3C//DTD SVG 1.1//EN" "http://www.w3.org/Graphics/SVG/1.1/DTD/svg11.dtd">
<svg width="600" height="400" version="1.1" xmlns:xlink="http://www.w3.org/1999/xlink" xmlns="http://www.w3.org/2000/svg">
  <polyline points="54.6535,362.375 54.6535,366.375" style="fill:none;stroke:black;stroke-width:1" />
  <polyline points="68.1902,362.375 68.1902,366.375" style="fill:none;stroke:black;stroke-width:1" />
  <polyline points="81.7269,362.375 81.7269,366.375" style="fill:none;stroke:black;stroke-width:1" />
  <polyline points="95.2636,362.375 95.2636,366.375" style="fill:none;stroke:black;stroke-width:1" />
  <polyline points="122.337,362.375 122.337,366.375" style="fill:none;stroke:black;stroke-width:1" />
  <polyline points="135.8737,362.375 135.8737,366.375" style="fill:none;stroke:black;stroke-width:1" />
  <polyline points="149.4105,362.375 149.4105,366.375" style="fill:none;stroke:black;stroke-width:1" />
  <polyline points="162.9472,362.375 162.9472,366.375" style="fill:none;stroke:black;stroke-width:1" />
  <polyline points="190.0206,362.375 190.0206,366.375" style="fill:none;stroke:black;stroke-width:1" />
  <polyline points="203.5573,362.375 203.5573,366.375" style="fill:none;stroke:black;stroke-width:1" />
  <polyline points="217.094,362.375 217.094,366.375" style="fill:none;stroke:black;stroke-width:1" />
  <polyline points="230.6307,362.375 230.6307,366.375" style="fill:none;stroke:black;stroke-width:1" />
  <polyline points="257.7042,362.375 257.7042,366.375" style="fill:none;stroke:black;stroke-width:1" />
  <polyline points="271.2409,362.375 271.2409,366.375" style="fill:none;stroke:black;stroke-width:1" />
  <polyline points="284.7776,362.375 284.7776,366.375" style="fill:none;stroke:black;stroke-width:1" />
  <polyline points="298.3143,362.375 298.3143,366.375" style="fill:none;stroke:black;stroke-width:1" />
  <polyline points="325.3877,362.375 325.3877,366.375" style="fill:none;stroke:black;stroke-width:1" />
  <polyline points="338.9245,362.375 338.9245,366.375" style="fill:none;stroke:black;stroke-width:1" />
  <polyline points="352.4612,362.375 352.4612,366.375" style="fill:none;stroke:black;stroke-width:1" />
  <polyline points="365.9979,362.375 365.9979,366.375" style="fill:none;stroke:black;stroke-width:1" />
  <polyline points="393.0713,362.375 393.0713,366.375" style="fill:none;stroke:black;stroke-width:1" />
  <polyline points="406.608,362.375 406.608,366.375" style="fill:none;stroke:black;stroke-width:1" />
  <polyline points="420.1447,362.375 420.1447,366.375" style="fill:none;stroke:black;stroke-width:1" />
  <polyline points="433.6815,362.375 433.6815,366.375" style="fill:none;stroke:black;stroke-width:1" />
  <polyline points="460.7549,362.375 460.7549,366.375" style="fill:none;stroke:black;stroke-width:1" />
  <polyline points="474.2916,362.375 474.2916,366.375" style="fill:none;stroke:black;stroke-width:1" />
  <polyline points="487.8283,362.375 487.8283,366.375" style="fill:none;stroke:black;stroke-width:1" />
  <polyline points="501.365,362.375 501.365,366.375" style="fill:none;stroke:black;stroke-width:1" />
  <polyline points="528.4385,362.375 528.4385,366.375" style="fill:none;stroke:black;stroke-width:1" />
  <polyline points="541.9752,362.375 541.9752,366.375" style="fill:none;stroke:black;stroke-width:1" />
  <polyline points="555.5119,362.375 555.5119,366.375" style="fill:none;stroke:black;stroke-width:1" />
  <polyline points="569.0486,362.375 569.0486,366.375" style="fill:none;stroke:black;stroke-width:1" />
  <polyline points="35.6479,359.242 31.6479,359.242" style="fill:none;stroke:black;stroke-width:1" />
  <polyline points="35.6479,314.9273 31.6479,314.9273" style="fill:none;stroke:black;stroke-width:1" />
  <polyline points="35.6479,292.77 31.6479,292.77" style="fill:none;stroke:black;stroke-width:1" />
  <polyline points="35.6479,270.6127 31.6479,270.6127" style="fill:none;stroke:black;stroke-width:1" />
  <polyline points="35.6479,248.4554 31.6479,248.4554" style="fill:none;stroke:black;stroke-width:1" />
  <polyline points="35.6479,204.1407 31.6479,204.1407" style="fill:none;stroke:black;stroke-width:1" />
  <polyline points="35.6479,181.9834 31.6479,181.9834" style="fill:none;stroke:black;stroke-width:1" />
  <polyline points="35.6479,159.8261 31.6479,159.8261" style="fill:none;stroke:black;stroke-width:1" />
  <polyline points="35.6479,137.6688 31.6479,137.6688" style="fill:none;stroke:black;stroke-width:1" />
  <polyline points="35.6479,93.3542 31.6479,93.3542" style="fill:none;stroke:black;stroke-width:1" />
  <polyline points="35.6479,71.1968 31.6479,71.1968" style="fill:none;stroke:black;stroke-width:1" />
  <polyline points="35.6479,49.0395 31.6479,49.0395" style="fill:none;stroke:black;stroke-width:1" />
  <text dominant-baseline="hanging" text-anchor="middle" transform="translate(41.1167,373.375)" font-family="Segoe UI" font-size="12" font-weight="400" fill="black">0</text>
  <text dominant-baseline="hanging" text-anchor="middle" transform="translate(108.8003,373.375)" font-family="Segoe UI" font-size="12" font-weight="400" fill="black">5</text>
  <text dominant-baseline="hanging" text-anchor="middle" transform="translate(176.4839,373.375)" font-family="Segoe UI" font-size="12" font-weight="400" fill="black">10</text>
  <text dominant-baseline="hanging" text-anchor="middle" transform="translate(244.1675,373.375)" font-family="Segoe UI" font-size="12" font-weight="400" fill="black">15</text>
  <text dominant-baseline="hanging" text-anchor="middle" transform="translate(311.851,373.375)" font-family="Segoe UI" font-size="12" font-weight="400" fill="black">20</text>
  <text dominant-baseline="hanging" text-anchor="middle" transform="translate(379.5346,373.375)" font-family="Segoe UI" font-size="12" font-weight="400" fill="black">25</text>
  <text dominant-baseline="hanging" text-anchor="middle" transform="translate(447.2182,373.375)" font-family="Segoe UI" font-size="12" font-weight="400" fill="black">30</text>
  <text dominant-baseline="hanging" text-anchor="middle" transform="translate(514.9017,373.375)" font-family="Segoe UI" font-size="12" font-weight="400" fill="black">35</text>
  <text dominant-baseline="hanging" text-anchor="middle" transform="translate(582.5853,373.375)" font-family="Segoe UI" font-size="12" font-weight="400" fill="black">40</text>
  <polyline points="41.1167,362.375 41.1167,369.375" style="fill:none;stroke:black;stroke-width:1" />
  <polyline points="108.8003,362.375 108.8003,369.375" style="fill:none;stroke:black;stroke-width:1" />
  <polyline points="176.4839,362.375 176.4839,369.375" style="fill:none;stroke:black;stroke-width:1" />
  <polyline points="244.1675,362.375 244.1675,369.375" style="fill:none;stroke:black;stroke-width:1" />
  <polyline points="311.851,362.375 311.851,369.375" style="fill:none;stroke:black;stroke-width:1" />
  <polyline points="379.5346,362.375 379.5346,369.375" style="fill:none;stroke:black;stroke-width:1" />
  <polyline points="447.2182,362.375 447.2182,369.375" style="fill:none;stroke:black;stroke-width:1" />
  <polyline points="514.9017,362.375 514.9017,369.375" style="fill:none;stroke:black;stroke-width:1" />
  <polyline points="582.5853,362.375 582.5853,369.375" style="fill:none;stroke:black;stroke-width:1" />
  <text dominant-baseline="middle" text-anchor="end" transform="translate(24.6479,337.0846)" font-family="Segoe UI" font-size="12" font-weight="400" fill="black">-5</text>
  <text dominant-baseline="middle" text-anchor="end" transform="translate(24.6479,226.2981)" font-family="Segoe UI" font-size="12" font-weight="400" fill="black">0</text>
  <text dominant-baseline="middle" text-anchor="end" transform="translate(24.6479,115.5115)" font-family="Segoe UI" font-size="12" font-weight="400" fill="black">5</text>
  <polyline points="35.6479,337.0846 28.6479,337.0846" style="fill:none;stroke:black;stroke-width:1" />
  <polyline points="35.6479,226.2981 28.6479,226.2981" style="fill:none;stroke:black;stroke-width:1" />
  <polyline points="35.6479,115.5115 28.6479,115.5115" style="fill:none;stroke:black;stroke-width:1" />
  <polyline points="122.337,226.2981 176.4839,137.6688 356.9734,226.2981" style="fill:none;stroke:rgb(255,0,0);stroke-width:2;stroke-linejoin:bevel" />
  <polyline points="474.2916,226.2981 582.5853,49.0395" style="fill:none;stroke:rgb(255,0,0);stroke-width:2;stroke-linejoin:bevel" />
  <polyline points="41.1167,359.242 122.337,226.2981" style="fill:none;stroke:rgb(0,0,255);stroke-width:2;stroke-linejoin:bevel;stroke-dasharray:1,1" />
  <polyline points="356.9734,226.2981 447.2182,270.6127 474.2916,226.2981" style="fill:none;stroke:rgb(0,0,255);stroke-width:2;stroke-linejoin:bevel;stroke-dasharray:1,1" />
  <text dominant-baseline="hanging" text-anchor="middle" transform="translate(311.824,8)" font-family="Segoe UI" font-size="18" font-weight="700" fill="black">TwoColorLineSeries</text>
  <polygon points="35.6479,45.9375 588,45.9375 588,362.375 35.6479,362.375" style="fill:none;stroke:black;stroke-width:1" />
</svg>